<svg width="50" height="50" viewBox="0 0 50 50" fill="none" xmlns="http://www.w3.org/2000/svg">
<path d="M28.0826 12.4997C28.4993 11.9164 28.7493 11.1664 28.7493 10.333C28.7493 9.83298 28.666 9.41635 28.4993 8.99968L32.0826 6.49968C32.4993 6.24968 32.5826 5.74968 32.3326 5.33301C32.0826 4.91635 31.5826 4.83301 31.166 5.08301L27.5826 7.58301C26.916 6.91635 25.9993 6.49968 24.916 6.49968C23.916 6.49968 22.9993 6.91635 22.2493 7.58301L18.666 5.08301C18.2493 4.83301 17.7493 4.91635 17.4993 5.33301C17.2493 5.74968 17.3326 6.24968 17.7493 6.49968L21.3326 8.99968C21.166 9.41635 21.0826 9.83298 21.0826 10.333C21.0826 11.1664 21.3326 11.833 21.7493 12.4997C18.5826 12.833 16.166 15.4997 16.166 18.6664V33.4997C16.166 36.2497 17.916 38.583 20.416 39.4164V34.4997C20.416 31.9997 22.416 30.083 24.916 30.083C27.416 30.083 29.416 32.083 29.416 34.4997V39.4164C31.916 38.583 33.666 36.2497 33.666 33.4997V18.6664C33.666 15.4164 31.2493 12.833 28.0826 12.4997ZM29.5826 19.2497C27.9993 21.9997 26.4993 23.4164 24.8326 23.4164H24.7493C23.166 23.333 21.666 21.9997 20.3326 19.2497C20.166 18.9997 20.2493 18.6664 20.416 18.4164C20.5826 18.1664 20.8326 17.9997 21.0826 17.9997H28.8326C29.166 17.9997 29.416 18.1664 29.5826 18.4164C29.7493 18.6664 29.7493 18.9997 29.5826 19.2497Z" fill="#0D3642"/>
<path d="M25 31.667C23.5 31.667 22.25 32.917 22.25 34.417V42.167C22.25 43.7503 23.5 45.0003 25 45.0003C26.5 45.0003 27.75 43.7503 27.75 42.167V34.417C27.75 32.917 26.5 31.667 25 31.667Z" fill="#0D3642"/>
</svg>
