<svg width="50" height="50" viewBox="0 0 50 50" fill="none" xmlns="http://www.w3.org/2000/svg">
<path d="M38.9524 28.1768C38.847 27.7143 38.5912 27.2775 38.1872 26.9248C37.7812 26.5745 37.2854 26.3633 36.7715 26.2855L28.508 24.6865L30.8987 26.2732L27.1245 38.1043L24.9992 29.3163L22.8729 38.1045L19.1005 26.2735L21.4902 24.6868L13.2267 26.2857C12.7127 26.3636 12.2172 26.5745 11.8107 26.925C11.4067 27.2777 11.1507 27.7146 11.0457 28.1771L8.5957 38.9386L13.2175 40.5423C14.7517 42.1373 19.0467 43.3105 24.1979 43.4223H25.8C30.9512 43.3107 35.2457 42.1373 36.7804 40.5423L41.4024 38.9386L38.9524 28.1768Z" fill="#0D3642"/>
<path d="M25 25.8873L23.0952 26.5694L25 29.3156L26.9053 26.5694L25 25.8873ZM32.0723 15.2902C32.0723 10.4059 30.0622 6.57812 25 6.57812C19.9372 6.57812 17.9282 10.4061 17.9282 15.2902C17.3987 15.5663 17.051 16.2147 17.571 17.6038C17.8332 18.3014 18.2955 18.8859 18.6878 19.1919C20.1305 22.7839 22.9678 25.5569 25 25.5569C27.0322 25.5569 29.8697 22.7839 31.3117 19.1919C31.7045 18.8859 32.166 18.3011 32.429 17.6038C32.949 16.2144 32.6015 15.5663 32.0723 15.2902ZM7.989 36.4834C5.63 36.2046 3.7705 35.5671 2.99675 34.7631L0 33.7232L1.5885 26.7459C1.65675 26.4461 1.823 26.1626 2.08475 25.9344C2.34552 25.7123 2.66377 25.5687 3.00275 25.5198L8.8065 24.1906C7.93325 23.4439 7.0855 22.2729 6.54325 20.9206C6.28875 20.7226 5.989 20.3436 5.81875 19.8911C5.48125 18.9908 5.70675 18.5706 6.05025 18.3911C6.05025 15.2246 7.35225 12.7429 10.635 12.7429H10.6357C13.9178 12.7429 15.2205 15.2246 15.2205 18.3911C15.564 18.5706 15.7895 18.9908 15.4525 19.8911C15.282 20.3436 14.9822 20.7226 14.7277 20.9206C14.1855 22.2726 13.3375 23.4436 12.4645 24.1906L15.0308 24.7786L13.033 25.1649C12.2955 25.2799 11.6162 25.5911 11.0643 26.0679C10.4905 26.5692 10.1005 27.2107 9.93779 27.9237L7.989 36.4834ZM48.4115 26.7456C48.3428 26.4459 48.177 26.1623 47.9152 25.9341C47.6522 25.7071 47.331 25.5696 46.9973 25.5196L41.1938 24.1904C42.067 23.4436 42.9145 22.2726 43.4575 20.9203C43.7122 20.7224 44.0112 20.3434 44.1815 19.8908C44.519 18.9906 44.2935 18.5703 43.9503 18.3908C43.9503 15.2243 42.6468 12.7426 39.3645 12.7426C36.082 12.7426 34.7793 15.2243 34.7793 18.3908C34.4362 18.5703 34.2105 18.9906 34.548 19.8908C34.7178 20.3434 35.0175 20.7224 35.272 20.9203C35.8147 22.2724 36.6625 23.4434 37.5357 24.1904L34.969 24.7783L36.9668 25.1647C37.7037 25.2796 38.3835 25.5908 38.9308 26.0631C39.5093 26.5686 39.8985 27.2104 40.0612 27.9224L42.0103 36.4834C44.3692 36.2046 46.2287 35.5671 47.0027 34.7631L49.9992 33.7232L48.4115 26.7456Z" fill="#0D3642"/>
</svg>
