<svg width="50" height="50" viewBox="0 0 50 50" fill="none" xmlns="http://www.w3.org/2000/svg">
<path d="M49.6875 38.1738C49.6289 38.5742 49.5313 38.9648 49.3848 39.2676C49.1211 39.8047 48.8672 39.8535 47.8711 39.8047C46.582 39.7461 44.7363 39.8047 42.7832 39.8828C42.7832 40.4199 42.8027 40.6738 42.8027 40.6738C42.9297 42.1484 43.5937 42.1973 43.8574 42.1973H48.0566C48.4277 42.1973 48.7695 42.1973 49.0332 42.0215C49.375 41.7969 49.5215 41.1426 49.6484 40C49.668 39.834 49.6777 39.6191 49.6875 39.3652V39.3555C49.6875 39.2773 49.6973 39.1797 49.6973 39.0723V38.9648C49.6973 38.7012 49.6973 38.4082 49.6875 38.1738Z" fill="#0D3642"/>
<path d="M0.292969 38.1738C0.351562 38.5742 0.449219 38.9648 0.595703 39.2676C0.859375 39.8047 1.11328 39.8535 2.10938 39.8047C3.39844 39.7461 5.24414 39.8047 7.19727 39.8828C7.19727 40.4199 7.17773 40.6738 7.17773 40.6738C7.05078 42.1484 6.38672 42.1973 6.12305 42.1973H1.92383C1.55274 42.1973 1.24024 42.1973 0.947266 42.0215C0.595703 41.8164 0.458984 41.1426 0.332031 40C0.3125 39.834 0.302734 39.6191 0.292969 39.3652V39.3555C0.292969 39.2773 0.283203 39.1797 0.283203 39.0723V38.9648C0.292969 38.7012 0.292969 38.4082 0.292969 38.1738Z" fill="#0D3642"/>
<path d="M50 28.9648C50 25.9668 49.6094 23.0371 49.4531 22.7148C49.3359 22.4805 48.584 21.8652 46.875 20.7031C45.1465 19.5215 45.1855 19.6972 44.873 18.9258C45.1563 18.8379 45.4297 18.6719 45.5957 18.6523C45.9668 18.6133 45.9863 18.9648 46.7578 18.9648C47.5293 18.9648 49.1992 18.7597 49.541 18.4179C49.8828 18.0762 49.9902 17.959 49.9902 17.6562C49.9902 17.3535 49.8145 16.7285 49.4824 16.3574C49.1504 15.9863 47.7344 15.8008 46.9043 15.6933C46.0742 15.5859 45.957 15.6933 45.7422 15.8301C45.4004 16.0449 45.3809 18.0078 45.3809 18.0078L44.5703 18.0273C44.043 16.7285 43.3105 14.1113 42.168 12.0508C40.918 9.80467 39.6094 9.10156 39.0625 8.92578C38.5254 8.75977 38.0371 8.64258 34.375 8.27148C30.6348 7.88086 27.6563 7.83203 25 7.83203C22.3437 7.83203 19.3652 7.89062 15.625 8.27148C11.9629 8.65234 11.4746 8.75977 10.9375 8.92578C10.4004 9.0918 9.08203 9.80467 7.83203 12.0508C6.68945 14.1113 5.95703 16.7285 5.42969 18.0273L4.61914 18.0078C4.61914 18.0078 4.60937 16.0449 4.25781 15.8301C4.04297 15.6933 3.92578 15.5762 3.0957 15.6933C2.26563 15.8105 0.849609 15.9863 0.517578 16.3574C0.185547 16.7285 0.00976563 17.3535 0.00976563 17.6562C0.00976563 17.959 0.117187 18.0859 0.458984 18.4179C0.800781 18.7597 2.4707 18.9648 3.24219 18.9648C4.01367 18.9648 4.0332 18.6133 4.4043 18.6523C4.57031 18.6719 4.85352 18.8379 5.12695 18.9258C4.80469 19.6972 4.85352 19.5215 3.125 20.7031C1.41602 21.875 0.654297 22.4805 0.546875 22.7148C0.390625 23.0371 0 25.9668 0 28.9648C0 31.9629 0.214844 34.6582 0.214844 35.6152C0.214844 36.0156 0.214844 36.7187 0.302734 37.3926C0.361328 37.7929 0.449219 38.1836 0.605469 38.4863C0.869141 39.0234 1.11328 39.0722 2.11914 39.0234C3.4082 38.9648 5.27344 39.0234 7.19727 39.1015C8.48633 39.1504 9.80469 39.1992 10.9766 39.2285C13.9063 39.2871 13.0469 38.7988 14.2969 38.8183C15.5469 38.8379 20.4785 39.0429 24.9902 39.0429C29.502 39.0429 34.4434 38.8379 35.6836 38.8183C36.9336 38.7988 36.0742 39.2871 39.0039 39.2285C40.1758 39.209 41.4941 39.1504 42.7832 39.1015C44.707 39.0332 46.582 38.9648 47.8613 39.0234C48.8672 39.0722 49.1113 39.0234 49.375 38.4863C49.5215 38.1836 49.6191 37.7929 49.6777 37.3926C49.7754 36.7187 49.7656 36.0156 49.7656 35.6152C49.7852 34.668 50 31.9629 50 28.9648ZM8.41797 14.1797C8.88672 13.0859 10.293 10.8887 10.9766 10.498C11.1426 10.4004 12.5977 9.94139 16.2402 9.69727C19.5898 9.47266 23.291 9.38477 25.0098 9.38477C26.7285 9.38477 30.4297 9.47266 33.7793 9.69727C37.4121 9.94139 38.8867 10.3906 39.043 10.498C39.9219 11.1035 41.1328 13.0859 41.6016 14.1797C42.0703 15.2734 42.6953 17.4219 42.5781 17.7148C42.4609 18.0078 42.6953 18.1543 41.1133 18.0273C39.541 17.9101 29.668 17.7832 25.0195 17.7832C20.3809 17.7832 10.5078 17.9101 8.92578 18.0273C7.34375 18.1445 7.57813 18.0078 7.46094 17.7148C7.32422 17.4219 7.94922 15.2832 8.41797 14.1797ZM12.0117 26.4062C11.3086 26.582 10.8887 26.9629 10.0098 26.9531C9.13086 26.9531 6.75781 26.5527 6.25 26.5332C5.74219 26.5137 5.29297 26.875 5.0293 26.9433C4.76562 27.0117 4.24805 26.8262 3.4668 26.582C2.68555 26.3379 2.22656 26.4062 1.97266 25.3418C1.70898 24.2871 1.97266 22.7734 1.97266 22.7734C3.66211 22.6953 5.29297 22.8515 8.34961 23.7109C11.4062 24.5703 13.1055 26.2207 13.1055 26.2207C13.1055 26.2207 12.7148 26.2304 12.0117 26.4062ZM34.9805 34.1015C33.584 34.2871 27.7344 34.3359 25 34.3359C22.2656 34.3359 16.416 34.2773 15.0195 34.1015C13.5938 33.916 11.7383 32.207 13.0176 30.8496C14.7461 29.0039 14.4238 29.0625 18.3496 28.5547C21.748 28.1152 24.3262 28.0957 25 28.0957C25.6641 28.0957 28.252 28.125 31.6504 28.5547C35.5762 29.0625 35.2539 29.0039 36.9824 30.8496C38.2617 32.207 36.4063 33.916 34.9805 34.1015ZM48.0273 25.3515C47.7637 26.4062 47.3145 26.3476 46.5332 26.5918C45.752 26.8359 45.2344 27.0117 44.9707 26.9531C44.707 26.8945 44.2578 26.5332 43.75 26.5429C43.2422 26.5625 40.8691 26.9629 39.9902 26.9629C39.1113 26.9629 38.6914 26.5918 37.9883 26.416C37.2852 26.2402 36.8945 26.2402 36.8945 26.2402C36.8945 26.2402 38.584 24.5801 41.6504 23.7304C44.707 22.8711 46.3379 22.7148 48.0273 22.7929C48.0273 22.7734 48.291 24.2871 48.0273 25.3515Z" fill="#0D3642"/>
</svg>
