<svg width="50" height="50" viewBox="0 0 50 50" fill="none" xmlns="http://www.w3.org/2000/svg">
<path d="M41.0711 27.679V41.0718C41.0711 41.5555 40.8945 41.974 40.5411 42.3275C40.1876 42.6809 39.7691 42.8576 39.2855 42.8576H28.5711V32.1433H21.4284V42.8576H10.714C10.2304 42.8576 9.81186 42.6809 9.45846 42.3275C9.10503 41.974 8.92832 41.5555 8.92832 41.0718V27.679C8.92832 27.6604 8.93297 27.6325 8.94227 27.5953C8.95158 27.558 8.95623 27.5302 8.95623 27.5116L24.9998 14.2862L41.0433 27.5116C41.0619 27.5488 41.0711 27.6046 41.0711 27.679ZM47.2933 25.7537L45.5633 27.8185C45.4146 27.9859 45.2193 28.0882 44.9774 28.1254H44.8937C44.6519 28.1254 44.4566 28.0603 44.3078 27.9301L24.9998 11.8308L5.69171 27.9301C5.4685 28.0789 5.24529 28.144 5.02208 28.1254C4.78026 28.0882 4.58495 27.9859 4.43614 27.8185L2.70623 25.7537C2.55742 25.5677 2.49231 25.3492 2.51091 25.0981C2.52952 24.847 2.63182 24.647 2.81784 24.4982L22.8792 7.78502C23.4745 7.30139 24.1813 7.05957 24.9998 7.05957C25.8182 7.05957 26.525 7.30139 27.1203 7.78502L33.9284 13.477V8.03613C33.9284 7.77572 34.0121 7.56181 34.1794 7.39439C34.3468 7.22698 34.5608 7.14328 34.8211 7.14328H40.1784C40.4387 7.14328 40.6527 7.22698 40.8201 7.39439C40.9874 7.56181 41.0711 7.77572 41.0711 8.03613V19.4201L47.1817 24.4982C47.3677 24.647 47.47 24.847 47.4886 25.0981C47.5072 25.3492 47.4421 25.5677 47.2933 25.7537Z" fill="#0D3642"/>
</svg>
