<svg width="50" height="50" viewBox="0 0 50 50" fill="none" xmlns="http://www.w3.org/2000/svg">
<path d="M24.207 12.834C24.207 14.3041 23.623 15.714 22.5836 16.7534C21.544 17.793 20.1342 18.3769 18.6641 18.3769C17.194 18.3769 15.7841 17.793 14.7446 16.7534C13.7051 15.714 13.1211 14.3041 13.1211 12.834C13.1211 11.3639 13.7051 9.95399 14.7446 8.91451C15.7841 7.875 17.194 7.29102 18.6641 7.29102C20.1342 7.29102 21.544 7.875 22.5836 8.91451C23.623 9.95399 24.207 11.3639 24.207 12.834Z" fill="#0D3642"/>
<path fill-rule="evenodd" clip-rule="evenodd" d="M18.6645 8.33398C18.0684 8.32613 17.4767 8.43676 16.9236 8.65943C16.3707 8.88212 15.8674 9.21242 15.4431 9.63117C15.0188 10.0499 14.6819 10.5488 14.452 11.0988C14.222 11.6488 14.1036 12.2391 14.1036 12.8351C14.1036 13.4313 14.222 14.0215 14.452 14.5715C14.6819 15.1216 15.0188 15.6204 15.4431 16.0392C15.8674 16.4579 16.3707 16.7882 16.9236 17.0108C17.4767 17.2336 18.0684 17.3442 18.6645 17.3363C19.8479 17.3207 20.9777 16.8396 21.8092 15.9972C22.6405 15.1548 23.1067 14.0187 23.1067 12.8351C23.1067 11.6516 22.6405 10.5155 21.8092 9.67311C20.9777 8.83066 19.8479 8.34958 18.6645 8.33398ZM12.0801 12.8348C12.0801 11.0884 12.7738 9.41352 14.0087 8.17863C15.2437 6.94375 16.9185 6.25 18.6648 6.25C20.4112 6.25 22.0861 6.94375 23.321 8.17863C24.5559 9.41352 25.2496 11.0884 25.2496 12.8348C25.2496 14.5811 24.5559 16.256 23.321 17.4909C22.0861 18.7258 20.4112 19.4195 18.6648 19.4195C16.9185 19.4195 15.2437 18.7258 14.0087 17.4909C12.7738 16.256 12.0801 14.5811 12.0801 12.8348ZM32.7262 22.9176C27.5488 22.9176 23.3512 27.1144 23.3512 32.2926C23.3512 37.4699 27.5488 41.6676 32.7262 41.6676C37.9043 41.6676 42.1012 37.4699 42.1012 32.2926C42.1012 27.1144 37.9043 22.9176 32.7262 22.9176ZM21.2684 32.2926C21.2684 25.9644 26.398 20.834 32.7262 20.834C39.0543 20.834 44.1848 25.9637 44.1848 32.2926C44.1848 38.6207 39.0551 43.7504 32.7262 43.7504C26.398 43.7504 21.2684 38.6207 21.2684 32.2926Z" fill="#0D3642"/>
<path fill-rule="evenodd" clip-rule="evenodd" d="M23.0539 21.3793C23.6242 20.8731 23.5711 19.9356 22.8609 19.6582C21.5237 19.1369 20.1008 18.8706 18.6656 18.8731C13.3766 18.8731 8.96563 22.4051 7.94844 27.0996C7.70469 28.2246 8.66016 29.1676 9.81094 29.1676H17.6406C18.1305 29.1676 18.55 28.8246 18.682 28.3535C19.4396 25.6572 20.9573 23.2361 23.0539 21.3793Z" fill="#0D3642"/>
<path d="M43.1434 32.2914C43.1434 38.0445 38.4801 42.7086 32.727 42.7086C26.9738 42.7086 22.3105 38.0445 22.3105 32.2914C22.3105 26.5383 26.9746 21.875 32.7262 21.875C38.4793 21.875 43.1434 26.5391 43.1434 32.2914Z" fill="#FFBA07"/>
<path fill-rule="evenodd" clip-rule="evenodd" d="M32.7273 22.9176C27.55 22.9176 23.3523 27.1145 23.3523 32.2926C23.3523 37.4699 27.55 41.6676 32.7273 41.6676C37.9055 41.6676 42.1023 37.4699 42.1023 32.2926C42.1023 27.1145 37.9055 22.9176 32.7273 22.9176ZM21.2695 32.2926C21.2695 25.9645 26.3992 20.834 32.7273 20.834C39.0555 20.834 44.1859 25.9637 44.1859 32.2926C44.1859 38.6207 39.0563 43.7504 32.7273 43.7504C26.3992 43.7504 21.2695 38.6207 21.2695 32.2926Z" fill="#FFBA07"/>
<path fill-rule="evenodd" clip-rule="evenodd" d="M27.5742 33.1691C27.5742 32.5941 28.0406 32.1277 28.6156 32.1277H30.8086C31.085 32.1277 31.3499 32.2375 31.5453 32.4329C31.7406 32.6282 31.8504 32.8933 31.8504 33.1695C31.8504 33.4459 31.7406 33.7108 31.5453 33.9063C31.3499 34.1016 31.085 34.2113 30.8086 34.2113H28.6156C28.4788 34.2113 28.3434 34.1844 28.217 34.132C28.0905 34.0796 27.9757 34.0028 27.879 33.9061C27.7823 33.8093 27.7056 33.6943 27.6533 33.568C27.601 33.4415 27.5741 33.306 27.5742 33.1691ZM27.5742 26.591C27.5742 26.0152 28.0406 25.5488 28.6156 25.5488H36.8391C37.1154 25.5488 37.3804 25.6586 37.5758 25.854C37.7711 26.0493 37.8809 26.3144 37.8809 26.5906C37.8809 26.867 37.7711 27.1319 37.5758 27.3273C37.3804 27.5227 37.1154 27.6324 36.8391 27.6324H28.6156C28.4788 27.6324 28.3434 27.6055 28.217 27.5531C28.0905 27.5007 27.9757 27.4239 27.879 27.3272C27.7823 27.2304 27.7056 27.1154 27.6533 26.9891C27.601 26.8626 27.5741 26.7278 27.5742 26.591ZM27.5742 29.8801C27.5742 29.3051 28.0406 28.8387 28.6156 28.8387H36.8391C37.1154 28.8387 37.3804 28.9484 37.5758 29.1438C37.7711 29.3392 37.8809 29.6042 37.8809 29.8805C37.8809 30.1568 37.7711 30.4218 37.5758 30.6172C37.3804 30.8125 37.1154 30.9223 36.8391 30.9223H28.6156C28.4788 30.9223 28.3434 30.8953 28.217 30.843C28.0905 30.7905 27.9757 30.7138 27.879 30.617C27.7823 30.5202 27.7056 30.4053 27.6533 30.2789C27.601 30.1524 27.5741 30.0169 27.5742 29.8801Z" fill="#0D3642"/>
<path fill-rule="evenodd" clip-rule="evenodd" d="M27.8795 32.4326C28.2857 32.0264 28.9459 32.0264 29.3529 32.4326L35.1678 38.2475C35.2646 38.3442 35.3413 38.4591 35.3937 38.5854C35.446 38.7119 35.4729 38.8474 35.4729 38.9842C35.4729 39.121 35.446 39.2565 35.3937 39.3829C35.3413 39.5093 35.2646 39.6241 35.1678 39.7209C35.0711 39.8177 34.9562 39.8944 34.8298 39.9468C34.7034 39.9991 34.5679 40.0261 34.4311 40.0261C34.2942 40.0261 34.1588 39.9991 34.0324 39.9468C33.906 39.8944 33.7911 39.8177 33.6943 39.7209L27.8795 33.9061C27.7827 33.8094 27.706 33.6945 27.6535 33.5681C27.6012 33.4417 27.5742 33.3062 27.5742 33.1693C27.5742 33.0325 27.6012 32.897 27.6535 32.7706C27.706 32.6442 27.7827 32.5294 27.8795 32.4326Z" fill="#0D3642"/>
<path fill-rule="evenodd" clip-rule="evenodd" d="M33.057 29.8801C33.057 28.716 32.0078 27.6324 30.5352 27.6324V25.5488C32.9984 25.5488 35.1406 27.4113 35.1406 29.8801C35.1406 32.3488 32.9984 34.2113 30.5352 34.2113V32.1277C32.0078 32.1277 33.057 31.0449 33.057 29.8801Z" fill="#0D3642"/>
</svg>
