<svg width="50" height="50" viewBox="0 0 50 50" fill="none" xmlns="http://www.w3.org/2000/svg">
<path d="M46.3281 9.84375L25.2344 2.03125C25.0781 1.95312 24.8438 1.95312 24.6875 2.03125L3.59375 9.84375C3.35937 9.92188 3.125 10.2344 3.125 10.5469C3.125 10.8594 3.35937 11.1719 3.67187 11.25L10.9375 13.9844V18.3594C10.9375 18.5156 10.9375 18.5938 11.0156 18.75C11.0938 18.8281 11.4844 19.6094 12.5 20.5469C12.5 20.625 12.4219 20.7031 12.4219 20.7813V20.8594C10.2344 21.25 8.51562 23.125 8.51562 25.4688C8.51562 27.8125 10.2344 29.6875 12.4219 30.0781V30.3125C12.4219 30.3906 13.0469 34.2969 15.9375 37.4219C11.7969 39.4531 8.4375 42.8906 6.48438 47.1094C6.40625 47.3438 6.40625 47.6563 6.5625 47.8906C6.71875 48.125 6.95312 48.2813 7.1875 48.2813H42.6562C42.8906 48.2813 43.2031 48.125 43.2813 47.8906C43.3594 47.6563 43.4375 47.4219 43.3594 47.1094C41.4062 42.8906 38.0469 39.5313 33.9063 37.4219C36.7188 34.2969 37.4219 30.3906 37.4219 30.3125V30.0781C39.6094 29.6875 41.3281 27.8125 41.3281 25.4688C41.3281 23.125 39.6094 21.25 37.4219 20.8594V20.7813C37.4219 20.7031 37.4219 20.625 37.3437 20.5469C38.3594 19.6094 38.8281 18.9063 38.8281 18.75C38.9063 18.5938 38.9062 18.5156 38.9062 18.3594V13.9844L42.0312 12.8125V19.2969C41.0937 19.6094 40.4687 20.4688 40.4687 21.4844C40.4687 22.8125 41.4844 23.8281 42.8125 23.8281C44.1406 23.8281 45.1562 22.8125 45.1562 21.4844C45.1562 20.4688 44.5312 19.6094 43.5937 19.2969V12.2656L46.1719 11.3281C46.4844 11.25 46.7187 10.9375 46.7187 10.625C46.7187 10.3125 46.6406 9.92188 46.3281 9.84375ZM42.9688 22.2656C42.5 22.2656 42.1875 21.9531 42.1875 21.4844C42.1875 21.0156 42.5 20.7031 42.9688 20.7031C43.4375 20.7031 43.75 21.0156 43.75 21.4844C43.75 21.9531 43.4375 22.2656 42.9688 22.2656ZM14.0625 21.7188C15 22.3438 16.0937 22.9688 17.5 23.4375C16.9531 24.1406 15.7813 25.0781 14.0625 25.3125V21.7188ZM10.1562 25.3906C10.1562 23.9063 11.1719 22.7344 12.5 22.3438V28.3594C11.1719 28.0469 10.1562 26.875 10.1562 25.3906ZM17.1875 38.4375C18.4375 39.4531 20 40.3125 21.9531 40.7031L25.1563 46.4844H8.4375C10.4688 42.8906 13.5156 40.0781 17.1875 38.4375ZM23.9844 41.0156H26.0156L25 42.7344L23.9844 41.0156ZM41.4844 46.4844H27.0312L25.7812 44.2969L27.9687 40.7031C29.9219 40.3125 31.4844 39.4531 32.7344 38.4375C36.4844 40.0781 39.5312 42.8906 41.4844 46.4844ZM35.9375 30C35.7812 30.8594 34.1406 39.4531 25 39.4531C15.9375 39.4531 14.2188 30.8594 14.0625 30V26.875C16.9531 26.5625 18.5156 24.7656 19.1406 23.9063C19.8437 24.0625 20.5469 24.2188 21.3281 24.375C21.7187 25 24.0625 28.125 27.9687 28.8281C28.5156 28.9063 29.0625 28.9844 29.6094 28.9844H29.6875V29.375C29.6875 29.8437 30 30.1562 30.4688 30.1562C30.9375 30.1562 31.25 29.8437 31.25 29.375V28.8281C32.8125 28.5938 34.375 27.8906 35.9375 26.9531V30ZM35.9375 25C33.2812 26.9531 30.625 27.7344 28.2813 27.2656C26.0938 26.875 24.4531 25.5469 23.5156 24.5313C23.9844 24.5313 24.5312 24.6094 25 24.6094C30.3125 24.6094 33.75 23.2031 35.9375 21.7188V25ZM39.8438 25.3906C39.8438 26.875 38.8281 28.0469 37.5 28.4375V22.4219C38.8281 22.7344 39.8438 23.9063 39.8438 25.3906ZM37.5 18.125C36.875 18.9844 33.6719 23.0469 25 23.0469C16.3281 23.0469 13.125 18.9844 12.5 18.125V14.5313L24.7656 19.0625C24.8438 19.0625 24.9219 19.1406 25 19.1406C25.0781 19.1406 25.1562 19.1406 25.2344 19.0625L37.5 14.5313V18.125ZM25 17.5L6.17188 10.5469L25 3.59375L43.8281 10.5469L25 17.5Z" fill="#0D3642"/>
<path d="M19.5312 26.9531C19.0625 26.9531 18.75 27.2656 18.75 27.7344V29.2969C18.75 29.7656 19.0625 30.0781 19.5312 30.0781C20 30.0781 20.3125 29.7656 20.3125 29.2969V27.7344C20.3125 27.2656 20 26.9531 19.5312 26.9531ZM29.1406 34.0625C28.75 33.9062 28.2813 34.1406 28.125 34.5313C28.125 34.5313 27.5 36.3281 24.9219 36.3281C22.4219 36.3281 21.7969 34.6094 21.7187 34.5313C21.5625 34.1406 21.1719 33.9062 20.7031 34.0625C20.3125 34.2187 20.0781 34.6094 20.2344 35.0781C20.3125 35.2344 21.25 37.9687 24.8437 37.9687C28.4375 37.9687 29.4531 35.2344 29.4531 35.0781C29.7656 34.6094 29.5312 34.1406 29.1406 34.0625Z" fill="#0D3642"/>
</svg>
