<?xml version="1.0" encoding="utf-8"?>
<!-- Generator: Adobe Illustrator 24.2.1, SVG Export Plug-In . SVG Version: 6.00 Build 0)  -->
<svg version="1.1" id="Layer_1" xmlns="http://www.w3.org/2000/svg" xmlns:xlink="http://www.w3.org/1999/xlink" x="0px" y="0px"
	 viewBox="0 0 500 500" style="enable-background:new 0 0 500 500;" xml:space="preserve">
<style type="text/css">
	.st0{fill:#F1EFF7;}
	.st1{opacity:0.7;fill:url(#SVGID_1_);}
	.st2{opacity:0.7;fill:url(#SVGID_2_);}
	.st3{opacity:0.7;fill:url(#SVGID_3_);}
	.st4{fill:#76CEDD;}
	.st5{fill:#FFFFFF;}
	.st6{opacity:0.7;fill:url(#SVGID_4_);}
	.st7{fill:#22356C;}
	.st8{opacity:0.7;fill:url(#SVGID_5_);}
	.st9{fill:#C5E8EE;}
	.st10{opacity:0.7;fill:url(#SVGID_6_);}
	.st11{fill:#48C2C5;}
	.st12{fill:#90D5E2;}
	.st13{fill:#E2F0F0;}
	.st14{opacity:0.75;fill:url(#SVGID_7_);}
	.st15{opacity:0.75;fill:url(#SVGID_8_);}
	.st16{opacity:0.75;fill:url(#SVGID_9_);}
	.st17{opacity:0.75;fill:url(#SVGID_10_);}
	.st18{opacity:0.75;fill:url(#SVGID_11_);}
	.st19{opacity:0.75;fill:url(#SVGID_12_);}
	.st20{opacity:0.1;}
	.st21{fill:#010101;}
	.st22{fill:#F3BC84;}
	.st23{fill:#2A2E72;}
	.st24{fill:#2A215B;}
	.st25{opacity:0.5;fill:url(#SVGID_13_);}
	.st26{opacity:0.75;fill:url(#SVGID_14_);}
	.st27{opacity:0.75;fill:url(#SVGID_15_);}
	.st28{opacity:0.75;fill:url(#SVGID_16_);}
	.st29{fill:#25B1B4;}
	.st30{opacity:0.75;fill:url(#SVGID_17_);}
	.st31{opacity:0.5;fill:url(#SVGID_18_);}
	.st32{opacity:0.5;fill:url(#SVGID_19_);}
	.st33{opacity:0.5;fill:url(#SVGID_20_);}
	.st34{opacity:0.5;fill:url(#SVGID_21_);}
	.st35{opacity:0.7;fill:url(#SVGID_22_);}
</style>
<g id="Personal_Loan_1_">
	<g>
		<path class="st0" d="M398.73,192.03c-11.06,14.06-38.96,19.14-39.73,63.23c-0.66,36.12,18.74,62.35,19,85.69
			c0.21,14.7-7.12,28.23-31.76,42.34c-63.79,36.6-59.83-19.61-153.54,0.98c-88.21,19.4-136.32,2.02-118.54-29.37
			c0.05-0.11,0.13-0.21,0.19-0.32c12.39-21.53,35.51-29.34,41.43-62.62c2.1-11.69,2.07-26.55-1.33-46.25
			c-8.05-46.67,25.81-53.77,54.35-62.83c23.68-7.47,43.72-16.29,33.12-50.07c-7.87-25.12,8.82-39.41,32.64-42.55
			c29.58-3.91,70.19,9.44,88.48,40.8c13.18,22.56,71.63,3.27,79.47,41.94C404.25,181.56,402.42,187.3,398.73,192.03z"/>
		<linearGradient id="SVGID_1_" gradientUnits="userSpaceOnUse" x1="189.3566" y1="186.8321" x2="311.5199" y2="403.8215">
			<stop  offset="0" style="stop-color:#FFFFFF"/>
			<stop  offset="0.0987" style="stop-color:#D1D1D1"/>
			<stop  offset="0.2323" style="stop-color:#9B9B9B"/>
			<stop  offset="0.367" style="stop-color:#6B6B6B"/>
			<stop  offset="0.5" style="stop-color:#454545"/>
			<stop  offset="0.631" style="stop-color:#272727"/>
			<stop  offset="0.7593" style="stop-color:#111111"/>
			<stop  offset="0.8837" style="stop-color:#040404"/>
			<stop  offset="1" style="stop-color:#000000"/>
		</linearGradient>
		<path class="st1" d="M358.99,255.26c-1.06,58.84,51.03,91.45-12.76,128.03c-63.79,36.6-59.83-19.61-153.54,0.98
			c-88.21,19.4-136.32,2.02-118.54-29.37c16.66-29.4,53.37-33.2,40.29-109.18c-8.05-46.67,25.81-53.77,54.35-62.83
			c5.42,0.56,10.84,1.54,16.16,2.95c10.34,2.74,20.25,6.96,30.72,9.17c13.74,2.92,28.62,2.13,41.06-4.41
			c12.41-6.54,21.9-19.4,22.27-33.44c0.27-10.6-4.41-20.7-10.05-29.69c-4.6-7.36-9.91-14.27-15.84-20.62
			c-5.42-5.82-12.7-10.13-17.94-15.84c-0.24-0.24-0.43-0.5-0.64-0.74c29.58-3.91,70.19,9.44,88.48,40.8
			c13.18,22.56,71.63,3.27,79.47,41.94C409.44,207.1,360.03,196.39,358.99,255.26z"/>
		<linearGradient id="SVGID_2_" gradientUnits="userSpaceOnUse" x1="224.8597" y1="260.4612" x2="288.9314" y2="398.0016">
			<stop  offset="0" style="stop-color:#FFFFFF"/>
			<stop  offset="0.0617" style="stop-color:#EDEDED"/>
			<stop  offset="0.4133" style="stop-color:#898989"/>
			<stop  offset="0.697" style="stop-color:#3F3F3F"/>
			<stop  offset="0.8988" style="stop-color:#111111"/>
			<stop  offset="1" style="stop-color:#000000"/>
		</linearGradient>
		<path class="st2" d="M358.99,255.26c-1.06,58.84,51.03,91.45-12.76,128.03c-63.79,36.6-59.83-19.61-153.54,0.98
			c-88.21,19.4-136.32,2.02-118.54-29.37c12.33-21.77,35.67-29.5,41.62-62.94c7.34,1.78,14.64,3.53,22.09,4.65
			c43.85,6.49,90.58-12.33,117.69-47.41c10.76-13.93,18.6-30.11,30.62-42.95c23.63-25.28,63.15-34.21,95.36-21.53
			c6.03,2.39,11.67,4.89,17.2,7.31C387.67,206.09,359.76,211.16,358.99,255.26z"/>
		<linearGradient id="SVGID_3_" gradientUnits="userSpaceOnUse" x1="224.055" y1="333.864" x2="224.6246" y2="394.8043">
			<stop  offset="0" style="stop-color:#FFFFFF"/>
			<stop  offset="0.0617" style="stop-color:#EDEDED"/>
			<stop  offset="0.4133" style="stop-color:#898989"/>
			<stop  offset="0.697" style="stop-color:#3F3F3F"/>
			<stop  offset="0.8988" style="stop-color:#111111"/>
			<stop  offset="1" style="stop-color:#000000"/>
		</linearGradient>
		<path class="st3" d="M377.99,340.94c0.21,14.7-7.12,28.23-31.76,42.34c-51.38,29.47-58.82-1.25-108.73-3.53
			c-5.42-0.29-11.35-0.19-17.91,0.35c-7.97,0.64-16.88,1.97-26.9,4.17c-88.21,19.4-136.32,2.02-118.54-29.37
			c0.05-0.11,0.13-0.21,0.19-0.32c18.31-11.19,40.56-15.63,62.19-15.57c25.25,0.03,50.1,5.69,74.76,11.14
			c24.27,5.37,48.88,10.6,73.73,10.1c0.4,0,0.77,0,1.14-0.03c2.74-0.08,5.48-0.21,8.21-0.43c2.05-0.13,4.09-0.32,6.14-0.53
			c6.06-0.61,12.12-1.44,18.15-2.31c0.96-0.13,1.91-0.29,2.87-0.43c4.17-0.61,8.37-1.25,12.57-1.97
			c13.42-2.26,26.68-5.32,38.94-11.08C374.73,342.67,376.37,341.85,377.99,340.94z"/>
	</g>
	<g>
		<g>
			<g>
				<path class="st4" d="M421.04,268.32c-2.1,2.57-3.01,6.43-2.07,11.24c1.97,9.98-13.01,0.04-18.43,10.94
					c-5.38,10.82-3.36,16.2-9.58,19.68s-16.71-1.79-36.48,30.16c-3.28,1.84,1.97,11.3,5.3,9.44c24.19,1.22,41.72-0.7,42.12-12.37
					c0.24-6.98,3.5-10.26,8.47-12.62c3.26-1.65,7.32-2.85,11.7-4.52c11.03-4.17,6.13-14.84,5.75-23.11
					c-0.38-8.28,17.56-7.15,14.8-16.75c-2.7-9.61-3.5-15.65-11.58-16.08C426.91,264.11,423.28,265.53,421.04,268.32z"/>
				<g>
					<path class="st5" d="M353.5,347.1c0.32,0.57,1,0.83,1.63,0.6c2.54-0.96,62.45-23.94,74.96-67.21c0.2-0.7-0.2-1.44-0.91-1.64
						s-1.44,0.2-1.64,0.91c-12.13,41.97-72.73,65.23-73.34,65.45c-0.69,0.26-1.04,1.03-0.77,1.71
						C353.44,346.98,353.47,347.04,353.5,347.1z"/>
				</g>
				
					<linearGradient id="SVGID_4_" gradientUnits="userSpaceOnUse" x1="584.3853" y1="229.8347" x2="564.5331" y2="293.2091" gradientTransform="matrix(0.5997 0.8002 -0.8002 0.5997 246.8559 -299.815)">
					<stop  offset="0" style="stop-color:#FFFFFF"/>
					<stop  offset="0.0617" style="stop-color:#EDEDED"/>
					<stop  offset="0.4133" style="stop-color:#898989"/>
					<stop  offset="0.697" style="stop-color:#3F3F3F"/>
					<stop  offset="0.8988" style="stop-color:#111111"/>
					<stop  offset="1" style="stop-color:#000000"/>
				</linearGradient>
				<path class="st6" d="M421.04,268.32c-2.1,2.57-3.01,6.43-2.07,11.24c1.97,9.98-13.01,0.04-18.43,10.94
					c-5.38,10.82-3.36,16.2-9.58,19.68s-16.71-1.79-36.48,30.16c-3.28,1.84,1.97,11.3,5.3,9.44c24.19,1.22,41.72-0.7,42.12-12.37
					c0.24-6.98,3.5-10.26,8.47-12.62c-0.53-1.7-1.05-3.4-1.58-5.1c-1.42-4.7-2.42-10-0.26-14.47c2.23-4.42,7-6.87,10.43-10.44
					c4.55-4.72,6.69-11.64,5.62-18.05C424.09,273.52,422.76,270.81,421.04,268.32z"/>
			</g>
			<g>
				<path class="st7" d="M355.97,236.44c-1.3,3.19-2.33,7.55-3.19,12.59c-2.63,15.66,8.65,9.94,1.69,13.42
					c-6.99,3.51,11.6,14.06,8.46,19.52c-3.17,5.5-17.82-3.39-24.14,7.57c-6.35,10.93,17.46,22.55,22.39,45.22
					c1.37,5.54,3.9,6.26,7.11,4.1c0,0,11.98-10.21,15.51-24.47c3.06-12.26,15.83-14.01,22.87-21.48c1.16-1.26,2.16-2.61,2.96-4.22
					c9.23-18.97-21.25-0.15-22.92-8.43c-1.7-8.25,19.35-6.17,21.69-15.78c2.34-9.61-9.41-5.45-14.82-20.62
					c-5.41-15.17,4.61-25.75-1.27-33.43c-5.88-7.68-8.04,22.85-10.28,15.55c-2.24-7.3-6.95-1.42-8.2,6.01
					c-1.29,7.4,1.19,15.71-6.26,4.09C362.51,228.23,358.71,229.74,355.97,236.44z"/>
				<path class="st5" d="M397.34,291.46c-0.52-0.51-1.5-0.94-3.26-0.14c-2.17,0.99-4.2,2.27-6.03,3.79
					c-0.54,0.45-1.06,0.92-1.59,1.39c-1.21,1.09-2.36,2.12-3.69,2.87c-2.42,1.36-5.75,1.84-8.63,1.32
					c-0.48-1.49-0.96-3.03-1.26-4.55c-1.06-5.47,0.03-11.81,3.16-18.34c1.1-2.29,2.39-4.52,3.76-6.69c1.52,0.27,3.19,0.51,4.85,0.1
					c2.29-0.57,3.97-2.2,5.58-3.78c0.38-0.37,0.76-0.74,1.14-1.09c1.63-1.49,3.47-2.74,5.47-3.69c0.79-0.38,1.85-0.64,2.25-0.17
					c0.3,0.37,0.85,0.43,1.22,0.12c0.37-0.3,0.43-0.85,0.12-1.22c-0.88-1.08-2.46-1.19-4.34-0.29c-2.16,1.03-4.14,2.37-5.89,3.98
					c-0.4,0.36-0.79,0.74-1.18,1.13c-1.52,1.48-2.95,2.88-4.79,3.34c-1.08,0.27-2.26,0.18-3.4,0c1.02-1.56,2.06-3.11,3.1-4.62
					c0.79-1.17,1.59-2.33,2.37-3.5c1.19-1.79,2.31-3.57,2.85-5.6c1.13-4.3-0.54-8.61-2.49-13.02c-0.2-0.44-0.71-0.64-1.15-0.44
					c-0.44,0.2-0.64,0.71-0.44,1.15c1.83,4.11,3.39,8.12,2.4,11.87c-0.47,1.77-1.46,3.35-2.61,5.08c-0.78,1.17-1.57,2.33-2.36,3.49
					c-1.81,2.64-3.63,5.36-5.31,8.17c-1.64-1.31-2.49-2.6-2.75-4.3c-0.21-1.34-0.12-2.71-0.03-4.15l0.06-0.99
					c0.09-1.76,0.08-3.8-0.69-5.63c-0.66-1.57-1.83-2.96-3.58-4.24c-0.48-0.35-1.08-0.64-1.71-0.96c-0.86-0.42-1.84-0.91-2.21-1.45
					c-0.27-0.4-0.81-0.5-1.21-0.23c-0.4,0.27-0.5,0.81-0.23,1.21c0.62,0.92,1.77,1.48,2.87,2.03c0.56,0.28,1.1,0.54,1.46,0.81
					c1.49,1.09,2.47,2.23,3,3.5c0.63,1.51,0.64,3.24,0.56,4.88l-0.06,0.98c-0.09,1.47-0.19,3,0.05,4.52
					c0.42,2.7,1.95,4.34,3.55,5.56c-0.63,1.12-1.24,2.27-1.79,3.43c-3.29,6.87-4.43,13.59-3.29,19.42c0.34,1.76,0.89,3.48,1.43,5.15
					c0.02,0.1,0.04,0.19,0.09,0.28c0.82,2.56,1.58,4.99,1.6,7.53c0.01,0.84-0.08,1.67-0.21,2.51c-1.26-0.96-2.69-1.6-4.1-2.2
					l-0.89-0.38c-3.84-1.69-9.01-4.79-11.9-9.98c-0.39-0.7-0.74-1.42-1.08-2.15c-0.89-1.87-1.81-3.81-3.44-5.26
					c-0.37-0.32-0.91-0.29-1.23,0.07c-0.32,0.36-0.29,0.91,0.07,1.23c1.36,1.22,2.17,2.92,3.02,4.71c0.36,0.76,0.73,1.52,1.13,2.25
					c2.31,4.14,5.91,7.03,9.29,8.98c1.19,0.69,2.36,1.26,3.43,1.74l0.91,0.39c1.62,0.69,3.15,1.35,4.33,2.46
					c0.03,0.03,0.06,0.04,0.09,0.06c-0.22,0.96-0.46,1.91-0.72,2.84l-2.57,9.45c-0.58,2.14-1.18,4.35-2.14,6.36
					c-2.33,4.91-6.87,8.63-12.14,9.96c-0.47,0.12-0.75,0.59-0.63,1.05c0.06,0.24,0.21,0.43,0.41,0.54c0.19,0.11,0.42,0.15,0.65,0.09
					c5.76-1.45,10.73-5.53,13.28-10.9c1.02-2.15,1.64-4.44,2.24-6.65l2.57-9.45c0.68-2.49,1.38-5.06,1.35-7.74
					c-0.02-2.37-0.63-4.64-1.31-6.85c3.06,0.35,6.35-0.25,8.9-1.68c1.51-0.84,2.78-1.99,4.01-3.1c0.51-0.46,1.01-0.91,1.54-1.35
					c1.71-1.43,3.61-2.62,5.64-3.55c0.77-0.35,1.19-0.34,1.32-0.2c0.34,0.33,0.89,0.33,1.23-0.01
					C397.68,292.35,397.68,291.8,397.34,291.46z"/>
				
					<linearGradient id="SVGID_5_" gradientUnits="userSpaceOnUse" x1="532.5493" y1="209.4819" x2="544.0024" y2="295.7627" gradientTransform="matrix(0.5997 0.8002 -0.8002 0.5997 246.8559 -299.815)">
					<stop  offset="0" style="stop-color:#FFFFFF"/>
					<stop  offset="1" style="stop-color:#000000"/>
				</linearGradient>
				<path class="st8" d="M355.97,236.44c-1.3,3.19-2.33,7.55-3.19,12.59c-2.63,15.66,8.65,9.94,1.69,13.42
					c-6.99,3.51,11.6,14.06,8.46,19.52c-3.17,5.5-17.82-3.39-24.14,7.57c-6.35,10.93,17.46,22.55,22.39,45.22
					c1.37,5.54,3.9,6.26,7.11,4.1c0,0,11.98-10.21,15.51-24.47c3.06-12.26,15.83-14.01,22.87-21.48c-1.38-0.83-2.93-1.44-4.5-1.81
					c-3.44-0.78-7-0.38-10.5-0.89c-5.47-0.82-10.51-3.93-13.92-8.31c-3.39-4.41-5.18-9.91-5.31-15.47
					c-0.07-2.97,0.36-5.92,0.22-8.89c-0.21-6.93-3.33-13.92-9.03-17.81C361.32,238.11,358.73,237.13,355.97,236.44z"/>
			</g>
			<g>
				<path class="st9" d="M314.7,291.56c1.44,1.83,3.95,3.04,7.39,3.13c7.14,0.17-1.95,8.92,4.69,14.3
					c6.6,5.33,10.59,4.77,12.03,9.56s-3.77,11.18,15.12,29.59c0.76,2.53,8.04,0.37,7.28-2.2c4.52-16.39,5.87-28.7-2.07-30.75
					c-4.74-1.23-6.5-3.96-7.36-7.73c-0.63-2.48-0.84-5.45-1.31-8.71c-1.18-8.19-9.24-6.46-14.96-7.46c-5.73-1-2.23-13.12-9.23-12.69
					c-7,0.39-11.26,0.01-12.78,5.49C312.71,286.9,313.13,289.6,314.7,291.56z"/>
				<g>
					<path class="st5" d="M358.41,349.84c0.44-0.13,0.72-0.56,0.66-1.02c-0.27-1.89-6.9-46.45-34.65-61.6
						c-0.45-0.25-1.02-0.08-1.27,0.37c-0.25,0.45-0.08,1.02,0.37,1.27c26.92,14.7,33.63,59.77,33.69,60.23
						c0.07,0.51,0.55,0.87,1.06,0.79C358.32,349.87,358.36,349.86,358.41,349.84z"/>
				</g>
				
					<linearGradient id="SVGID_6_" gradientUnits="userSpaceOnUse" x1="98.1778" y1="302.1786" x2="79.0594" y2="349.5763" gradientTransform="matrix(-0.906 -0.4232 -0.4232 0.906 557.4576 60.8791)">
					<stop  offset="0" style="stop-color:#FFFFFF"/>
					<stop  offset="1" style="stop-color:#000000"/>
				</linearGradient>
				<path class="st10" d="M314.7,291.56c1.44,1.83,3.95,3.04,7.39,3.13c7.14,0.17-1.95,8.92,4.69,14.3
					c6.6,5.33,10.59,4.77,12.03,9.56s-3.77,11.18,15.12,29.59c0.76,2.53,8.04,0.37,7.28-2.2c4.52-16.39,5.87-28.7-2.07-30.75
					c-4.74-1.23-6.5-3.96-7.36-7.73c-1.24,0.1-2.49,0.2-3.74,0.31c-3.43,0.26-7.22,0.13-9.95-2.02c-2.69-2.2-3.64-5.84-5.57-8.74
					c-2.54-3.84-6.96-6.36-11.52-6.6C318.73,290.26,316.67,290.76,314.7,291.56z"/>
			</g>
		</g>
		<g>
			<g>
				<path class="st11" d="M332.47,363.09l-75.02-6.42c-13.57,0-24.58-11-24.58-24.58l-9.51-43.14c0-13.57,20.51-27.74,34.09-27.74
					h82.45c13.57,0,24.58,11,24.58,24.58v46.3C364.47,345.66,346.04,363.09,332.47,363.09z"/>
			</g>
			<g>
				<path class="st12" d="M368.97,186.32c-1.17,2.1-2.29,4.31-3.38,6.75c-0.21,0.45-0.4,0.9-0.61,1.36
					c-1.89,4.28-3.67,9.04-5.32,14.25c-1.3,3.99-2.52,8.27-3.75,12.73c-0.11,0.5-0.24,1.01-0.37,1.54
					c-0.96,3.69-1.89,7.52-2.79,11.48c-0.82,3.64-1.65,7.42-2.42,11.27c-0.11,0.48-0.19,0.93-0.29,1.41
					c-0.93,4.57-1.83,9.28-2.71,14.01c-0.4,2.15-0.8,4.31-1.17,6.49c-0.74,4.23-1.49,8.5-2.21,12.81c-0.13,0.9-0.32,1.81-0.45,2.71
					c-0.4,2.47-0.82,4.94-1.22,7.44c-0.74,4.47-1.46,8.96-2.18,13.48H268.4c1.86-14.91,3.8-29.82,6.3-44.36
					c0.82-4.78,1.7-9.54,2.71-14.25c0.37-1.94,0.77-3.85,1.22-5.74c0.53-2.5,1.12-5,1.73-7.47c0.51-1.94,1.01-3.88,1.54-5.82
					c3.85-14.11,8.77-27.61,15.36-40.08H368.97z"/>
				<path class="st13" d="M313.94,190.95h33.34c-1.61,6.57,2.63,11.92,9.47,11.92c-11.58,24.25-15.18,48.66-20.07,81.83
					c-6.84,0-13.7,5.34-15.32,11.92h-33.34c1.61-6.57-2.63-11.92-9.47-11.92c2.02-28.62,9.76-68.51,20.07-81.83
					C305.46,202.87,312.33,197.53,313.94,190.95z"/>
				
					<ellipse transform="matrix(0.799 -0.6013 0.6013 0.799 -81.936 237.5163)" class="st12" cx="314.32" cy="241.32" rx="23.54" ry="18.46"/>
				<g>
					<path class="st7" d="M324.82,239.9c0.24-3.67-1.81-5.69-4.76-5.69c-1.3,0-2.45,0.27-3.51,0.93c-1.38,0.82-2.66,2.26-3.99,4.41
						c-1.73,2.71-2.68,3.83-3.77,3.83c-0.11,0-0.21,0-0.29-0.03c-0.8-0.13-1.38-0.88-0.9-2.74c0.19-0.74,0.43-1.41,0.69-1.99
						c0.56-1.2,1.2-2.05,1.57-2.58l-3.27-0.88l-0.24-0.05c-0.05,0.05-0.08,0.11-0.13,0.19c-0.66,0.9-1.33,2.05-1.86,3.67
						c-0.11,0.24-0.19,0.48-0.24,0.77h-2.92l-0.77,3.14h3.14c-0.13,3.19,1.44,5.13,4.07,5.32c0.16,0.05,0.35,0.05,0.53,0.05
						c2.95,0,5.05-1.97,6.96-4.94c0.19-0.27,0.32-0.53,0.5-0.8c1.41-2.37,2.45-3.38,3.72-3.38c1.33,0,1.75,1.25,1.3,3.08
						c-0.53,2.05-1.67,3.93-2.76,5.26l3.64,0.96c1.04-1.2,2.15-3.27,2.76-5.42h3.14l0.56-2.21l0.21-0.9H324.82z"/>
				</g>
				<linearGradient id="SVGID_7_" gradientUnits="userSpaceOnUse" x1="291.3851" y1="195.7217" x2="366.1354" y2="331.1265">
					<stop  offset="7.662835e-03" style="stop-color:#FFFFFF"/>
					<stop  offset="0.2031" style="stop-color:#A19E9E"/>
					<stop  offset="0.4098" style="stop-color:#625F5E"/>
					<stop  offset="0.6003" style="stop-color:#3A3838"/>
					<stop  offset="0.7683" style="stop-color:#1F1F1E"/>
					<stop  offset="0.9072" style="stop-color:#0B0B0B"/>
					<stop  offset="1" style="stop-color:#010101"/>
				</linearGradient>
				<path class="st14" d="M368.97,186.32c-1.17,2.1-2.29,4.31-3.38,6.75c-0.21,0.45-0.4,0.9-0.61,1.36
					c-5.69,0.9-11.72,1.73-15.97,5.16c-0.66,0.53-1.28,1.12-1.83,1.78c-1.57,1.83-2.58,4.04-3.51,6.25c-2.76,6.7-5,13.85-4.33,21.05
					c0.4,4.39,2.05,8.77,4.78,12.17c1.67,2.1,3.75,3.8,6.22,4.86c-0.11,0.48-0.19,0.93-0.29,1.41c-0.93,4.57-1.83,9.28-2.71,14.01
					c-0.4,2.15-0.8,4.31-1.17,6.49c-0.74,4.23-1.49,8.5-2.21,12.81c-0.13,0.9-0.32,1.81-0.45,2.71c-0.4,2.47-0.82,4.94-1.22,7.44
					c-0.74,4.47-1.46,8.96-2.18,13.48H268.4c1.86-14.91,3.8-29.82,6.3-44.36c0.82-4.78,1.7-9.54,2.71-14.25
					c0.37-1.94,0.77-3.85,1.22-5.74c1.17-0.43,2.37-0.77,3.59-1.06c1.06-0.24,2.15-0.45,3.24-0.58c2.98-0.45,6.01-0.64,9.04-0.85
					h0.03c2.13-0.13,4.2-0.32,6.3-0.64c1.81-0.27,3.61-0.66,5.4-1.25c0.13-0.03,0.24-0.05,0.37-0.13c4.15-1.33,7.89-3.64,10.21-7.26
					c1.41-2.21,2.13-4.57,2.42-7.04c0.88-7.47-2.18-15.92-2.23-23.79c-0.03-2.07,0.21-4.12,0.66-6.14c0.29-1.57,0.77-3.11,1.36-4.62
					H368.97z"/>
			</g>
			<g>
				<path class="st12" d="M353.88,193.14c-1.17,2.1-2.29,4.31-3.38,6.75c-0.21,0.45-0.4,0.9-0.61,1.36
					c-1.89,4.28-3.67,9.04-5.32,14.25c-1.3,3.99-2.52,8.27-3.75,12.73c-0.11,0.5-0.24,1.01-0.37,1.54
					c-0.96,3.69-1.89,7.52-2.79,11.48c-0.82,3.64-1.65,7.42-2.42,11.27c-0.11,0.48-0.19,0.93-0.29,1.41
					c-0.93,4.57-1.83,9.28-2.71,14.01c-0.4,2.15-0.8,4.31-1.17,6.49c-0.74,4.23-1.49,8.5-2.21,12.81c-0.13,0.9-0.32,1.81-0.45,2.71
					c-0.4,2.47-0.82,4.94-1.22,7.44c-0.74,4.47-1.46,8.96-2.18,13.48h-71.71c1.86-14.91,3.8-29.82,6.3-44.36
					c0.82-4.78,1.7-9.54,2.71-14.25c0.37-1.94,0.77-3.85,1.22-5.74c0.53-2.5,1.12-5,1.73-7.47c0.51-1.94,1.01-3.88,1.54-5.82
					c3.85-14.11,8.77-27.61,15.36-40.08H353.88z"/>
				<path class="st13" d="M298.85,197.77h33.34c-1.61,6.57,2.63,11.92,9.47,11.92c-11.58,24.25-15.18,48.66-20.07,81.83
					c-6.84,0-13.7,5.34-15.32,11.92h-33.34c1.61-6.57-2.63-11.92-9.47-11.92c2.02-28.62,9.76-68.51,20.07-81.83
					C290.37,209.69,297.23,204.35,298.85,197.77z"/>
				
					<ellipse transform="matrix(0.799 -0.6013 0.6013 0.799 -89.0718 229.812)" class="st12" cx="299.23" cy="248.14" rx="23.54" ry="18.46"/>
				<g>
					<path class="st7" d="M309.73,246.72c0.24-3.67-1.81-5.69-4.76-5.69c-1.3,0-2.45,0.27-3.51,0.93c-1.38,0.82-2.66,2.26-3.99,4.41
						c-1.73,2.71-2.68,3.83-3.77,3.83c-0.11,0-0.21,0-0.29-0.03c-0.8-0.13-1.38-0.88-0.9-2.74c0.19-0.74,0.43-1.41,0.69-1.99
						c0.56-1.2,1.2-2.05,1.57-2.58l-3.27-0.88l-0.24-0.05c-0.05,0.05-0.08,0.11-0.13,0.19c-0.66,0.9-1.33,2.05-1.86,3.67
						c-0.11,0.24-0.19,0.48-0.24,0.77h-2.92l-0.77,3.14h3.14c-0.13,3.19,1.44,5.13,4.07,5.32c0.16,0.05,0.35,0.05,0.53,0.05
						c2.95,0,5.05-1.97,6.96-4.94c0.19-0.27,0.32-0.53,0.5-0.8c1.41-2.37,2.45-3.38,3.72-3.38c1.33,0,1.75,1.25,1.3,3.08
						c-0.53,2.05-1.67,3.93-2.76,5.26l3.64,0.96c1.04-1.2,2.15-3.27,2.76-5.42h3.14l0.56-2.21l0.21-0.9H309.73z"/>
				</g>
				<linearGradient id="SVGID_8_" gradientUnits="userSpaceOnUse" x1="276.2927" y1="202.5436" x2="351.0429" y2="337.9484">
					<stop  offset="7.662835e-03" style="stop-color:#FFFFFF"/>
					<stop  offset="0.2031" style="stop-color:#A19E9E"/>
					<stop  offset="0.4098" style="stop-color:#625F5E"/>
					<stop  offset="0.6003" style="stop-color:#3A3838"/>
					<stop  offset="0.7683" style="stop-color:#1F1F1E"/>
					<stop  offset="0.9072" style="stop-color:#0B0B0B"/>
					<stop  offset="1" style="stop-color:#010101"/>
				</linearGradient>
				<path class="st15" d="M353.88,193.14c-1.17,2.1-2.29,4.31-3.38,6.75c-0.21,0.45-0.4,0.9-0.61,1.36
					c-5.69,0.9-11.72,1.73-15.97,5.16c-0.66,0.53-1.28,1.12-1.83,1.78c-1.57,1.83-2.58,4.04-3.51,6.25c-2.76,6.7-5,13.85-4.33,21.05
					c0.4,4.39,2.05,8.77,4.78,12.17c1.67,2.1,3.75,3.8,6.22,4.86c-0.11,0.48-0.19,0.93-0.29,1.41c-0.93,4.57-1.83,9.28-2.71,14.01
					c-0.4,2.15-0.8,4.31-1.17,6.49c-0.74,4.23-1.49,8.5-2.21,12.81c-0.13,0.9-0.32,1.81-0.45,2.71c-0.4,2.47-0.82,4.94-1.22,7.44
					c-0.74,4.47-1.46,8.96-2.18,13.48h-71.71c1.86-14.91,3.8-29.82,6.3-44.36c0.82-4.78,1.7-9.54,2.71-14.25
					c0.37-1.94,0.77-3.85,1.22-5.74c1.17-0.43,2.37-0.77,3.59-1.06c1.06-0.24,2.15-0.45,3.24-0.58c2.98-0.45,6.01-0.64,9.04-0.85
					h0.03c2.13-0.13,4.2-0.32,6.3-0.64c1.81-0.27,3.61-0.66,5.4-1.25c0.13-0.03,0.24-0.05,0.37-0.13c4.15-1.33,7.89-3.64,10.21-7.26
					c1.41-2.21,2.13-4.57,2.42-7.04c0.88-7.47-2.18-15.92-2.23-23.79c-0.03-2.07,0.21-4.12,0.66-6.14c0.29-1.57,0.77-3.11,1.36-4.62
					H353.88z"/>
			</g>
			<g>
				<path class="st12" d="M338.79,199.96c-1.17,2.1-2.29,4.31-3.38,6.75c-0.21,0.45-0.4,0.9-0.61,1.36
					c-1.89,4.28-3.67,9.04-5.32,14.25c-1.3,3.99-2.52,8.27-3.75,12.73c-0.11,0.5-0.24,1.01-0.37,1.54
					c-0.96,3.69-1.89,7.52-2.79,11.48c-0.82,3.64-1.65,7.42-2.42,11.27c-0.11,0.48-0.19,0.93-0.29,1.41
					c-0.93,4.57-1.83,9.28-2.71,14.01c-0.4,2.15-0.8,4.31-1.17,6.48c-0.74,4.23-1.49,8.5-2.21,12.81c-0.13,0.9-0.32,1.81-0.45,2.71
					c-0.4,2.47-0.82,4.94-1.22,7.44c-0.74,4.47-1.46,8.96-2.18,13.47h-71.71c1.86-14.91,3.8-29.82,6.3-44.36
					c0.82-4.78,1.7-9.54,2.71-14.25c0.37-1.94,0.77-3.85,1.22-5.74c0.53-2.5,1.12-5,1.73-7.47c0.5-1.94,1.01-3.88,1.54-5.82
					c3.85-14.11,8.77-27.61,15.36-40.08H338.79z"/>
				<path class="st13" d="M283.75,204.6h33.34c-1.61,6.57,2.63,11.92,9.47,11.92c-11.58,24.25-15.18,48.66-20.07,81.83
					c-6.84,0-13.7,5.34-15.32,11.92h-33.34c1.61-6.57-2.63-11.92-9.47-11.92c2.02-28.62,9.76-68.51,20.07-81.83
					C275.27,216.51,282.14,211.17,283.75,204.6z"/>
				
					<ellipse transform="matrix(0.799 -0.6013 0.6013 0.799 -96.2075 222.1077)" class="st12" cx="284.14" cy="254.97" rx="23.54" ry="18.46"/>
				<g>
					<path class="st7" d="M294.64,253.54c0.24-3.67-1.81-5.69-4.76-5.69c-1.3,0-2.45,0.27-3.51,0.93c-1.38,0.82-2.66,2.26-3.99,4.41
						c-1.73,2.71-2.68,3.83-3.77,3.83c-0.11,0-0.21,0-0.29-0.03c-0.8-0.13-1.38-0.88-0.9-2.74c0.19-0.74,0.43-1.41,0.69-1.99
						c0.56-1.2,1.2-2.05,1.57-2.58l-3.27-0.88l-0.24-0.05c-0.05,0.05-0.08,0.11-0.13,0.19c-0.66,0.9-1.33,2.05-1.86,3.67
						c-0.11,0.24-0.19,0.48-0.24,0.77h-2.92l-0.77,3.14h3.14c-0.13,3.19,1.44,5.13,4.07,5.32c0.16,0.05,0.35,0.05,0.53,0.05
						c2.95,0,5.05-1.97,6.96-4.94c0.19-0.27,0.32-0.53,0.5-0.8c1.41-2.37,2.45-3.38,3.72-3.38c1.33,0,1.75,1.25,1.3,3.08
						c-0.53,2.05-1.67,3.93-2.76,5.26l3.64,0.96c1.04-1.2,2.15-3.27,2.76-5.42h3.14l0.56-2.21l0.21-0.9H294.64z"/>
				</g>
				<linearGradient id="SVGID_9_" gradientUnits="userSpaceOnUse" x1="261.2002" y1="209.3655" x2="335.9505" y2="344.7703">
					<stop  offset="7.662835e-03" style="stop-color:#FFFFFF"/>
					<stop  offset="0.2031" style="stop-color:#A19E9E"/>
					<stop  offset="0.4098" style="stop-color:#625F5E"/>
					<stop  offset="0.6003" style="stop-color:#3A3838"/>
					<stop  offset="0.7683" style="stop-color:#1F1F1E"/>
					<stop  offset="0.9072" style="stop-color:#0B0B0B"/>
					<stop  offset="1" style="stop-color:#010101"/>
				</linearGradient>
				<path class="st16" d="M338.79,199.96c-1.17,2.1-2.29,4.31-3.38,6.75c-0.21,0.45-0.4,0.9-0.61,1.36
					c-5.69,0.9-11.72,1.73-15.97,5.16c-0.66,0.53-1.28,1.12-1.83,1.78c-1.57,1.83-2.58,4.04-3.51,6.25c-2.76,6.7-5,13.85-4.33,21.05
					c0.4,4.39,2.05,8.77,4.78,12.17c1.67,2.1,3.75,3.8,6.22,4.86c-0.11,0.48-0.19,0.93-0.29,1.41c-0.93,4.57-1.83,9.28-2.71,14.01
					c-0.4,2.15-0.8,4.31-1.17,6.48c-0.74,4.23-1.49,8.5-2.21,12.81c-0.13,0.9-0.32,1.81-0.45,2.71c-0.4,2.47-0.82,4.94-1.22,7.44
					c-0.74,4.47-1.46,8.96-2.18,13.47h-71.71c1.86-14.91,3.8-29.82,6.3-44.36c0.82-4.78,1.7-9.54,2.71-14.25
					c0.37-1.94,0.77-3.85,1.22-5.74c1.17-0.43,2.37-0.77,3.59-1.06c1.06-0.24,2.15-0.45,3.24-0.58c2.98-0.45,6.01-0.64,9.04-0.85
					h0.03c2.13-0.13,4.2-0.32,6.3-0.64c1.81-0.27,3.61-0.66,5.4-1.25c0.13-0.03,0.24-0.05,0.37-0.13c4.15-1.33,7.89-3.64,10.21-7.26
					c1.41-2.21,2.13-4.57,2.42-7.04c0.88-7.47-2.18-15.92-2.23-23.79c-0.03-2.07,0.21-4.12,0.66-6.14c0.29-1.57,0.77-3.11,1.36-4.62
					H338.79z"/>
			</g>
			<g>
				<path class="st4" d="M354.71,292.31v46.33c0,13.55-11,24.56-24.58,24.56h-82.44c-13.55,0-24.56-11-24.56-24.56v-46.33
					c0-13.55,11-24.56,24.56-24.56h82.44C343.71,267.75,354.71,278.75,354.71,292.31z"/>
			</g>
			<path class="st7" d="M356.94,327.66h-63.05c-1.13,0-2.05-0.92-2.05-2.05v-20.29c0-1.13,0.92-2.05,2.05-2.05h63.05
				c1.13,0,2.05,0.92,2.05,2.05v20.29C358.98,326.74,358.07,327.66,356.94,327.66z"/>
			<circle class="st5" cx="303.59" cy="315.47" r="6.53"/>
			<linearGradient id="SVGID_10_" gradientUnits="userSpaceOnUse" x1="275.0986" y1="264.0168" x2="335.7531" y2="380.6272">
				<stop  offset="7.662835e-03" style="stop-color:#FFFFFF"/>
				<stop  offset="0.2031" style="stop-color:#A19E9E"/>
				<stop  offset="0.4098" style="stop-color:#625F5E"/>
				<stop  offset="0.6003" style="stop-color:#3A3838"/>
				<stop  offset="0.7683" style="stop-color:#1F1F1E"/>
				<stop  offset="0.9072" style="stop-color:#0B0B0B"/>
				<stop  offset="1" style="stop-color:#010101"/>
			</linearGradient>
			<path class="st17" d="M354.71,292.31v12.89c-0.24,0.19-0.48,0.4-0.72,0.64c-13.26,12.84-12.94,34.66-24.16,49.33
				c-2.37,3.11-5.21,5.79-8.37,8.03h-59.72c-0.9-0.66-1.73-1.41-2.52-2.21c-2.95-3.03-4.97-6.8-6.99-10.52
				c-1.89-3.51-3.77-7.02-5.66-10.52c-0.9-1.7-1.83-3.46-2.18-5.34c-0.66-3.53,0.82-7.18,3.08-9.97c2.26-2.79,5.26-4.89,8.16-6.99
				c6.3-4.52,12.6-9.46,16.37-16.24c4.31-7.76,4.73-16.88,4.15-25.54c-0.13-2.07-0.88-5.08-1.44-8.11h55.41
				C343.71,267.75,354.71,278.75,354.71,292.31z"/>
		</g>
		<g>
			<path class="st9" d="M110.26,331.98c-2.65-2.02-16.12-2.95-22.47,15.28c-0.27,0.54-0.51,1.07-0.72,1.59
				c0.07-3.01-0.01-6.31-0.24-9.77c0.03-0.03,0.05-0.05,0.06-0.09c0.07-0.33,0.16-0.66,0.27-1.01c1.3-2.41,5.07-8.58,9.96-9.14
				c8.94-1.04,11.01-4.8,9.43-6.01c-2.23-1.69-13.56-2.48-18.9,12.85c-0.38,0.74-0.69,1.47-0.91,2.16
				c-0.14-1.93-0.33-3.89-0.55-5.89c0.22,0.16,0.34,0.26,0.34,0.26c-0.12-0.14-0.24-0.26-0.36-0.39c-0.21-1.83-0.45-3.68-0.73-5.54
				c0.03-0.03,4.1-7.92,9.21-8.52c7.5-0.87,9.24-4.03,7.91-5.04c-1.72-1.31-9.87-1.96-14.66,7.9c-1.23,1.64-2.14,3.35-2.58,4.84
				c-0.25-1.64-0.53-3.28-0.84-4.92c0.1,0.08,0.17,0.13,0.17,0.13c-0.06-0.07-0.12-0.13-0.19-0.2c-0.44-2.35-0.93-4.68-1.48-6.95
				c0.87-1.59,3.2-5.28,6.2-5.63c6.62-0.77,7.44-2.65,5.94-3.78c-1.4-1.07-8.54-1.56-11.9,8.09c-0.14,0.27-0.26,0.54-0.36,0.8
				c-0.29-1.2-0.6-2.38-0.92-3.54c0.03,0.03,0.05,0.04,0.05,0.04c-0.02-0.02-0.04-0.04-0.06-0.07c-0.56-2.03-1.16-3.98-1.8-5.85
				c0.65-1.21,2.5-4.21,4.9-4.49c5.4-0.63,5.94-1.99,4.65-2.97c-1.1-0.84-6.69-1.23-9.33,6.34c-0.13,0.27-0.24,0.52-0.34,0.78
				c-0.87-2.49-1.81-4.81-2.82-6.88c-0.3-1.53-0.66-4.59,0.83-6.22c2.99-3.28,2.54-5.36,1.56-5.29c-1.16,0.08-4.49,2.49-3.75,7.68
				c-0.02,0.73,0.12,3.72,0.34,4.16c-5.62-5.08-10.24-2.31-10.83-1.09c-0.43,0.89,1.33,2.07,5.49,0.53c1.52-0.57,3.39,0.08,4.79,0.8
				c0.41,0.28,0.77,0.57,1.07,0.87c1.36,2.95,2.59,6.35,3.68,10.02c-7.33-6.9-13.39-3.26-14.15-1.68c-0.54,1.13,1.7,2.65,7.01,0.67
				c2.12-0.79,4.76,0.27,6.58,1.28c0.31,0.23,0.58,0.46,0.84,0.69c0.94,3.27,1.76,6.73,2.47,10.26c-10.03-10-18.43-4.99-19.47-2.84
				c-0.72,1.5,2.26,3.53,9.34,0.89c3.03-1.13,6.85,0.57,9.28,1.99c0.38,0.3,0.73,0.6,1.04,0.9c0.67,3.49,1.23,7.04,1.66,10.54
				c-12.07-12.27-22.22-6.23-23.46-3.65c-0.86,1.79,2.7,4.2,11.13,1.07c3.77-1.4,8.56,0.87,11.42,2.59c0.37,0.3,0.71,0.6,1.02,0.91
				c0.35,3.01,0.61,5.96,0.77,8.8c-0.7-0.78-1.57-1.56-2.59-2.3c-13.94-13.35-25.52-6.4-26.96-3.4c-1.03,2.13,3.21,5,13.23,1.27
				c5.48-2.04,12.8,2.45,15.48,4.3c0.31,0.31,0.59,0.61,0.84,0.92c0.01,0.01,0.03,0.01,0.04,0.02c0.31,6.21,0.13,11.77-0.6,15.88
				c-0.05,0.29,0.14,0.56,0.43,0.62c0.29,0.05,0.56-0.14,0.62-0.43c0.33-1.86,0.55-4.01,0.66-6.38c0.06-0.25,0.12-0.49,0.2-0.75
				c1.55-2.87,6.03-10.19,11.84-10.87C109.68,337.88,112.15,333.41,110.26,331.98z"/>
			<path class="st4" d="M119.68,322.6c-2.95,0.45-5.31,2.2-6.93,3.85c0.85-3,1.26-6.17,1.38-9.55c8.14-1.03,12.42,5.77,17.29,3.46
				c2.72-1.29,0.02-12-8.48-10.7c-4.15,0.63-7.2,3.72-8.77,5.7c0.04-2.8-0.05-5.74-0.17-8.83c6.77-2.39,11.69,2.62,15.42-0.26
				c2.08-1.61-2.21-10.26-9.25-7.57c-3.22,1.23-5.21,4.13-6.24,6.12c-0.09-2.22-0.16-4.53-0.21-6.92c3.94-5.6,10.7-5.56,11.53-10.32
				c0.5-2.85-9.42-6.7-13.14,0.71c-1.79,3.56-1.11,7.58-0.44,9.94c0.05,2.33,0.12,4.6,0.2,6.76c-0.6-1.62-1.55-3.31-3.08-4.6
				c-5.77-4.84-12.66,1.93-11.22,4.13c2.58,3.94,8.86,0.82,14.47,5.27c0.1,3.37,0.12,6.49-0.11,9.4c-0.72-2.39-2.47-6.55-6.24-8.68
				c-7.49-4.24-13.81,4.82-11.73,6.99c3.8,3.97,10.41-1.14,17.84,3.16c-0.47,4.19-1.55,7.96-3.77,11.45c0-2.15-0.39-6.95-3.62-10.11
				c-5.84-5.7-13.83,1.06-12.45,3.55c2.52,4.57,9.84,1.48,15.6,7.26c-0.89,1.29-1.91,2.54-3.16,3.76c-2.15,2.12-4.03,4.29-5.68,6.43
				c-0.02-2.03-0.45-5.18-2.55-7.49c-4.58-5.02-11.55,0.21-10.53,2.35c1.82,3.79,7.72,1.82,12.19,6.31
				c-2.71,3.68-4.69,7.16-6.06,9.89c-0.22-1.33-0.7-2.83-1.8-4.04c-3.53-3.88-8.92,0.17-8.13,1.82c1.34,2.78,5.51,1.56,8.89,4.4
				c-0.89,1.97-1.33,3.23-1.39,3.38c-0.17,0.5,0.07,1.04,0.54,1.26c0.03,0.02,0.06,0.03,0.1,0.04c0.53,0.18,1.12-0.1,1.3-0.64
				c0.02-0.05,0.92-2.6,2.86-6.31c5.16,0.17,6.98,4.86,10.2,4.01c1.77-0.47,1.35-7.19-3.89-7.36c-2.48-0.08-4.58,1.32-5.77,2.34
				c1.75-3.2,4.22-7.11,7.52-11c6.79,0.14,9.15,6.31,13.35,5.2c2.29-0.61,1.75-9.31-5.04-9.54c-2.56-0.08-4.81,1.06-6.4,2.19
				c0.56-0.6,1.14-1.2,1.74-1.79c2.76-2.71,4.6-5.58,5.86-8.62c7.48-0.73,11.47,5.49,16.01,3.34
				C130.3,331.52,127.75,321.37,119.68,322.6z"/>
			<g>
				<path class="st7" d="M119.54,352.49c0,0-8.57,5.78-12.07,5.39c-2.57-0.25-9.9,0.5-14.25,1.78c-1.6,0.48-2.79,1-3.29,1.58
					c0,0,0.2-0.33,0.58-0.9c1.37-2.13,5.24-7.55,9.81-10.23c1.41-0.82,2.88-1.35,4.38-1.48c3.97-0.35,7.8,0.7,10.58,1.77
					C117.86,351.45,119.54,352.49,119.54,352.49z"/>
				<path class="st5" d="M110.03,353c0,0.07-0.07,0.14-0.14,0.15c-0.79,0.01-1.57,0.13-2.32,0.26c-1.02,0.18-1.98,0.46-2.96,0.78
					c-1.74,0.55-3.39,1.28-5.01,2.03c-1.64,0.78-3.24,1.64-4.83,2.55c-0.5,0.29-1,0.59-1.55,0.89c-1,0.66-2.04,1.3-3.01,1.97
					l-0.04,0.01c-0.22,0.15-0.5,0.08-0.65-0.14c-0.15-0.21-0.08-0.5,0.14-0.65c0.27-0.19,0.57-0.37,0.86-0.51
					c1.26-0.82,2.55-1.55,3.87-2.27c1.61-0.86,3.27-1.7,4.95-2.42c1.65-0.73,3.37-1.4,5.13-1.9c0.79-0.22,1.57-0.42,2.36-0.57
					c1.01-0.22,2.03-0.33,3.04-0.34C109.97,352.83,110.05,352.9,110.03,353z"/>
			</g>
			<g>
				<path class="st7" d="M90.39,361.98c-0.34-0.78-1.47-1.76-3.05-2.78c-4.41-3.02-12.31-6.45-15.31-7.06
					c-4-0.84-11.55-10.28-11.55-10.28s5-1.28,10.89-0.7c2.26,0.21,4.68,0.71,6.99,1.63c3.75,1.51,6.53,5.56,8.5,9.54l0.01,0.04
					c1.69,3.37,2.74,6.72,3.19,8.45C90.26,361.44,90.35,361.85,90.39,361.98z"/>
				<path class="st5" d="M90.77,362.45c-0.24,0.2-0.59,0.18-0.76-0.05c-0.03-0.01-0.03-0.01-0.03-0.01l0.01-0.03
					c-0.87-1.07-1.75-2.15-2.65-3.16c-0.48-0.56-0.96-1.12-1.46-1.64c-1.43-1.56-2.91-3.07-4.46-4.52c-1.55-1.44-3.15-2.8-4.88-4.04
					c-1.71-1.2-3.54-2.3-5.52-3.02c-0.1-0.01-0.16-0.11-0.1-0.23c0.03-0.06,0.13-0.12,0.23-0.1c2.04,0.67,3.92,1.74,5.7,2.93
					c1.8,1.17,3.44,2.51,5.05,3.91c1.6,1.43,3.14,2.9,4.64,4.46c1.22,1.24,2.4,2.5,3.52,3.88c0.26,0.27,0.54,0.59,0.79,0.89
					C91.04,361.9,91,362.27,90.77,362.45z"/>
			</g>
			
				<linearGradient id="SVGID_11_" gradientUnits="userSpaceOnUse" x1="146.4582" y1="459.4168" x2="169.6932" y2="459.4168" gradientTransform="matrix(0.8983 0.4395 -0.4395 0.8983 164.3309 -125.2061)">
				<stop  offset="7.662835e-03" style="stop-color:#FFFFFF"/>
				<stop  offset="0.0988" style="stop-color:#EBE9E9"/>
				<stop  offset="0.2465" style="stop-color:#C7C5C5"/>
				<stop  offset="0.4323" style="stop-color:#969292"/>
				<stop  offset="0.6489" style="stop-color:#5D5A5A"/>
				<stop  offset="0.8888" style="stop-color:#252424"/>
				<stop  offset="1" style="stop-color:#010101"/>
			</linearGradient>
			<path class="st18" d="M119.54,352.49c0,0-8.57,5.78-12.07,5.39c-2.57-0.25-9.9,0.5-14.25,1.78c-1,0.66-2.04,1.3-3.01,1.97
				l-0.04,0.01c-0.22,0.15-0.5,0.08-0.65-0.14c-0.15-0.21-0.08-0.5,0.14-0.65c0.27-0.19,0.57-0.37,0.86-0.51
				c1.37-2.13,5.24-7.55,9.81-10.23c0.04-0.01,0.1,0.01,0.13,0.03c2.25,0.67,4.18,2.3,6.37,3.04c0.23,0.11,0.49,0.17,0.75,0.22
				c0.38,0.11,0.74,0.18,1.15,0.21c1.64,0.09,3.27-0.52,4.64-1.42c0.53-0.35,1.2-1.13,1.92-1.79
				C117.86,351.45,119.54,352.49,119.54,352.49z"/>
			
				<linearGradient id="SVGID_12_" gradientUnits="userSpaceOnUse" x1="111.9795" y1="465.2361" x2="148.2824" y2="465.2361" gradientTransform="matrix(0.8983 0.4395 -0.4395 0.8983 164.3309 -125.2061)">
				<stop  offset="7.662835e-03" style="stop-color:#FFFFFF"/>
				<stop  offset="0.0988" style="stop-color:#EBE9E9"/>
				<stop  offset="0.2465" style="stop-color:#C7C5C5"/>
				<stop  offset="0.4323" style="stop-color:#969292"/>
				<stop  offset="0.6489" style="stop-color:#5D5A5A"/>
				<stop  offset="0.8888" style="stop-color:#252424"/>
				<stop  offset="1" style="stop-color:#010101"/>
			</linearGradient>
			<path class="st19" d="M90.77,362.45c-0.24,0.2-0.59,0.18-0.76-0.05c-0.03-0.01-0.03-0.01-0.03-0.01l0.01-0.03
				c-0.87-1.07-1.75-2.15-2.65-3.16c-4.41-3.02-12.31-6.45-15.31-7.06c-4-0.84-11.55-10.28-11.55-10.28s5-1.28,10.89-0.7
				c0.84,1.95,2.39,3.54,4.12,4.71c2.33,1.61,4.99,2.62,7.47,4.01c1.36,0.74,2.64,1.58,3.9,2.44l0.01,0.04
				c1.69,3.37,2.74,6.72,3.19,8.45c0.26,0.27,0.54,0.59,0.79,0.89C91.04,361.9,91,362.27,90.77,362.45z"/>
		</g>
		<g class="st20">
			<path class="st21" d="M235.13,351.36l8.45-21.01c3.97-4.46,7.53-11.69,8.91-20.35c-0.12-1.63-0.95-2.58-2.11-3.03
				c-2.82-2.62-8.67-5.1-14.73-6.63c-0.47-0.83-0.88-1.76-1.24-2.79c0.68-0.36,1.37-0.73,2.15-1.18l0,0l0.45-0.21l1.92-4.82
				l-1.27-4.32c0.16,0.27,1.41,1.07,1.62,1.01c0,0,0-0.11,0-0.27l0.21,0.09l1.95,7.27l4.17,2.1l2.89-5.14l-6.45-7.13l-3-0.83
				c-0.06-0.24-0.12-0.43-0.21-0.49c-0.38-0.28-1.45-0.24-1.96-0.2v0l-0.31-0.02l-3.07-3.51l-7.55-0.88l-5.07,2.27l-2.26,5.6
				l2.83,2.84c0.14,3.27,0.94,6.63,2.14,8.94c-0.83,0.08-1.69,0.24-2.54,0.47c-0.9,0.18-1.66,0.47-2.3,0.82
				c-1.63,0.73-3.11,1.75-4.15,3.12l-9.84,12.66l-6.89-1.32l0.02-2.62l0.02-1.09c0.01-0.78-0.62-1.47-1.48-1.63l-27.55-5.17
				c-1.15-0.21-2.23,0.54-2.25,1.61l-0.04,3.11l-0.14,14.29c-0.01,0.78,0.62,1.47,1.48,1.63l0.14,0.03c0,0,0,0,0,0l0,0l-0.42-0.08
				c-0.42-0.08-0.86,0.05-1.13,0.33c-0.18,0.12-0.28,0.31-0.33,0.54l-0.41,1.72c-0.14,0.6,0.28,1.17,0.95,1.3l3.02,0.57
				c-3.97,7.66-8.2,23.62-12.33,36.46l1.57,0.25l-2,3.02l-1.92,0.78c-0.04-0.02-0.09-0.03-0.13-0.05l-7.06,2.59
				c-3.39,2.2,14.07,3.53,16.09,1.71c0.76-1.08,0.79-2.99-0.61-3.76c-0.05,0.01-0.1,0.02-0.16,0.04l-0.23-0.76l0.64-2.84l1.03,0.16
				l14.2-25.02c6.33,4.21,13.58,8.37,21.69,10.73l-39.83,29l0.84,0.89l-3.06,1.68l-2.1-0.2c-0.03-0.04-0.06-0.07-0.08-0.1
				l-7.56-0.97c-4.18,0.36,10.1,9.41,12.87,8.76c1.27-0.59,2.38-2.22,1.62-3.51c-0.05-0.01-0.1-0.03-0.16-0.04l0.24-0.75l1.46-1.45
				l0.65,0.69l41.68-20.25C223.49,361.38,236.76,356.63,235.13,351.36z M210.02,332.44l-5.51-1.03l5.05,0.63l0.62,0.08
				C210.14,332.22,210.08,332.33,210.02,332.44z M206.88,324.24c1.89,0.15,3.79-0.44,5.68-1.53c-0.15,1.31-0.34,2.61-0.59,3.88
				l-1.54-0.04l-12.65-0.36l0.04-4.61L206.88,324.24z M207.64,336.05c-0.98,1.1-2.17,2.1-3.59,3c-2.73-1.61-5.56-3.43-8.38-5.24
				L207.64,336.05z"/>
			<path class="st21" d="M179.51,237.06c1.47,0.34,3.03,0.53,4.63,0.53c2.1,0,4.16-0.32,6.13-0.92l7.1,7.97
				c0.45,0.53,1.08,0.82,1.71,0.82c0.34,0,0.68-0.08,1-0.24c0.97-0.45,1.47-1.45,1.32-2.47l-2.08-11.73c0-0.03,0-0.03,0-0.03
				c3.63-3.84,5.6-8.87,5.6-14.18c0-7.39-3.87-13.92-9.71-17.6c-3.21-2.03-7-3.21-11.08-3.21c-6.74,0-12.73,3.21-16.52,8.18
				c-2.68,3.5-4.29,7.89-4.29,12.63C163.33,226.67,170.25,234.95,179.51,237.06z M168.72,206.33c3.34-4.95,9.02-8.18,15.42-8.18
				c3.13,0,6.08,0.76,8.68,2.13c5.92,3.13,9.95,9.37,9.95,16.52c0,4.71-1.71,9.13-4.89,12.55c-0.11,0.18-0.29,0.34-0.45,0.53
				l-0.39,0.39l2.24,12.84l-0.29,0.13l-8.05-9.08l-0.68,0.24c-1.95,0.68-4,1.05-6.1,1.05c-1.21,0-2.37-0.11-3.53-0.34
				c-8.6-1.63-15.13-9.24-15.13-18.31C165.49,212.9,166.7,209.3,168.72,206.33z"/>
			<path class="st21" d="M174.09,216.61h1.92v10.02c0,0.32,0.24,0.55,0.55,0.55h4.76v0.11h1.89h3.71v-0.11h4.79
				c0.29,0,0.55-0.24,0.55-0.55v-3.29v-6.74h1.92c0.5,0,0.74-0.63,0.37-0.97l-7.87-7.13l-1.82-1.63c-0.42-0.39-1.05-0.39-1.5,0
				l-3.95,3.58v-3.05c0-0.61-0.5-1.11-1.13-1.11h-1.18c-0.61,0-1.1,0.5-1.1,1.11v6.16l-0.18,0.18l-2.1,1.89
				C173.33,215.98,173.57,216.61,174.09,216.61z"/>
			<path class="st21" d="M335.02,357.58c-0.21-1.04-0.5-2.05-0.9-3.03c-3.96-10.76-16.11-17.44-28.68-15.23
				c-0.03,0-0.08,0.03-0.11,0.03c-11.43,2.05-19.53,10.79-20.31,20.89c-0.05,0.53-0.08,1.09-0.08,1.65l-21.29,3.72l-26.13,4.57
				c-0.72-1.62-2.6-2.6-4.57-2.26l-11.43,1.99c-2.23,0.4-3.69,2.37-3.27,4.39l1.06,5.05c0.05,0.27,0.13,0.5,0.27,0.74
				c6.56-0.53,12.49-0.64,17.91-0.35l-0.05-0.24c0.19-0.19,0.37-0.32,0.56-0.5l48.72-8.53c4.41,10.05,16.13,16.19,28.23,14.06
				C328.69,382.11,337.65,370.05,335.02,357.58z M308.15,347.48c0,0.03-0.03,0.03-0.03,0.03c-0.29,0.03-0.61,0.05-0.93,0.11
				C307.51,347.53,307.83,347.51,308.15,347.48z M303.15,348.84c-2.15,0.98-4.01,2.37-5.5,4.04
				C299.11,351.2,300.97,349.79,303.15,348.84z M295.02,366.48c-0.24-0.58-0.43-1.2-0.56-1.81c-0.11-0.56-0.19-1.14-0.21-1.73
				c0.05,0.56,0.13,1.14,0.24,1.73c0.13,0.61,0.32,1.22,0.56,1.81H295.02z M312.11,370.95c-5.48,0.96-10.79-2.31-11.83-7.28
				c-0.03-0.03,0-0.03-0.03-0.05c-0.29-1.51-0.19-3,0.27-4.36c1.01-3.06,3.72-5.53,7.34-6.27c0.13-0.05,0.29-0.08,0.43-0.11
				c4.17-0.72,8.24,0.98,10.39,4.07c0.69,0.96,1.2,2.05,1.44,3.24C321.17,365.18,317.56,369.99,312.11,370.95z"/>
			<path class="st21" d="M252.31,144.51c2.25,0,4.26-1.74,4.26-5.2c0-2.95-1.54-4.87-4.14-4.87c-2.52,0-4.31,2.04-4.31,5.15
				C248.15,142.75,250.01,144.51,252.31,144.51z M252.38,136.19c1.34,0,1.84,1.46,1.84,3.28c0,1.99-0.61,3.31-1.84,3.31
				c-1.23,0-1.92-1.39-1.89-3.28C250.49,137.65,251.12,136.19,252.38,136.19z"/>
			<path class="st21" d="M259.45,146.38c0,3.18,1.89,4.95,4.16,4.95c2.27,0,4.26-1.77,4.26-5.2c0-2.95-1.54-4.89-4.14-4.89
				C261.24,141.23,259.45,143.3,259.45,146.38z M263.69,143c1.34,0,1.84,1.44,1.84,3.28c0,1.99-0.58,3.31-1.84,3.31
				c-1.23,0-1.92-1.41-1.89-3.28C261.79,144.46,262.43,143,263.69,143z"/>
			<polygon class="st21" points="254.13,151.4 263.64,134.44 261.87,134.44 252.36,151.4 			"/>
			<path class="st21" d="M258,159.27c9.1,0,16.5-7.4,16.5-16.5c0-9.1-7.4-16.5-16.5-16.5s-16.5,7.4-16.5,16.5
				C241.5,151.87,248.9,159.27,258,159.27z M258,128.37c7.94,0,14.4,6.46,14.4,14.4c0,7.94-6.46,14.4-14.4,14.4
				c-7.94,0-14.4-6.46-14.4-14.4C243.6,134.83,250.06,128.37,258,128.37z"/>
			<path class="st21" d="M341.17,153.44c-5.82,0-10.56,4.74-10.56,10.56s4.74,10.56,10.56,10.56c5.82,0,10.56-4.74,10.56-10.56
				S346.99,153.44,341.17,153.44z M341.17,173.21c-5.08,0-9.21-4.13-9.21-9.21c0-5.08,4.13-9.21,9.21-9.21
				c5.08,0,9.21,4.13,9.21,9.21C350.38,169.07,346.24,173.21,341.17,173.21z"/>
			<path class="st21" d="M335.7,161.38c-0.61,0-1.09,0.5-1.09,1.11v0.91v3.1c0,0.61,0.49,1.11,1.09,1.11c0.61,0,1.11-0.5,1.11-1.11
				v-2.66v-1.35C336.81,161.89,336.31,161.38,335.7,161.38z"/>
			<path class="st21" d="M339.34,164.12c-0.5,0-0.93,0.35-1.06,0.8c-0.03,0.09-0.05,0.2-0.05,0.3v2.44c0,0.61,0.5,1.11,1.11,1.11
				c0.61,0,1.11-0.5,1.11-1.11v-1.85v-0.59C340.45,164.62,339.95,164.12,339.34,164.12z"/>
			<path class="st21" d="M342.99,159.21c-0.61,0-1.11,0.5-1.11,1.11v2.85v3.32c0,0.61,0.5,1.11,1.11,1.11c0.61,0,1.09-0.5,1.09-1.11
				v-3.84v-2.34C344.08,159.71,343.59,159.21,342.99,159.21z"/>
			<path class="st21" d="M346.63,161.14c-0.61,0-1.11,0.49-1.11,1.09v0.61v4.83c0,0.61,0.5,1.11,1.11,1.11
				c0.61,0,1.09-0.5,1.09-1.11v-4.9v-0.53C347.72,161.63,347.24,161.14,346.63,161.14z"/>
		</g>
		<g>
			<g>
				<g>
					<polygon class="st22" points="152.37,383.29 148.42,385.66 142.16,385 152.44,392 153.25,389.16 155.75,386.44 					"/>
					<path class="st23" d="M153.17,390.03c-2.64-0.63-5.09-1.81-6.93-4.71l-7.56-1.06c-4.18,0.4,10.1,10.33,12.87,9.62
						C152.82,393.24,153.93,391.45,153.17,390.03z"/>
				</g>
				<g>
					<path class="st5" d="M219.97,296.27c-6.94,11.1-15.14,24.68-23.16,23.98l-22.87-7.4l-14.84-4.76l1.11-4.42l15.54,3.24
						l18.96,3.99l9.84-13.9C209.25,290.19,222.68,290.9,219.97,296.27z"/>
				</g>
				<path class="st7" d="M225.07,350.01c1.63,5.79-11.64,11.01-28.03,16.09l-41.68,22.23l-4.71-5.48l42.73-34.16
					c7.35-4.32,16.2-8.16,23.2-5.58L225.07,350.01z"/>
				<g>
					<polygon class="st22" points="149.22,365.27 146.95,369.02 141.21,371.55 153.7,372.48 152.93,369.62 153.66,366.04 					"/>
					<path class="st23" d="M153.31,370.41c-2.6,0.77-5.32,0.98-8.42-0.6l-7.06,2.85c-3.39,2.42,14.07,3.87,16.09,1.88
						C154.68,373.35,154.7,371.26,153.31,370.41z"/>
				</g>
				<path class="st7" d="M210.89,352.59c-16.7,2.88-30.87-5.15-42.1-13.37l-14.2,27.47l-7.21-1.25
					c5.08-17.35,10.31-39.9,15.03-44.24c6.61-4.16,20.43,8.2,32.11,15.65L210.89,352.59z"/>
				<path class="st5" d="M193.45,336.9c0,7.11,23.53,14.06,31.61,13.1l16.9-46.14c-1.83-7.26-28.55-15.37-34.21-9.63
					C198.99,306.31,207.77,327.76,193.45,336.9z"/>
				<g>
					<path class="st22" d="M217.16,297.61c0.85-1.34,0.11-5.22-0.42-8.76l6.52-2.14c0.69,3.27,1.53,6.23,2.84,8.27
						C223.96,299.12,218.79,300.32,217.16,297.61z"/>
					<path class="st22" d="M214.35,293.67c1.54,1.19,4.02,1.05,12.14-4.03l0.32-14.21l-14.23-1.1
						C210.15,279.43,211.58,289.61,214.35,293.67z"/>
					<polygon class="st24" points="208.56,279.23 211.58,282.55 219.34,280.61 218.84,284.26 220.03,284.69 221.49,281.5 
						223.16,283.63 220.7,287.07 223.97,290.9 226.94,289.41 228.86,284.12 227.59,279.38 229.42,280.29 231.37,288.27 
						235.54,290.58 238.43,284.93 231.98,277.1 226.55,275.46 223.43,271.55 215.88,270.58 210.81,273.07 					"/>
					<path class="st5" d="M226.55,275.46c0.97,1.2,1.05,3.92,1.05,3.92c0.16,0.3,1.41,1.17,1.62,1.11c0,0,0.05-4.42-0.45-4.83
						C228.27,275.24,226.55,275.46,226.55,275.46z"/>
				</g>
				<g>
					<path class="st5" d="M224.77,332.23l-25.26-3.43l-14.05-1.92l0.3-4.58l14.61,0.46l22.15,0.68l7.1-17.47
						c2.16-4.47,12.36-8.1,12.82-1.37C240.03,321.13,231.04,332.96,224.77,332.23z"/>
					<polygon class="st22" points="187.06,322.96 184.88,320.98 179.45,323.68 185.57,327.66 186.79,327.52 					"/>
				</g>
				<g>
					<path class="st4" d="M187.69,324.49c-0.02,1.17-1.1,2-2.25,1.76l-27.55-5.67c-0.87-0.18-1.49-0.93-1.48-1.79l0.14-15.69
						l0.04-3.42c0.02-1.17,1.1-2,2.25-1.76l27.55,5.67c0.87,0.18,1.49,0.93,1.48,1.79l-0.02,1.19L187.69,324.49z"/>
					<path class="st5" d="M172.84,314.61l-2.4-0.49c-0.62-0.13-1.12-0.76-1.1-1.42l0.06-2.52c0.02-0.65,0.54-1.08,1.16-0.95
						l2.4,0.49c0.62,0.13,1.12,0.76,1.1,1.42l-0.06,2.52C173.99,314.31,173.47,314.74,172.84,314.61z"/>
					<path class="st4" d="M201.89,330.9l-0.41,1.89c-0.14,0.66-0.81,1.06-1.45,0.93l-43.34-8.93c-0.67-0.14-1.09-0.77-0.95-1.42
						l0.41-1.89c0.05-0.25,0.16-0.45,0.33-0.59c0.27-0.31,0.71-0.45,1.13-0.37l43.34,8.93C201.59,329.58,202.03,330.24,201.89,330.9
						z"/>
					
						<linearGradient id="SVGID_13_" gradientUnits="userSpaceOnUse" x1="176.0292" y1="303.8638" x2="189.2761" y2="335.3252" gradientTransform="matrix(0.9952 0.0982 -0.0982 0.9952 22.2366 -18.8655)">
						<stop  offset="0" style="stop-color:#FFFFFF"/>
						<stop  offset="0.2563" style="stop-color:#C2C2C2"/>
						<stop  offset="0.8455" style="stop-color:#292929"/>
						<stop  offset="1" style="stop-color:#000000"/>
					</linearGradient>
					<path class="st25" d="M185.16,330.65l-28.47-5.86c-0.67-0.14-1.09-0.77-0.95-1.42l0.41-1.89c0.05-0.25,0.16-0.45,0.33-0.59
						c0.03,0.01,0.03-0.02,0.06-0.02c0.49-0.13,1-0.19,1.49-0.26c0.51-0.07,0.99-0.14,1.46-0.27c2.11-0.71,3.4-2.92,3.46-5.11
						c0.08-2.15-0.86-4.26-2.08-6.08c-1.19-1.81-2.67-3.46-3.85-5.3c-0.18-0.26-0.33-0.5-0.48-0.76l0.04-3.42
						c0.02-1.17,1.1-2,2.25-1.76l27.55,5.67c0.87,0.18,1.49,0.93,1.48,1.79l-0.02,1.19c-0.85-0.38-1.79-0.65-2.85-0.7
						c-2.85-0.19-5.83,0.91-7.43,3.21c-0.8,1.12-1.2,2.46-1.55,3.82c-0.56,2.31-0.79,5.03,0.8,6.87c1.03,1.18,2.6,1.73,3.97,2.56
						c1.5,0.91,2.77,2.2,3.58,3.7c0.3,0.52,0.5,1.07,0.67,1.65C185.27,328.64,185.34,329.69,185.16,330.65z"/>
				</g>
			</g>
			<g>
				<g>
					<path class="st4" d="M189.26,222.55c3.63-3.84,5.6-8.87,5.6-14.18c0-7.39-3.87-13.92-9.71-17.6c-3.21-2.03-7-3.21-11.08-3.21
						c-6.74,0-12.73,3.21-16.52,8.18c-2.68,3.5-4.29,7.89-4.29,12.63c0,9.87,6.92,18.15,16.18,20.26c1.47,0.34,3.03,0.53,4.63,0.53
						c2.1,0,4.16-0.32,6.13-0.92l7.1,7.97c0.45,0.53,1.08,0.82,1.71,0.82c0.34,0,0.68-0.08,1-0.24c0.97-0.45,1.47-1.45,1.32-2.47
						l-2.08-11.73C189.26,222.55,189.26,222.55,189.26,222.55z M188.92,234.81l-8.05-9.08l-0.68,0.24c-1.95,0.68-4,1.05-6.1,1.05
						c-1.21,0-2.37-0.11-3.53-0.34c-8.6-1.63-15.13-9.24-15.13-18.31c0-3.89,1.21-7.5,3.24-10.47c3.34-4.95,9.02-8.18,15.42-8.18
						c3.13,0,6.08,0.76,8.68,2.13c5.92,3.13,9.95,9.37,9.95,16.52c0,4.71-1.71,9.13-4.89,12.55c-0.11,0.18-0.29,0.34-0.45,0.53
						l-0.39,0.39l2.24,12.84L188.92,234.81z"/>
				</g>
				<g>
					<path class="st7" d="M169.37,198.97v7.24h-3.42v-7.24c0-0.61,0.5-1.11,1.11-1.11h1.18
						C168.87,197.87,169.37,198.37,169.37,198.97z"/>
					<path class="st7" d="M182.21,207.84v10.37c0,0.32-0.26,0.55-0.55,0.55H166.5c-0.32,0-0.55-0.24-0.55-0.55v-10.37H182.21z"/>
					<path class="st7" d="M184.13,208.18h-20.1c-0.53,0-0.76-0.63-0.37-0.97l2.1-1.89l0.18-0.18l3.42-3.1l3.95-3.58
						c0.45-0.39,1.08-0.39,1.5,0l1.82,1.63l7.87,7.13C184.87,207.55,184.63,208.18,184.13,208.18z"/>
					<rect x="171.26" y="211.73" class="st13" width="5.6" height="7.13"/>
				</g>
				<linearGradient id="SVGID_14_" gradientUnits="userSpaceOnUse" x1="165.7644" y1="208.3665" x2="182.2086" y2="208.3665">
					<stop  offset="7.662835e-03" style="stop-color:#FFFFFF"/>
					<stop  offset="0.0741" style="stop-color:#B6B4B4"/>
					<stop  offset="0.1483" style="stop-color:#838080"/>
					<stop  offset="0.2285" style="stop-color:#5D5A5A"/>
					<stop  offset="0.3137" style="stop-color:#42403F"/>
					<stop  offset="0.4055" style="stop-color:#2D2C2C"/>
					<stop  offset="0.5063" style="stop-color:#1D1C1C"/>
					<stop  offset="0.6209" style="stop-color:#0F0F0F"/>
					<stop  offset="0.761" style="stop-color:#040404"/>
					<stop  offset="1" style="stop-color:#010101"/>
				</linearGradient>
				<path class="st26" d="M181.31,213.71c0.29,0.42,0.58,0.82,0.89,1.21v3.29c0,0.32-0.26,0.55-0.55,0.55h-4.79v0.11h-3.71
					c0.03-0.03,0.03-0.08,0.03-0.11c0-0.05,0.03-0.08,0.03-0.13c0.21-1.24,0.29-2.53-0.05-3.71c-0.34-1.21-1.08-2.21-1.84-3.18
					c-0.05-0.05-0.08-0.11-0.13-0.16c-0.89-1.16-1.79-2.29-2.71-3.39c-0.11-0.11-0.21-0.24-0.29-0.34c-0.47-0.55-0.97-1.08-1.47-1.6
					l-0.03-0.03c-0.24-0.24-0.47-0.5-0.74-0.71c-0.05-0.08-0.13-0.13-0.18-0.18l0.18-0.18v-6.16c0-0.61,0.5-1.11,1.11-1.11h1.18
					c0.63,0,1.13,0.5,1.13,1.11v3.05l3.95-3.58c0.45-0.39,1.08-0.39,1.5,0l1.82,1.63c-0.08,2.32,0.58,4.76,1.39,6.95
					c0.11,0.26,0.21,0.55,0.32,0.82c0.05,0.13,0.08,0.24,0.13,0.34C179.24,210.13,180.16,212,181.31,213.71z"/>
				<linearGradient id="SVGID_15_" gradientUnits="userSpaceOnUse" x1="157.5554" y1="192.7247" x2="185.1554" y2="192.7247">
					<stop  offset="7.662835e-03" style="stop-color:#FFFFFF"/>
					<stop  offset="0.0741" style="stop-color:#B6B4B4"/>
					<stop  offset="0.1483" style="stop-color:#838080"/>
					<stop  offset="0.2285" style="stop-color:#5D5A5A"/>
					<stop  offset="0.3137" style="stop-color:#42403F"/>
					<stop  offset="0.4055" style="stop-color:#2D2C2C"/>
					<stop  offset="0.5063" style="stop-color:#1D1C1C"/>
					<stop  offset="0.6209" style="stop-color:#0F0F0F"/>
					<stop  offset="0.761" style="stop-color:#040404"/>
					<stop  offset="1" style="stop-color:#010101"/>
				</linearGradient>
				<path class="st27" d="M185.16,190.76c-0.79,0.34-1.6,0.68-2.39,1.08c-2.6-1.37-5.55-2.13-8.68-2.13
					c-6.39,0-12.08,3.24-15.42,8.18c-0.24-0.39-0.47-0.79-0.68-1.18c-0.16-0.32-0.32-0.63-0.42-0.97c3.79-4.97,9.79-8.18,16.52-8.18
					C178.16,187.55,181.95,188.74,185.16,190.76z"/>
				<linearGradient id="SVGID_16_" gradientUnits="userSpaceOnUse" x1="169.4478" y1="228.9679" x2="191.3671" y2="228.9679">
					<stop  offset="7.662835e-03" style="stop-color:#FFFFFF"/>
					<stop  offset="0.0741" style="stop-color:#B6B4B4"/>
					<stop  offset="0.1483" style="stop-color:#838080"/>
					<stop  offset="0.2285" style="stop-color:#5D5A5A"/>
					<stop  offset="0.3137" style="stop-color:#42403F"/>
					<stop  offset="0.4055" style="stop-color:#2D2C2C"/>
					<stop  offset="0.5063" style="stop-color:#1D1C1C"/>
					<stop  offset="0.6209" style="stop-color:#0F0F0F"/>
					<stop  offset="0.761" style="stop-color:#040404"/>
					<stop  offset="1" style="stop-color:#010101"/>
				</linearGradient>
				<path class="st28" d="M191.34,234.31c0.16,1.03-0.34,2.03-1.32,2.47c-0.32,0.16-0.66,0.24-1,0.24c-0.63,0-1.26-0.29-1.71-0.82
					l-7.1-7.97c-1.97,0.61-4.03,0.92-6.13,0.92c-1.6,0-3.16-0.18-4.63-0.53c0.13-0.24,0.29-0.47,0.42-0.71
					c0.24-0.39,0.47-0.82,0.68-1.24c1.16,0.24,2.32,0.34,3.53,0.34c2.1,0,4.16-0.37,6.1-1.05l0.68-0.24l8.05,9.08l0.29-0.13
					l-2.24-12.84l0.39-0.39c0.16-0.18,0.34-0.34,0.45-0.53c0.5,0.53,0.97,1.05,1.45,1.63c0,0,0,0,0,0.03L191.34,234.31z"/>
			</g>
			<g>
				<path class="st13" d="M304.49,346.23c-0.51-0.16-1.03-0.29-1.55-0.36c-1.57-0.29-3.2-0.31-4.87-0.09
					c-0.3,0.02-0.63,0.06-0.94,0.13c-5.72,1.09-10.12,5.13-11.99,10.2c-0.17,0.35-0.28,0.74-0.38,1.15c-0.32,1.15-0.54,2.36-0.6,3.6
					c-0.03,0.62-0.03,1.26,0.03,1.88c0.05,0.6,0.13,1.26,0.25,1.88c0.13,0.68,0.32,1.36,0.54,1.99c0.94,2.95,2.71,5.46,5,7.34
					c0.46,0.39,0.92,0.74,1.44,1.06c0.01,0.02,0.01,0.02,0.04,0.01c1,0.66,2.06,1.19,3.18,1.59c2.62,0.98,5.56,1.26,8.52,0.7
					c8.66-1.67,14.33-10.06,12.69-18.71C314.65,352.47,310.12,347.83,304.49,346.23z M310.04,359.71c1.07,5.47-2.54,10.77-8,11.8
					c-5.47,1.07-10.79-2.52-11.83-7.99c-0.01-0.02,0.01-0.04,0-0.06c-1-5.36,2.37-10.48,7.6-11.68c0.13-0.05,0.27-0.07,0.42-0.1
					C303.69,350.62,308.99,354.23,310.04,359.71z"/>
				<path class="st29" d="M295.37,336.8c-0.02,0.01-0.08,0.02-0.11,0.03c-12.05,2.36-20.41,12.89-20.39,24.75l-21.28,4.09l-26.12,5
					c-0.73-1.78-2.62-2.85-4.58-2.48l-11.42,2.2c-2.24,0.44-3.69,2.59-3.27,4.81l1.05,5.55c0.28,1.51,1.39,2.65,2.75,3.12l1.09,5.78
					c0.24,1.12,1.34,1.89,2.47,1.67c1.14-0.21,1.89-1.34,1.67-2.47l-0.99-5.24l0.06,0l0.23,1.16c0.21,1.02,1.19,1.69,2.22,1.51
					l1.47-0.29c1.02-0.21,1.69-1.19,1.51-2.22l0.69,3.64c0.27,1.39,1.6,2.27,2.96,2.01l0.99-0.19c1.37-0.26,2.28-1.57,2.01-2.96
					l-1.02-5.34c0.2-0.19,0.38-0.36,0.55-0.56l48.72-9.36c4.41,11.03,16.15,17.77,28.25,15.44c13.72-2.65,22.68-15.89,20.05-29.59
					C322.3,343.13,309.08,334.15,295.37,336.8z M315.83,358.6c1.63,8.65-4.03,17.04-12.69,18.71c-2.96,0.56-5.89,0.28-8.52-0.7
					c-1.13-0.39-2.18-0.93-3.18-1.59c-0.02,0.01-0.02,0.01-0.04-0.01c-0.51-0.32-0.98-0.67-1.44-1.06
					c-2.29-1.84-4.07-4.35-5.02-7.33c-0.24-0.65-0.41-1.3-0.54-1.99c-0.12-0.62-0.19-1.25-0.23-1.89c-0.06-0.63-0.07-1.26-0.03-1.88
					c0.07-1.25,0.26-2.44,0.6-3.6c0.1-0.41,0.21-0.8,0.38-1.15c1.84-5.12,6.27-9.11,11.98-10.22c0.31-0.06,0.66-0.11,0.96-0.14
					c1.67-0.22,3.28-0.18,4.87,0.12c0.52,0.07,1.04,0.19,1.55,0.36C310.12,347.83,314.65,352.47,315.83,358.6z"/>
				
					<linearGradient id="SVGID_17_" gradientUnits="userSpaceOnUse" x1="217.4565" y1="360.1793" x2="219.6358" y2="457.3753" gradientTransform="matrix(0.8549 -0.5189 0.5189 0.8549 -121.9105 148.1675)">
					<stop  offset="7.662835e-03" style="stop-color:#FFFFFF"/>
					<stop  offset="0.0741" style="stop-color:#B6B4B4"/>
					<stop  offset="0.1483" style="stop-color:#838080"/>
					<stop  offset="0.2285" style="stop-color:#5D5A5A"/>
					<stop  offset="0.3137" style="stop-color:#42403F"/>
					<stop  offset="0.4055" style="stop-color:#2D2C2C"/>
					<stop  offset="0.5063" style="stop-color:#1D1C1C"/>
					<stop  offset="0.6209" style="stop-color:#0F0F0F"/>
					<stop  offset="0.761" style="stop-color:#040404"/>
					<stop  offset="1" style="stop-color:#010101"/>
				</linearGradient>
				<path class="st30" d="M324.95,356.85c2.63,13.69-6.33,26.94-20.05,29.59c-12.1,2.33-23.84-4.41-28.25-15.44l-48.72,9.36
					c-0.17,0.2-0.35,0.37-0.55,0.56l1.02,5.34c0.27,1.39-0.64,2.71-2.01,2.96l-0.99,0.19c-1.37,0.26-2.69-0.62-2.96-2.01l-0.69-3.64
					c0.18,1.03-0.49,2.01-1.51,2.22l-1.47,0.29c-1.03,0.18-2.01-0.49-2.22-1.51l-0.23-1.16l-0.06,0l0.99,5.24
					c0.21,1.14-0.53,2.26-1.67,2.47c-1.14,0.22-2.24-0.55-2.47-1.67l-1.09-5.78c-1.37-0.47-2.47-1.61-2.75-3.12l-1.05-5.55
					c-0.43-2.22,1.03-4.37,3.27-4.81l11.42-2.2c1.97-0.37,3.85,0.71,4.58,2.48l26.12-5c2.35,0.73,4.7,1.43,7.1,1.97
					c7.21,1.68,14.88,2.2,21.9-0.09c0.79-0.26,1.58-0.58,2.36-0.92l0.02-0.01c1.86-0.81,3.63-1.86,5.23-3.14
					c0.01,0.02-0.01,0.04,0,0.06c1.03,5.46,6.35,9.06,11.83,7.99c5.46-1.03,9.07-6.33,8-11.8c-1.05-5.49-6.34-9.09-11.82-8.02
					c-0.14,0.02-0.29,0.05-0.42,0.1c0.41-1.99,0.49-4.01,0.26-6c0,0,0.02-0.01,0.01-0.04c-0.17-1.8-0.56-3.59-1.11-5.32
					c-0.3-0.96-0.97-2.23-1.71-3.6c0.02-0.01,0.08-0.02,0.11-0.03C309.08,334.15,322.3,343.13,324.95,356.85z"/>
			</g>
			<g>
				<g>
					<path class="st7" d="M246.51,130.88c0,3.46-2.02,5.2-4.26,5.2c-2.3,0-4.16-1.77-4.19-4.92c0-3.1,1.79-5.15,4.31-5.15
						C244.97,126.01,246.51,127.93,246.51,130.88z M240.43,131.06c-0.02,1.89,0.66,3.28,1.89,3.28c1.24,0,1.84-1.31,1.84-3.31
						c0-1.82-0.51-3.28-1.84-3.28C241.06,127.75,240.43,129.22,240.43,131.06z M242.3,142.97l9.51-16.96h1.77l-9.51,16.96H242.3z
						 M257.81,137.69c0,3.43-1.99,5.2-4.26,5.2c-2.27,0-4.16-1.77-4.16-4.95c0-3.08,1.79-5.15,4.29-5.15
						C256.27,132.8,257.81,134.74,257.81,137.69z M251.73,137.87c-0.02,1.87,0.66,3.28,1.89,3.28c1.26,0,1.84-1.31,1.84-3.31
						c0-1.84-0.51-3.28-1.84-3.28C252.36,134.57,251.73,136.03,251.73,137.87z"/>
				</g>
				<g>
					<path class="st12" d="M247.93,150.84c-9.1,0-16.5-7.4-16.5-16.5c0-9.1,7.4-16.5,16.5-16.5s16.5,7.4,16.5,16.5
						C264.44,143.44,257.03,150.84,247.93,150.84z M247.93,119.94c-7.94,0-14.4,6.46-14.4,14.4s6.46,14.4,14.4,14.4
						s14.4-6.46,14.4-14.4S255.87,119.94,247.93,119.94z"/>
				</g>
			</g>
			<g>
				<g>
					<path class="st12" d="M331.1,166.12c-5.82,0-10.56-4.74-10.56-10.56c0-5.82,4.74-10.56,10.56-10.56
						c5.82,0,10.56,4.74,10.56,10.56C341.66,161.39,336.92,166.12,331.1,166.12z M331.1,146.35c-5.08,0-9.21,4.13-9.21,9.21
						s4.13,9.21,9.21,9.21c5.08,0,9.21-4.13,9.21-9.21S336.18,146.35,331.1,146.35z"/>
				</g>
				<g>
					<path class="st7" d="M326.74,154.06v4.01c0,0.61-0.5,1.11-1.11,1.11c-0.61,0-1.09-0.5-1.09-1.11v-4.01
						c0-0.61,0.49-1.11,1.09-1.11C326.24,152.95,326.74,153.45,326.74,154.06z"/>
					<path class="st7" d="M330.39,156.79v2.44c0,0.61-0.5,1.11-1.11,1.11c-0.61,0-1.11-0.5-1.11-1.11v-2.44
						c0-0.11,0.02-0.21,0.05-0.3c0.14-0.46,0.56-0.8,1.06-0.8C329.89,155.68,330.39,156.19,330.39,156.79z"/>
					<path class="st7" d="M334.02,151.89v6.18c0,0.61-0.49,1.11-1.09,1.11c-0.61,0-1.11-0.5-1.11-1.11v-6.18
						c0-0.61,0.5-1.11,1.11-1.11C333.53,150.78,334.02,151.28,334.02,151.89z"/>
					<path class="st7" d="M337.66,153.8v5.43c0,0.61-0.49,1.11-1.09,1.11c-0.61,0-1.11-0.5-1.11-1.11v-5.43
						c0-0.61,0.5-1.09,1.11-1.09C337.17,152.71,337.66,153.2,337.66,153.8z"/>
					<linearGradient id="SVGID_18_" gradientUnits="userSpaceOnUse" x1="324.5435" y1="157.0499" x2="326.7448" y2="157.0499">
						<stop  offset="0" style="stop-color:#FFFFFF"/>
						<stop  offset="0.085" style="stop-color:#F5F5F5"/>
						<stop  offset="0.2286" style="stop-color:#DBDBDB"/>
						<stop  offset="0.4131" style="stop-color:#B0B0B0"/>
						<stop  offset="0.6315" style="stop-color:#747474"/>
						<stop  offset="0.8755" style="stop-color:#292929"/>
						<stop  offset="1" style="stop-color:#000000"/>
					</linearGradient>
					<path class="st31" d="M326.74,155.41v2.66c0,0.61-0.5,1.11-1.11,1.11c-0.61,0-1.09-0.5-1.09-1.11v-3.1
						C325.36,154.82,326.09,155.05,326.74,155.41z"/>
					<linearGradient id="SVGID_19_" gradientUnits="userSpaceOnUse" x1="328.1717" y1="158.4172" x2="330.3881" y2="158.4172">
						<stop  offset="0" style="stop-color:#FFFFFF"/>
						<stop  offset="0.085" style="stop-color:#F5F5F5"/>
						<stop  offset="0.2286" style="stop-color:#DBDBDB"/>
						<stop  offset="0.4131" style="stop-color:#B0B0B0"/>
						<stop  offset="0.6315" style="stop-color:#747474"/>
						<stop  offset="0.8755" style="stop-color:#292929"/>
						<stop  offset="1" style="stop-color:#000000"/>
					</linearGradient>
					<path class="st32" d="M330.39,157.38v1.85c0,0.61-0.5,1.11-1.11,1.11c-0.61,0-1.11-0.5-1.11-1.11v-2.44
						c0-0.11,0.02-0.21,0.05-0.3C329.1,157.23,329.8,157.87,330.39,157.38z"/>
					<linearGradient id="SVGID_20_" gradientUnits="userSpaceOnUse" x1="331.8151" y1="156.6791" x2="334.0163" y2="156.6791">
						<stop  offset="0" style="stop-color:#FFFFFF"/>
						<stop  offset="0.085" style="stop-color:#F5F5F5"/>
						<stop  offset="0.2286" style="stop-color:#DBDBDB"/>
						<stop  offset="0.4131" style="stop-color:#B0B0B0"/>
						<stop  offset="0.6315" style="stop-color:#747474"/>
						<stop  offset="0.8755" style="stop-color:#292929"/>
						<stop  offset="1" style="stop-color:#000000"/>
					</linearGradient>
					<path class="st33" d="M334.02,154.23v3.84c0,0.61-0.49,1.11-1.09,1.11c-0.61,0-1.11-0.5-1.11-1.11v-3.32
						C332.39,154.17,333.15,154.12,334.02,154.23z"/>
					<linearGradient id="SVGID_21_" gradientUnits="userSpaceOnUse" x1="335.4585" y1="157.3394" x2="337.6597" y2="157.3394">
						<stop  offset="0" style="stop-color:#FFFFFF"/>
						<stop  offset="0.085" style="stop-color:#F5F5F5"/>
						<stop  offset="0.2286" style="stop-color:#DBDBDB"/>
						<stop  offset="0.4131" style="stop-color:#B0B0B0"/>
						<stop  offset="0.6315" style="stop-color:#747474"/>
						<stop  offset="0.8755" style="stop-color:#292929"/>
						<stop  offset="1" style="stop-color:#000000"/>
					</linearGradient>
					<path class="st34" d="M337.66,154.33v4.9c0,0.61-0.49,1.11-1.09,1.11c-0.61,0-1.11-0.5-1.11-1.11v-4.83
						C336.17,154.5,336.92,154.53,337.66,154.33z"/>
				</g>
			</g>
		</g>
		<linearGradient id="SVGID_22_" gradientUnits="userSpaceOnUse" x1="398.7257" y1="307.0028" x2="421.8751" y2="307.0028">
			<stop  offset="0" style="stop-color:#FFFFFF"/>
			<stop  offset="0.0617" style="stop-color:#EDEDED"/>
			<stop  offset="0.4133" style="stop-color:#898989"/>
			<stop  offset="0.697" style="stop-color:#3F3F3F"/>
			<stop  offset="0.8988" style="stop-color:#111111"/>
			<stop  offset="1" style="stop-color:#000000"/>
		</linearGradient>
		<path class="st35" d="M421.88,289.09c-4.68,13.45-12.52,25.75-22.59,35.83c-0.21-0.24-0.37-0.5-0.56-0.74L421.88,289.09z"/>
	</g>
</g>
</svg>
