<svg width="300" height="122" viewBox="0 0 300 122" fill="none" xmlns="http://www.w3.org/2000/svg">
<g clip-path="url(#clip0_417_575)">
<path fill-rule="evenodd" clip-rule="evenodd" d="M71.9194 44.3992C69.722 43.1196 67.7674 39.9871 60.9209 38.3912C46.8056 35.1039 32.815 45.1863 32.498 60.1822C32.3524 67.0735 35.0816 72.9871 39.4027 77.1554C43.5133 81.1208 49.0658 83.5074 54.9563 83.655C60.3741 83.7907 67.2748 81.5847 71.4686 77.0578C72.8783 77.7223 78.2615 83.5351 79.7485 85.0004L87.8391 93.1767C84.9517 96.1485 82.011 98.4884 78.3402 100.522C65.5354 107.613 49.8191 108.701 36.684 102.566C20.5228 95.0201 9.53655 79.6574 9.53155 60.7677C9.52245 25.2222 47.5084 3.8629 78.2247 20.8202C80.9889 22.3458 86.8716 26.5713 87.9128 28.4183L71.9199 44.3987L71.9194 44.3992ZM98.411 92.9398L71.082 65.5043C69.0797 72.1242 62.9223 76.9457 55.6358 76.9457C46.7256 76.9457 39.5028 69.7375 39.5028 60.8458C39.5028 51.9546 46.726 44.7464 55.6358 44.7464C62.8317 44.7464 68.9269 49.449 71.0056 55.9417L98.396 28.6706C97.6132 27.1918 94.7958 24.1279 93.6477 22.9527C79.164 8.12015 56.5824 3.39809 37.1489 10.3652C18.5446 17.0327 1.83393 35.4988 1.83985 60.7664C1.85122 109.691 60.159 130.935 93.2897 98.7285C95.2206 96.8521 96.7239 95.016 98.411 92.9402V92.9398Z" fill="#003559"/>
<path fill-rule="evenodd" clip-rule="evenodd" d="M76.4697 92.5925L70.9677 87.1837C66.0811 89.6566 63.8591 91.4096 54.8747 91.2548C39.0337 90.982 24.757 78.1871 24.8839 60.474C25.0099 42.9344 39.2993 30.3351 55.1676 30.1404C63.8495 30.0255 68.1757 32.4857 71.3689 34.2801L76.5593 29.0128C73.9698 27.1178 69.0113 24.633 67.1409 24.0439C42.6862 16.3437 17.1053 34.817 17.174 60.7659C17.234 83.4321 35.957 99.6005 56.9307 98.9314C63.2368 98.7303 72.965 95.9678 76.4692 92.5925H76.4697Z" fill="#56B01A"/>
<path d="M109.905 30.7414C109.905 19.0291 115.411 13.1732 126.422 13.1732C128.829 13.1732 131.153 13.5022 133.395 14.16C135.637 14.8181 136.758 15.6406 136.758 16.6274C136.758 17.351 136.37 18.3051 135.596 19.4898C134.821 20.6741 134.137 21.2664 133.544 21.2664C133.445 21.2664 133.099 21.1348 132.505 20.872C130.791 20.0822 128.714 19.6877 126.274 19.6877C120.571 19.6877 117.719 23.4134 117.719 30.8653C117.719 38.3172 120.538 42.043 126.176 42.043C128.55 42.043 130.824 41.5496 133 40.5628C133.725 40.2337 134.154 40.0693 134.286 40.0693C134.978 40.0693 135.638 40.6367 136.264 41.772C136.89 42.9068 137.204 43.7706 137.204 44.3625C137.204 45.6784 135.984 46.6983 133.544 47.4223C131.105 48.1458 128.649 48.508 126.176 48.508C120.638 48.508 116.541 47.0687 113.887 44.19C111.233 41.3113 109.906 36.8289 109.906 30.7423L109.905 30.7414ZM143.428 46.6316V15.5417C143.428 14.2258 144.087 13.5676 145.406 13.5676H155.049C163.258 13.5676 167.362 16.6601 167.362 22.8451C167.362 24.6876 166.843 26.2913 165.805 27.6566C164.766 29.022 163.357 30.0338 161.577 30.6919V30.8894C162.203 31.1195 162.846 31.671 163.505 32.5426C164.165 33.4145 164.708 34.3768 165.137 35.4294L169.488 46.2861C169.653 46.7142 169.736 47.0265 169.736 47.2239C169.736 47.8821 168.747 48.2107 166.769 48.2107H164.741C163.093 48.2107 162.137 47.8653 161.873 47.1745L157.966 37.5515C157.406 36.4657 156.804 35.7009 156.161 35.2565C155.518 34.8121 154.455 34.5902 152.972 34.5902H151.043V46.6311C151.043 47.6842 150.054 48.2103 148.076 48.2103H146.394C144.416 48.2103 143.427 47.6842 143.427 46.6311L143.428 46.6316ZM151.043 28.027H155.741C156.763 28.027 157.653 27.6158 158.412 26.7933C159.17 25.9708 159.549 24.9754 159.549 23.8074C159.549 22.6395 159.179 21.7181 158.437 21.044C157.695 20.3695 156.681 20.0322 155.395 20.0322H151.044V28.027H151.043ZM175.318 46.1382V15.5417C175.318 14.2258 175.978 13.5676 177.296 13.5676H195.396C196.385 13.5676 196.879 14.3901 196.879 16.0351V17.5648C196.879 19.2098 196.385 20.0322 195.396 20.0322H182.934V27.1877H194.061C195.05 27.1877 195.544 28.0102 195.544 29.6552V31.1849C195.544 32.8299 195.05 33.6524 194.061 33.6524H182.934V41.6472H195.446C196.434 41.6472 196.929 42.4696 196.929 44.1146V45.6443C196.929 47.2893 196.434 48.1118 195.446 48.1118H177.297C175.978 48.1118 175.319 47.4536 175.319 46.1377L175.318 46.1382ZM204.044 46.1382V15.5417C204.044 14.2258 204.704 13.5676 206.022 13.5676H217.1C222.21 13.5676 226.125 15.0564 228.845 18.0337C231.564 21.0109 232.924 25.2795 232.924 30.8399C232.924 36.3999 231.564 40.6685 228.845 43.6457C226.125 46.623 222.21 48.1118 217.1 48.1118H206.022C204.704 48.1118 204.044 47.4536 204.044 46.1377V46.1382ZM211.71 41.6476H217.1C219.737 41.6476 221.732 40.7262 223.083 38.8842C224.435 37.0417 225.111 34.3605 225.111 30.8404C225.111 27.3198 224.435 24.6386 223.083 22.7966C221.732 20.9541 219.737 20.0332 217.1 20.0332H211.71V41.6481V41.6476Z" fill="#003559"/>
<path d="M110.689 105.237C110.689 103.249 111.137 101.739 112.03 100.706C112.924 99.6722 114.223 99.1556 115.926 99.1556C117.629 99.1556 118.928 99.6749 119.822 100.714C120.716 101.753 121.163 103.261 121.163 105.237C121.163 106.841 120.871 108.134 120.289 109.116C119.706 110.099 118.86 110.737 117.751 111.03V111.098L121.095 112.148C121.253 112.205 121.332 112.301 121.332 112.437C121.332 112.572 121.256 112.804 121.103 113.131C120.95 113.459 120.789 113.622 120.619 113.622C120.528 113.622 119.521 113.244 117.597 112.487C115.673 111.731 114.44 111.24 113.897 111.014C111.758 110.167 110.688 108.241 110.688 105.237H110.689ZM112.234 105.229C112.234 106.77 112.554 107.947 113.193 108.76C113.833 109.573 114.744 109.98 115.926 109.98C117.109 109.98 118.02 109.571 118.659 108.752C119.299 107.933 119.618 106.759 119.618 105.229C119.618 103.698 119.296 102.518 118.651 101.688C118.006 100.858 117.095 100.443 115.918 100.443C114.741 100.443 113.833 100.855 113.193 101.679C112.554 102.504 112.234 103.687 112.234 105.229ZM123.54 107.321V99.5964C123.54 99.3476 123.766 99.2237 124.219 99.2237H124.354C124.807 99.2237 125.033 99.3481 125.033 99.5964V107.372C125.033 108.117 125.33 108.73 125.924 109.21C126.519 109.69 127.269 109.93 128.174 109.93C129.079 109.93 129.829 109.69 130.423 109.21C131.017 108.73 131.314 108.117 131.314 107.372V99.5964C131.314 99.3476 131.541 99.2237 131.993 99.2237H132.129C132.581 99.2237 132.808 99.3481 132.808 99.5964V107.321C132.808 108.552 132.406 109.508 131.603 110.192C130.799 110.875 129.653 111.217 128.165 111.217C126.677 111.217 125.534 110.875 124.736 110.192C123.939 109.508 123.54 108.552 123.54 107.321ZM135.864 110.776V99.5959C135.864 99.3472 136.09 99.2232 136.543 99.2232H136.678C137.131 99.2232 137.357 99.3476 137.357 99.5959V110.776C137.357 111.025 137.131 111.149 136.678 111.149H136.543C136.09 111.149 135.864 111.025 135.864 110.776ZM139.972 105.186C139.972 101.166 141.805 99.1556 145.472 99.1556C146.286 99.1556 147.031 99.2714 147.704 99.5029C148.377 99.7344 148.714 99.9686 148.714 100.206C148.714 100.364 148.643 100.567 148.502 100.816C148.36 101.064 148.238 101.189 148.137 101.189C148.114 101.189 147.993 101.127 147.772 101.003C147.551 100.878 147.237 100.754 146.83 100.63C146.422 100.506 145.981 100.443 145.506 100.443C144.136 100.443 143.129 100.821 142.484 101.579C141.839 102.335 141.516 103.535 141.516 105.178C141.516 106.821 141.836 108.024 142.476 108.786C143.115 109.549 144.102 109.93 145.438 109.93C145.947 109.93 146.428 109.859 146.881 109.718C147.333 109.577 147.684 109.436 147.933 109.295C148.182 109.154 148.323 109.083 148.357 109.083C148.459 109.083 148.584 109.207 148.731 109.455C148.878 109.704 148.951 109.885 148.951 109.997C148.951 110.257 148.597 110.525 147.89 110.802C147.183 111.079 146.365 111.217 145.438 111.217C143.57 111.217 142.192 110.729 141.304 109.752C140.415 108.775 139.971 107.253 139.971 105.187L139.972 105.186ZM151.158 110.776V99.5959C151.158 99.3472 151.385 99.2232 151.837 99.2232H151.973C152.426 99.2232 152.652 99.3476 152.652 99.5959V104.78H152.72L156.896 99.4602C157.021 99.3022 157.326 99.2232 157.813 99.2232H157.982C158.378 99.2232 158.576 99.2968 158.576 99.4434C158.576 99.5451 158.52 99.6576 158.407 99.782L154.163 105.067L159.306 110.641C159.408 110.754 159.459 110.844 159.459 110.912C159.459 111.069 159.21 111.149 158.712 111.149H158.508C158.022 111.149 157.711 111.075 157.575 110.929L152.72 105.474H152.652V110.776C152.652 111.025 152.426 111.149 151.973 111.149H151.837C151.385 111.149 151.158 111.025 151.158 110.776ZM165.01 110.607V99.5964C165.01 99.3476 165.237 99.2237 165.689 99.2237H165.825C166.277 99.2237 166.504 99.3481 166.504 99.5964V109.828H171.172C171.399 109.828 171.512 109.997 171.512 110.336V110.607C171.512 110.946 171.398 111.116 171.172 111.116H165.52C165.18 111.116 165.01 110.946 165.01 110.607V110.607ZM173.888 109.667C172.994 108.634 172.547 107.129 172.547 105.153C172.547 103.176 172.992 101.683 173.88 100.672C174.768 99.6613 176.067 99.1561 177.776 99.1561C179.485 99.1561 180.786 99.6613 181.68 100.672C182.574 101.683 183.021 103.176 183.021 105.153C183.021 107.129 182.574 108.634 181.68 109.667C180.786 110.7 179.488 111.217 177.784 111.217C176.081 111.217 174.782 110.7 173.888 109.667ZM175.034 108.71C175.662 109.523 176.576 109.929 177.775 109.929C178.975 109.929 179.891 109.523 180.526 108.71C181.159 107.897 181.476 106.714 181.476 105.161C181.476 103.608 181.16 102.434 180.526 101.637C179.892 100.841 178.975 100.443 177.775 100.443C176.576 100.443 175.662 100.841 175.034 101.637C174.406 102.433 174.092 103.608 174.092 105.161C174.092 106.714 174.406 107.897 175.034 108.71ZM184.192 110.861C184.192 110.805 184.209 110.726 184.243 110.624L188.266 99.4947C188.323 99.314 188.549 99.2237 188.946 99.2237H189.438C189.833 99.2237 190.06 99.314 190.117 99.4947L194.14 110.641C194.174 110.72 194.191 110.793 194.191 110.861C194.191 111.053 193.947 111.149 193.46 111.149H193.325C192.929 111.149 192.702 111.059 192.646 110.878L191.644 108.1H186.653L185.686 110.878C185.629 111.059 185.403 111.149 185.006 111.149H184.921C184.435 111.149 184.191 111.053 184.191 110.861H184.192ZM187.129 106.813H191.186L189.404 101.765L189.183 100.782L188.911 101.765L187.129 106.813ZM195.922 110.777V99.5964C195.922 99.3476 196.148 99.2237 196.601 99.2237H196.957C197.274 99.2237 197.512 99.3313 197.67 99.5455L203.085 107.711L203.595 108.659V99.5964C203.595 99.3476 203.821 99.2237 204.274 99.2237H204.393C204.845 99.2237 205.072 99.3481 205.072 99.5964V110.777C205.072 111.025 204.845 111.149 204.393 111.149H204.053C203.759 111.149 203.561 111.07 203.459 110.912L197.858 102.476L197.399 101.612V110.776C197.399 111.025 197.173 111.149 196.72 111.149H196.601C196.149 111.149 195.922 111.025 195.922 110.776L195.922 110.777ZM211.301 109.981C211.301 109.845 211.377 109.659 211.53 109.422C211.683 109.185 211.805 109.066 211.895 109.066C211.929 109.066 212.071 109.137 212.319 109.278C212.568 109.419 212.919 109.563 213.372 109.71C213.824 109.857 214.342 109.93 214.925 109.93C215.508 109.93 216.006 109.744 216.419 109.371C216.832 108.999 217.038 108.524 217.038 107.948C217.038 107.372 216.848 106.915 216.47 106.576C216.091 106.238 215.632 105.969 215.095 105.772C214.557 105.574 214.017 105.362 213.473 105.136C212.93 104.91 212.469 104.56 212.09 104.086C211.711 103.612 211.522 103.008 211.522 102.274C211.522 101.336 211.867 100.582 212.557 100.012C213.247 99.442 214.158 99.1565 215.29 99.1565C215.845 99.1565 216.439 99.2582 217.073 99.4615C217.706 99.6649 218.023 99.9077 218.023 100.19C218.023 100.314 217.952 100.495 217.811 100.732C217.67 100.969 217.559 101.088 217.48 101.088C217.434 101.088 217.316 101.032 217.123 100.919C216.546 100.602 215.924 100.444 215.256 100.444C214.588 100.444 214.057 100.605 213.66 100.927C213.264 101.249 213.066 101.721 213.066 102.342C213.066 102.963 213.434 103.448 214.17 103.798C214.487 103.945 214.843 104.089 215.239 104.23C215.635 104.372 216.028 104.535 216.419 104.721C216.81 104.908 217.166 105.125 217.488 105.374C217.811 105.622 218.074 105.961 218.278 106.39C218.481 106.819 218.583 107.316 218.583 107.881C218.583 108.92 218.244 109.735 217.565 110.329C216.886 110.922 216.026 111.218 214.984 111.218C213.943 111.218 213.069 111.077 212.362 110.794C211.655 110.512 211.301 110.241 211.301 109.981V109.981ZM221.469 109.667C220.575 108.634 220.128 107.129 220.128 105.153C220.128 103.176 220.573 101.683 221.461 100.672C222.35 99.6613 223.648 99.1561 225.357 99.1561C227.066 99.1561 228.367 99.6613 229.262 100.672C230.155 101.683 230.603 103.176 230.603 105.153C230.603 107.129 230.155 108.634 229.262 109.667C228.367 110.7 227.069 111.217 225.366 111.217C223.663 111.217 222.364 110.7 221.47 109.667H221.469ZM222.615 108.71C223.243 109.523 224.157 109.929 225.357 109.929C226.556 109.929 227.473 109.523 228.107 108.71C228.74 107.897 229.057 106.714 229.057 105.161C229.057 103.608 228.741 102.434 228.107 101.637C227.473 100.841 226.556 100.443 225.357 100.443C224.157 100.443 223.243 100.841 222.615 101.637C221.987 102.433 221.673 103.608 221.673 105.161C221.673 106.714 221.988 107.897 222.615 108.71ZM233.216 110.607V99.5964C233.216 99.3476 233.443 99.2237 233.895 99.2237H234.031C234.483 99.2237 234.71 99.3481 234.71 99.5964V109.828H239.378C239.605 109.828 239.718 109.997 239.718 110.336V110.607C239.718 110.946 239.604 111.116 239.378 111.116H233.726C233.386 111.116 233.216 110.946 233.216 110.607V110.607ZM241.194 107.321V99.5964C241.194 99.3476 241.421 99.2237 241.874 99.2237H242.009C242.462 99.2237 242.688 99.3481 242.688 99.5964V107.372C242.688 108.117 242.985 108.73 243.579 109.21C244.173 109.69 244.923 109.93 245.828 109.93C246.734 109.93 247.483 109.69 248.077 109.21C248.671 108.73 248.968 108.117 248.968 107.372V99.5964C248.968 99.3476 249.195 99.2237 249.648 99.2237H249.783C250.236 99.2237 250.462 99.3481 250.462 99.5964V107.321C250.462 108.552 250.061 109.508 249.257 110.192C248.454 110.875 247.308 111.217 245.819 111.217C244.332 111.217 243.189 110.875 242.391 110.192C241.593 109.508 241.194 108.552 241.194 107.321H241.194ZM255.81 110.776V100.545H252.551C252.324 100.545 252.212 100.375 252.212 100.036V99.7652C252.212 99.4266 252.325 99.2568 252.551 99.2568H260.512C260.739 99.2568 260.852 99.4261 260.852 99.7652V100.036C260.852 100.375 260.739 100.545 260.512 100.545H257.304V110.776C257.304 111.025 257.077 111.149 256.625 111.149H256.489C256.037 111.149 255.81 111.025 255.81 110.776ZM262.838 110.776V99.5959C262.838 99.3472 263.064 99.2232 263.517 99.2232H263.652C264.105 99.2232 264.331 99.3476 264.331 99.5959V110.776C264.331 111.025 264.105 111.149 263.652 111.149H263.517C263.064 111.149 262.838 111.025 262.838 110.776ZM268.287 109.667C267.393 108.634 266.946 107.129 266.946 105.153C266.946 103.176 267.39 101.683 268.279 100.672C269.167 99.6613 270.466 99.1561 272.175 99.1561C273.884 99.1561 275.185 99.6613 276.079 100.672C276.973 101.683 277.42 103.176 277.42 105.153C277.42 107.129 276.973 108.634 276.079 109.667C275.185 110.7 273.887 111.217 272.183 111.217C270.48 111.217 269.181 110.7 268.287 109.667H268.287ZM269.433 108.71C270.061 109.523 270.975 109.929 272.174 109.929C273.374 109.929 274.291 109.523 274.924 108.71C275.558 107.897 275.875 106.714 275.875 105.161C275.875 103.608 275.558 102.434 274.924 101.637C274.291 100.841 273.374 100.443 272.174 100.443C270.975 100.443 270.061 100.841 269.433 101.637C268.805 102.433 268.491 103.608 268.491 105.161C268.491 106.714 268.805 107.897 269.433 108.71ZM279.915 110.776V99.5959C279.915 99.3472 280.141 99.2232 280.594 99.2232H280.951C281.267 99.2232 281.505 99.3308 281.663 99.5451L287.079 107.71L287.588 108.659V99.5959C287.588 99.3472 287.815 99.2232 288.267 99.2232H288.386C288.838 99.2232 289.065 99.3476 289.065 99.5959V110.776C289.065 111.025 288.838 111.149 288.386 111.149H288.047C287.752 111.149 287.554 111.07 287.452 110.912L281.851 102.476L281.392 101.611V110.776C281.392 111.024 281.166 111.148 280.713 111.148H280.595C280.142 111.148 279.915 111.024 279.915 110.776L279.915 110.776ZM291.221 109.98C291.221 109.845 291.297 109.658 291.45 109.421C291.603 109.184 291.725 109.065 291.815 109.065C291.849 109.065 291.99 109.136 292.239 109.277C292.488 109.419 292.839 109.562 293.292 109.71C293.744 109.857 294.262 109.93 294.845 109.93C295.428 109.93 295.926 109.744 296.339 109.371C296.752 108.998 296.958 108.524 296.958 107.948C296.958 107.372 296.768 106.914 296.39 106.576C296.011 106.237 295.552 105.969 295.015 105.771C294.477 105.574 293.937 105.362 293.393 105.136C292.85 104.91 292.389 104.56 292.01 104.086C291.631 103.611 291.441 103.007 291.441 102.273C291.441 101.336 291.786 100.582 292.476 100.012C293.167 99.4416 294.078 99.1561 295.21 99.1561C295.764 99.1561 296.358 99.2577 296.992 99.4611C297.626 99.6644 297.943 99.9073 297.943 100.19C297.943 100.314 297.872 100.495 297.731 100.732C297.589 100.969 297.479 101.087 297.399 101.087C297.354 101.087 297.235 101.031 297.043 100.918C296.466 100.602 295.843 100.444 295.176 100.444C294.508 100.444 293.976 100.605 293.58 100.927C293.184 101.249 292.986 101.72 292.986 102.341C292.986 102.963 293.354 103.448 294.089 103.798C294.406 103.945 294.763 104.089 295.159 104.23C295.555 104.371 295.948 104.535 296.339 104.721C296.729 104.907 297.086 105.125 297.408 105.373C297.731 105.622 297.994 105.961 298.197 106.39C298.401 106.819 298.503 107.316 298.503 107.88C298.503 108.919 298.164 109.735 297.484 110.328C296.805 110.921 295.945 111.217 294.904 111.217C293.863 111.217 292.989 111.076 292.281 110.794C291.574 110.512 291.22 110.241 291.22 109.981L291.221 109.98Z" fill="black"/>
<path d="M110.689 87.6398V58.3837C110.689 57.1254 111.32 56.4963 112.581 56.4963H121.943C125.789 56.4963 128.611 57.2357 130.407 58.7141C132.204 60.1925 133.103 62.2374 133.103 64.8483C133.103 66.4211 132.622 67.8605 131.66 69.1659C130.699 70.4714 129.477 71.4232 127.996 72.0206L128.043 72.2094C129.903 72.5866 131.432 73.5149 132.63 74.9933C133.828 76.4717 134.426 78.1235 134.426 79.9477C134.426 83.0307 133.441 85.3979 131.471 87.0492C129.501 88.701 126.545 89.5267 122.605 89.5267H112.58C111.319 89.5267 110.689 88.8975 110.689 87.6393L110.689 87.6398ZM117.971 69.6616H121.234C122.621 69.6616 123.701 69.3312 124.473 68.6707C125.245 68.0098 125.632 67.1605 125.632 66.1224C125.632 63.7943 124.197 62.6305 121.329 62.6305H117.971V69.6611V69.6616ZM117.971 83.3457H122.605C123.993 83.3457 125.064 83.0153 125.821 82.3548C126.577 81.6939 126.956 80.7503 126.956 79.5238C126.956 77.0699 125.253 75.843 121.849 75.843H117.971V83.3457ZM138.588 78.4857V57.9121C138.588 56.9053 139.534 56.4023 141.425 56.4023H143.032C144.924 56.4023 145.87 56.9057 145.87 57.9121V78.0136C145.87 79.6808 146.469 81.0494 147.666 82.1188C148.864 83.1882 150.409 83.7229 152.3 83.7229C154.191 83.7229 155.744 83.1882 156.958 82.1188C158.171 81.0489 158.778 79.6808 158.778 78.0136V57.9121C158.778 56.9053 159.724 56.4023 161.615 56.4023H163.176C165.067 56.4023 166.013 56.9057 166.013 57.9121V78.4857C166.013 82.1034 164.815 84.9113 162.419 86.9085C160.023 88.9062 156.65 89.9048 152.3 89.9048C147.95 89.9048 144.577 88.9062 142.181 86.9085C139.786 84.9113 138.587 82.1034 138.587 78.4857H138.588ZM172.397 87.6398V58.3837C172.397 57.1254 173.028 56.4963 174.289 56.4963H184.88C189.767 56.4963 193.51 57.9198 196.111 60.7667C198.711 63.6137 200.012 67.6952 200.012 73.0115C200.012 78.3277 198.711 82.4098 196.111 85.2563C193.51 88.1032 189.767 89.5267 184.88 89.5267H174.289C173.028 89.5267 172.397 88.8975 172.397 87.6393V87.6398ZM179.726 83.3457H184.88C187.402 83.3457 189.309 82.4647 190.602 80.703C191.895 78.9414 192.541 76.3773 192.541 73.0115C192.541 69.6457 191.895 67.0816 190.602 65.3199C189.31 63.5583 187.402 62.6777 184.88 62.6777H179.726V83.3457ZM205.261 87.6398V58.3837C205.261 57.1254 205.891 56.4963 207.152 56.4963H217.744C222.63 56.4963 226.373 57.9198 228.974 60.7667C231.575 63.6137 232.875 67.6952 232.875 73.0115C232.875 78.3277 231.575 82.4098 228.974 85.2563C226.373 88.1032 222.63 89.5267 217.744 89.5267H207.152C205.891 89.5267 205.261 88.8975 205.261 87.6393V87.6398ZM212.59 83.3457H217.744C220.266 83.3457 222.173 82.4647 223.465 80.703C224.758 78.9414 225.404 76.3773 225.404 73.0115C225.404 69.6457 224.758 67.0816 223.465 65.3199C222.173 63.5583 220.266 62.6777 217.744 62.6777H212.59V83.3457ZM238.833 88.1114V57.9116C238.833 56.9048 239.779 56.4019 241.67 56.4019H243.325C245.217 56.4019 246.163 56.9053 246.163 57.9116V69.5672H258.93V57.9116C258.93 56.9048 259.875 56.4019 261.767 56.4019H263.422C265.313 56.4019 266.259 56.9053 266.259 57.9116V88.1114C266.259 89.1182 265.313 89.6215 263.422 89.6215H261.767C259.875 89.6215 258.93 89.1182 258.93 88.1114V75.7958H246.163V88.1114C246.163 89.1182 245.217 89.6215 243.325 89.6215H241.67C239.779 89.6215 238.833 89.1182 238.833 88.1114ZM269.522 88.5834C269.522 88.4577 269.585 88.1745 269.711 87.7342L280.113 57.3928C280.365 56.7319 281.264 56.4019 282.809 56.4019H285.268C286.813 56.4019 287.711 56.7323 287.963 57.3928L298.366 87.7342C298.461 88.0487 298.508 88.332 298.508 88.5834C298.508 89.2757 297.72 89.6215 296.144 89.6215H294.063C292.518 89.6215 291.636 89.2911 291.415 88.6307L289.524 82.8741H278.365L276.473 88.6307C276.253 89.2915 275.528 89.6215 274.298 89.6215H272.407C270.484 89.6215 269.522 89.2757 269.522 88.5834H269.522ZM280.397 76.6451H287.49L284.795 68.2458L284.086 65.226H283.897C283.613 66.7044 283.377 67.7111 283.187 68.2458L280.398 76.6451H280.397Z" fill="#003559"/>
<path fill-rule="evenodd" clip-rule="evenodd" d="M55.6353 48.3151C62.5701 48.3151 68.1922 53.9255 68.1922 60.8458C68.1922 67.7662 62.5701 73.377 55.6353 73.377C48.7005 73.377 43.0784 67.7667 43.0784 60.8458C43.0784 53.9255 48.7005 48.3151 55.6353 48.3151ZM46.1296 60.8458C46.1296 61.2167 45.828 61.5172 45.4568 61.5172C45.0852 61.5172 44.7841 61.2167 44.7841 60.8458C44.7841 57.8564 45.9986 55.1483 47.9627 53.1892C49.9258 51.2297 52.6391 50.0173 55.6353 50.0173C56.0069 50.0173 56.308 50.3178 56.308 50.6886C56.308 51.0595 56.0069 51.36 55.6353 51.36C53.0098 51.36 50.6332 52.4217 48.9133 54.1384C47.1935 55.8546 46.1291 58.2268 46.1291 60.8463L46.1296 60.8458Z" fill="#FFBA07"/>
<path d="M59.941 55.2766L59.0591 56.5744H57.226C57.4125 56.7845 57.5689 57.0278 57.6926 57.2979C57.8159 57.5684 57.9032 57.8807 57.9574 58.2321H59.941L59.0591 59.5298H57.9574C57.8882 59.956 57.7468 60.3496 57.5389 60.71C57.331 61.0704 57.0545 61.38 56.7142 61.641C56.374 61.9024 55.9705 62.1035 55.5043 62.2506C55.0349 62.3976 54.5113 62.4698 53.93 62.4698L59.2933 68.1796H56.9458L51.7631 62.611V61.3132H53.0603C53.4665 61.3132 53.8427 61.2742 54.192 61.1993C54.5382 61.1239 54.8484 61.01 55.119 60.857C55.3897 60.7036 55.6158 60.5175 55.7931 60.2983C55.9737 60.079 56.1002 59.8239 56.1693 59.5293H51.3296L52.2116 58.2316H56.1602C56.0247 57.7273 55.7358 57.3247 55.2933 57.0242C54.8475 56.7237 54.2457 56.5735 53.4815 56.5735H51.3296L52.2116 55.2757H59.941V55.2766Z" fill="#003559"/>
</g>
<defs>
<clipPath id="clip0_417_575">
<rect width="300" height="121.528" fill="white"/>
</clipPath>
</defs>
</svg>
