<svg width="59" height="106" viewBox="0 0 59 106" fill="none" xmlns="http://www.w3.org/2000/svg">
<path d="M3.43642 2.37821C3.03375 2.4753 2.78602 2.88044 2.88311 3.28312C2.9802 3.68579 3.38534 3.93351 3.78802 3.83642L3.43642 2.37821ZM32.6124 3.10729L32.343 3.80724L32.6124 3.10729ZM56.1124 25.6073L56.8041 25.3175L56.1124 25.6073ZM50.6124 57.1073L50.0641 56.5956L50.6124 57.1073ZM8.61239 64.6073L8.85265 63.8968L8.61239 64.6073ZM1.61239 50.1073L2.3425 50.2789L1.61239 50.1073ZM18.1124 42.1073L18.4165 41.4217L18.1124 42.1073ZM27.0715 72.1905L27.8133 72.3015L27.0715 72.1905ZM6.70722 105.18L15.3569 104.751L10.6608 97.4748L6.70722 105.18ZM7.33529 3.12887C7.74338 3.0579 8.01667 2.66955 7.9457 2.26146C7.87473 1.85337 7.48638 1.58008 7.07829 1.65105L7.33529 3.12887ZM14.4191 0.698557C14.0063 0.733435 13.7 1.0963 13.7349 1.50905C13.7697 1.92179 14.1326 2.22811 14.5454 2.19323L14.4191 0.698557ZM21.794 1.97166C22.208 1.98437 22.5539 1.65904 22.5666 1.24502C22.5793 0.831005 22.254 0.485076 21.84 0.47237L21.794 1.97166ZM29.2605 1.33305C28.8561 1.24351 28.4556 1.49876 28.3661 1.90318C28.2765 2.3076 28.5318 2.70804 28.9362 2.79758L29.2605 1.33305ZM34.8964 4.85822C35.2755 5.0252 35.7181 4.85327 35.8851 4.47421C36.0521 4.09515 35.8802 3.65249 35.5011 3.48551L34.8964 4.85822ZM40.5593 6.06926C40.203 5.85813 39.7429 5.97588 39.5318 6.33225C39.3207 6.68862 39.4384 7.14866 39.7948 7.35979L40.5593 6.06926ZM44.2952 10.4828C44.6168 10.7439 45.0891 10.6949 45.3502 10.3734C45.6113 10.0518 45.5623 9.57949 45.2408 9.31839L44.2952 10.4828ZM49.3721 13.2541C49.0957 12.9455 48.6216 12.9194 48.313 13.1957C48.0044 13.4721 47.9783 13.9462 48.2547 14.2548L49.3721 13.2541ZM51.5865 18.6017C51.8136 18.9481 52.2785 19.0448 52.6249 18.8176C52.9713 18.5905 53.0679 18.1256 52.8408 17.7792L51.5865 18.6017ZM55.6362 22.7285C55.4554 22.3559 55.0067 22.2004 54.634 22.3813C54.2614 22.5621 54.1059 23.0108 54.2868 23.3835L55.6362 22.7285ZM56.3159 28.45C56.4303 28.8481 56.8458 29.0781 57.2439 28.9637C57.642 28.8493 57.872 28.4338 57.7576 28.0357L56.3159 28.45ZM58.7576 33.68C58.7258 33.267 58.3651 32.9581 57.9521 32.9899C57.5392 33.0218 57.2302 33.3825 57.2621 33.7954L58.7576 33.68ZM57.2014 39.2489C57.1619 39.6612 57.4641 40.0275 57.8764 40.067C58.2888 40.1065 58.655 39.8043 58.6946 39.3919L57.2014 39.2489ZM57.6987 45.0075C57.8031 44.6066 57.5628 44.1971 57.162 44.0927C56.7611 43.9882 56.3516 44.2286 56.2471 44.6294L57.6987 45.0075ZM54.4463 49.7842C54.2772 50.1624 54.4467 50.606 54.8248 50.7751C55.2029 50.9441 55.6465 50.7747 55.8156 50.3965L54.4463 49.7842ZM52.9866 55.3792C53.2278 55.0424 53.1502 54.5739 52.8135 54.3327C52.4767 54.0916 52.0082 54.1691 51.767 54.5059L52.9866 55.3792ZM48.102 58.4816C47.7885 58.7523 47.7538 59.2259 48.0245 59.5394C48.2951 59.853 48.7687 59.8877 49.0823 59.617L48.102 58.4816ZM44.3772 62.9147C44.7377 62.7107 44.8646 62.2531 44.6606 61.8926C44.4566 61.5321 43.999 61.4052 43.6385 61.6092L44.3772 62.9147ZM38.6588 63.8831C38.2692 64.0238 38.0675 64.4537 38.2082 64.8433C38.3489 65.2329 38.7788 65.4346 39.1684 65.2939L38.6588 63.8831ZM33.6719 66.8365C34.0775 66.7525 34.3382 66.3556 34.2542 65.9499C34.1702 65.5443 33.7732 65.2836 33.3676 65.3677L33.6719 66.8365ZM27.9119 66.1427C27.499 66.176 27.1913 66.5377 27.2246 66.9506C27.2579 67.3635 27.6196 67.6712 28.0325 67.6379L27.9119 66.1427ZM22.345 67.7711C22.759 67.7846 23.1056 67.4599 23.119 67.0459C23.1325 66.6319 22.8078 66.2854 22.3938 66.2719L22.345 67.7711ZM16.8931 65.7891C16.4831 65.7302 16.1029 66.0147 16.0439 66.4247C15.9849 66.8347 16.2695 67.2149 16.6795 67.2739L16.8931 65.7891ZM11.1019 66.1403C11.5022 66.2469 11.9131 66.0089 12.0197 65.6086C12.1263 65.2084 11.8883 64.7975 11.488 64.6908L11.1019 66.1403ZM5.3647 61.803C5.06272 61.5195 4.58808 61.5345 4.30457 61.8365C4.02105 62.1384 4.03602 62.6131 4.33799 62.8966L5.3647 61.803ZM0.505469 54.5521C0.53624 54.9652 0.896043 55.2751 1.30911 55.2444C1.72218 55.2136 2.0321 54.8538 2.00132 54.4407L0.505469 54.5521ZM3.18202 48.0655C3.37804 47.7006 3.24112 47.2459 2.87622 47.0499C2.51132 46.8539 2.05661 46.9908 1.8606 47.3557L3.18202 48.0655ZM5.48183 43.3047C5.1456 43.5466 5.06915 44.0153 5.31107 44.3515C5.55299 44.6877 6.02166 44.7642 6.35789 44.5223L5.48183 43.3047ZM10.7421 42.4749C11.1428 42.3696 11.3822 41.9595 11.2769 41.5589C11.1716 41.1583 10.7616 40.9188 10.3609 41.0241L10.7421 42.4749ZM15.7551 40.6697C15.3452 40.6101 14.9646 40.894 14.905 41.3039C14.8453 41.7138 15.1293 42.0944 15.5392 42.1541L15.7551 40.6697ZM20.0229 44.1278C20.3488 44.3834 20.8203 44.3264 21.0758 44.0004C21.3314 43.6744 21.2744 43.203 20.9484 42.9474L20.0229 44.1278ZM24.6755 47.4031C24.4713 47.0427 24.0136 46.9161 23.6532 47.1203C23.2928 47.3245 23.1662 47.7821 23.3704 48.1425L24.6755 47.4031ZM25.3957 53.1115C25.5098 53.5097 25.9251 53.7401 26.3233 53.626C26.7215 53.5119 26.9518 53.0966 26.8377 52.6984L25.3957 53.1115ZM27.9557 58.2507C27.9029 57.8398 27.5271 57.5495 27.1163 57.6022C26.7055 57.6549 26.4151 58.0307 26.4679 58.4416L27.9557 58.2507ZM26.8468 63.897C26.853 64.3112 27.1938 64.6419 27.6079 64.6357C28.0221 64.6295 28.3528 64.2887 28.3466 63.8745L26.8468 63.897ZM28.1433 69.499C28.1798 69.0864 27.8748 68.7224 27.4622 68.6859C27.0496 68.6494 26.6856 68.9543 26.6491 69.3669L28.1433 69.499ZM25.753 75.3313C25.6695 75.737 25.9307 76.1337 26.3364 76.2172C26.7421 76.3007 27.1387 76.0396 27.2222 75.6339L25.753 75.3313ZM25.4724 82.1758C25.6035 81.7829 25.3912 81.3581 24.9983 81.2271C24.6053 81.096 24.1805 81.3083 24.0495 81.7012L25.4724 82.1758ZM21.5614 87.7941C21.3789 88.1659 21.5324 88.6153 21.9042 88.7978C22.276 88.9803 22.7254 88.8269 22.9079 88.455L21.5614 87.7941ZM19.4682 94.3143C19.7049 93.9744 19.6212 93.5069 19.2813 93.2702C18.9414 93.0335 18.4739 93.1172 18.2372 93.4571L19.4682 94.3143ZM14.0606 98.507C13.7704 98.8026 13.7748 99.2774 14.0704 99.5676C14.366 99.8578 14.8408 99.8534 15.131 99.5578L14.0606 98.507ZM9.95072 103.978C10.2884 103.739 10.3678 103.27 10.1279 102.933C9.88808 102.595 9.41988 102.516 9.08217 102.755L9.95072 103.978ZM3.61222 3.10732C3.78802 3.83642 3.78799 3.83643 3.78796 3.83644C3.78796 3.83644 3.78794 3.83644 3.78793 3.83644C3.78793 3.83645 3.78794 3.83644 3.78797 3.83643C3.78804 3.83642 3.7882 3.83638 3.78843 3.83632C3.7889 3.83621 3.78971 3.83602 3.79084 3.83575C3.79311 3.8352 3.7967 3.83435 3.8016 3.83318C3.81139 3.83085 3.82641 3.8273 3.84652 3.82259C3.88675 3.81317 3.94735 3.79913 4.02731 3.78099C4.18723 3.74471 4.42456 3.69208 4.73112 3.62738C5.34431 3.49797 6.23411 3.32037 7.33529 3.12887L7.07829 1.65105C5.95745 1.84597 5.04996 2.02705 4.42137 2.15971C4.10704 2.22605 3.86235 2.2803 3.69549 2.31815C3.61205 2.33708 3.54807 2.35191 3.50455 2.36209C3.48279 2.36719 3.46615 2.37112 3.45475 2.37383C3.44905 2.37519 3.44467 2.37624 3.44161 2.37697C3.44008 2.37733 3.43888 2.37762 3.43801 2.37783C3.43758 2.37793 3.43723 2.37802 3.43697 2.37808C3.43683 2.37811 3.43672 2.37814 3.43663 2.37816C3.43659 2.37817 3.43653 2.37819 3.43651 2.37819C3.43646 2.3782 3.43642 2.37821 3.61222 3.10732ZM14.5454 2.19323C16.8323 1.99998 19.3076 1.89536 21.794 1.97166L21.84 0.47237C19.2835 0.39391 16.7491 0.501662 14.4191 0.698557L14.5454 2.19323ZM28.9362 2.79758C30.1268 3.06121 31.2697 3.39416 32.343 3.80724L32.8818 2.40734C31.7285 1.96346 30.5125 1.61028 29.2605 1.33305L28.9362 2.79758ZM32.343 3.80724C33.209 4.14058 34.0604 4.48994 34.8964 4.85822L35.5011 3.48551C34.6416 3.10688 33.7682 2.74851 32.8818 2.40734L32.343 3.80724ZM39.7948 7.35979C41.3648 8.28988 42.8666 9.32275 44.2952 10.4828L45.2408 9.31839C43.7507 8.10838 42.1877 7.03393 40.5593 6.06926L39.7948 7.35979ZM48.2547 14.2548C49.4306 15.5678 50.5428 17.0102 51.5865 18.6017L52.8408 17.7792C51.7568 16.1261 50.5989 14.624 49.3721 13.2541L48.2547 14.2548ZM54.2868 23.3835C54.6782 24.1899 55.0562 25.0272 55.4206 25.8971L56.8041 25.3175C56.4294 24.423 56.04 23.5605 55.6362 22.7285L54.2868 23.3835ZM55.4206 25.8971C55.7678 26.726 56.0656 27.5788 56.3159 28.45L57.7576 28.0357C57.4918 27.1109 57.1749 26.2028 56.8041 25.3175L55.4206 25.8971ZM57.2621 33.7954C57.4014 35.6008 57.3754 37.4326 57.2014 39.2489L58.6946 39.3919C58.8763 37.4952 58.904 35.5767 58.7576 33.68L57.2621 33.7954ZM56.2471 44.6294C55.7781 46.4301 55.1707 48.1641 54.4463 49.7842L55.8156 50.3965C56.575 48.6983 57.2095 46.8858 57.6987 45.0075L56.2471 44.6294ZM51.767 54.5059C51.2272 55.2599 50.6581 55.9591 50.0641 56.5956L51.1607 57.619C51.8022 56.9316 52.412 56.1817 52.9866 55.3792L51.767 54.5059ZM50.0641 56.5956C49.4424 57.2617 48.7873 57.89 48.102 58.4816L49.0823 59.617C49.8073 58.9911 50.5014 58.3255 51.1607 57.619L50.0641 56.5956ZM43.6385 61.6092C42.0623 62.5011 40.3935 63.2564 38.6588 63.8831L39.1684 65.2939C40.976 64.6409 42.7222 63.8512 44.3772 62.9147L43.6385 61.6092ZM33.3676 65.3677C31.5758 65.7388 29.7486 65.9946 27.9119 66.1427L28.0325 67.6379C29.9273 67.485 31.816 67.2209 33.6719 66.8365L33.3676 65.3677ZM22.3938 66.2719C20.532 66.2113 18.6892 66.0475 16.8931 65.7891L16.6795 67.2739C18.53 67.54 20.4278 67.7087 22.345 67.7711L22.3938 66.2719ZM11.488 64.6908C10.5855 64.4504 9.70563 64.1853 8.85265 63.8968L8.37213 65.3178C9.2573 65.6171 10.1687 65.8917 11.1019 66.1403L11.488 64.6908ZM8.85265 63.8968C7.52716 63.4486 6.3524 62.7304 5.3647 61.803L4.33799 62.8966C5.47817 63.9671 6.83803 64.799 8.37213 65.3178L8.85265 63.8968ZM2.00132 54.4407C1.90226 53.1109 2.00634 51.7094 2.3425 50.2789L0.882274 49.9357C0.511914 51.5118 0.394803 53.0665 0.505469 54.5521L2.00132 54.4407ZM2.3425 50.2789C2.52768 49.4908 2.81318 48.7522 3.18202 48.0655L1.8606 47.3557C1.43182 48.154 1.09851 49.0155 0.882274 49.9357L2.3425 50.2789ZM6.35789 44.5223C7.67007 43.5781 9.18335 42.8844 10.7421 42.4749L10.3609 41.0241C8.63477 41.4777 6.95182 42.247 5.48183 43.3047L6.35789 44.5223ZM15.5392 42.1541C16.3492 42.2719 17.1135 42.4847 17.8083 42.7929L18.4165 41.4217C17.5836 41.0523 16.6855 40.805 15.7551 40.6697L15.5392 42.1541ZM17.8083 42.7929C18.6101 43.1485 19.3465 43.5975 20.0229 44.1278L20.9484 42.9474C20.1786 42.3438 19.3361 41.8296 18.4165 41.4217L17.8083 42.7929ZM23.3704 48.1425C24.2129 49.6295 24.8802 51.3122 25.3957 53.1115L26.8377 52.6984C26.297 50.8109 25.5882 49.0139 24.6755 47.4031L23.3704 48.1425ZM26.4679 58.4416C26.7016 60.2629 26.8199 62.1056 26.8468 63.897L28.3466 63.8745C28.319 62.0336 28.1974 60.1342 27.9557 58.2507L26.4679 58.4416ZM26.6491 69.3669C26.5643 70.3258 26.456 71.2353 26.3298 72.0796L27.8133 72.3015C27.9442 71.4258 28.056 70.4863 28.1433 69.499L26.6491 69.3669ZM26.3298 72.0796C26.1664 73.1722 25.9743 74.2569 25.753 75.3313L27.2222 75.6339C27.4491 74.5321 27.6459 73.4205 27.8133 72.3015L26.3298 72.0796ZM24.0495 81.7012C23.3489 83.8018 22.521 85.8392 21.5614 87.7941L22.9079 88.455C23.8988 86.4365 24.7518 84.3366 25.4724 82.1758L24.0495 81.7012ZM18.2372 93.4571C16.9873 95.2522 15.5967 96.9422 14.0606 98.507L15.131 99.5578C16.7285 97.9305 18.1723 96.1753 19.4682 94.3143L18.2372 93.4571Z" fill="black"/>
</svg>
