<svg width="92" height="94" viewBox="0 0 92 94" fill="none" xmlns="http://www.w3.org/2000/svg">
<ellipse cx="46" cy="46.631" rx="45.3707" ry="46.631" fill="#23A26D" fill-opacity="0.12"/>
<path d="M45.0268 16.9167C29.3903 16.9167 16.6484 30.1997 16.6484 46.5001C16.6484 62.8005 29.3903 76.0834 45.0268 76.0834C60.6633 76.0834 73.4052 62.8005 73.4052 46.5001C73.4052 30.1997 60.6633 16.9167 45.0268 16.9167ZM58.5917 39.6959L42.5011 56.4697C42.1038 56.8838 41.5647 57.1205 40.9971 57.1205C40.4295 57.1205 39.8903 56.8838 39.493 56.4697L31.4619 48.0976C30.639 47.2397 30.639 45.8197 31.4619 44.9617C32.2849 44.1038 33.6471 44.1038 34.4701 44.9617L40.9971 51.7659L55.5836 36.5601C56.4065 35.7022 57.7687 35.7022 58.5917 36.5601C59.4147 37.418 59.4147 38.8084 58.5917 39.6959Z" fill="#4DE400"/>
</svg>
