<svg width="227" height="298" viewBox="0 0 227 298" fill="none" xmlns="http://www.w3.org/2000/svg">
<g clip-path="url(#clip0_3725_2514)">
<path d="M167.028 229.248H87.6298C78.6972 229.248 71.4684 221.77 70.9668 212.666V16.8039C71.4684 7.47753 78.6972 0 87.6298 0H167.028C175.96 0 183.197 7.47753 183.197 16.6889V212.559C183.197 221.779 175.952 229.24 167.028 229.248Z" fill="#263238"/>
<path d="M167.028 3.83739H146.392C145.055 3.83739 143.916 4.84809 143.733 6.22034L143.645 6.88592C143.216 10.2549 140.429 12.7858 137.141 12.794H117.532C114.237 12.7776 111.458 10.2549 111.028 6.88592L110.949 6.22034C110.773 4.83987 109.627 3.80452 108.274 3.80452H87.6379C80.7593 3.77987 75.1626 9.51538 75.1387 16.6149C75.1387 16.6396 75.1387 16.6642 75.1387 16.6971V212.567C75.1387 219.667 80.7116 225.427 87.5981 225.427H166.996C173.874 225.427 179.455 219.675 179.463 212.567V16.6889C179.463 9.60577 173.906 3.86204 167.044 3.82917L167.028 3.83739Z" fill="#32D6D8"/>
<path opacity="0.7" d="M167.028 3.83739H146.392C145.055 3.83739 143.916 4.84809 143.733 6.22034L143.645 6.88592C143.216 10.2549 140.429 12.7858 137.141 12.794H117.532C114.237 12.7776 111.458 10.2549 111.028 6.88592L110.949 6.22034C110.773 4.83987 109.627 3.80452 108.274 3.80452H87.6379C80.7593 3.77987 75.1626 9.51538 75.1387 16.6149C75.1387 16.6396 75.1387 16.6642 75.1387 16.6971V212.567C75.1387 219.667 80.7116 225.427 87.5981 225.427H166.996C173.874 225.427 179.455 219.675 179.463 212.567V16.6889C179.463 9.60577 173.906 3.86204 167.044 3.82917L167.028 3.83739Z" fill="white"/>
<g opacity="0.7">
<path d="M122.524 5.9984C122.524 6.90228 121.823 7.6336 120.956 7.64181C120.08 7.64181 119.371 6.91871 119.363 6.02305C119.363 5.11917 120.064 4.38786 120.932 4.37964C120.932 4.37964 120.948 4.37964 120.956 4.37964C121.823 4.37964 122.524 5.10274 122.524 5.9984Z" fill="black"/>
<path d="M133.702 4.37964H128.296C127.428 4.37964 126.728 5.10274 126.728 5.9984C126.728 6.89406 127.428 7.61716 128.296 7.61716H133.702C134.569 7.61716 135.27 6.89406 135.27 5.9984C135.27 5.10274 134.569 4.37964 133.702 4.37964Z" fill="black"/>
</g>
<path d="M85.4883 11.0767H83.8164V12.8022H85.4883V11.0767Z" fill="#32D6D8"/>
<path d="M87.144 11.0767V12.8022H88.8159V11.0767V9.35107H87.144V11.0767Z" fill="#32D6D8"/>
<path d="M90.4878 7.63367V9.35103V11.0766V12.8022H92.1597V11.0766V9.35103V7.63367H90.4878Z" fill="#32D6D8"/>
<path d="M162.291 7.74866V9.00587H161.479V11.5367H162.291V12.7939H169.679V7.74866H162.291ZM165.587 11.5367H163.079V9.00587H165.531L165.587 11.5367Z" fill="#32D6D8"/>
<path d="M158.485 102.245H96.1643C95.4345 102.245 94.8428 102.856 94.8428 103.609V143.856C94.8428 144.609 95.4345 145.22 96.1643 145.22H158.485C159.215 145.22 159.807 144.609 159.807 143.856V103.609C159.807 102.856 159.215 102.245 158.485 102.245Z" fill="#32D6D8"/>
<path opacity="0.6" d="M114.961 110.791H105.328C104.422 110.791 103.688 111.549 103.688 112.483V120.602C103.688 121.537 104.422 122.295 105.328 122.295H114.961C115.867 122.295 116.601 121.537 116.601 120.602V112.483C116.601 111.549 115.867 110.791 114.961 110.791Z" fill="white"/>
<g opacity="0.3">
<path d="M103.688 131.062H112.087C113.042 131.062 113.042 129.534 112.087 129.534H103.688C102.732 129.534 102.732 131.062 103.688 131.062Z" fill="black"/>
</g>
<g opacity="0.3">
<path d="M116.617 131.062H125.016C125.971 131.062 125.971 129.534 125.016 129.534H116.617C115.662 129.534 115.662 131.062 116.617 131.062Z" fill="black"/>
</g>
<g opacity="0.3">
<path d="M129.538 131.062H137.937C138.892 131.062 138.892 129.534 137.937 129.534H129.538C128.582 129.534 128.582 131.062 129.538 131.062Z" fill="black"/>
</g>
<g opacity="0.3">
<path d="M142.467 131.062H150.866C151.822 131.062 151.822 129.534 150.866 129.534H142.467C141.512 129.534 141.512 131.062 142.467 131.062Z" fill="black"/>
</g>
<path d="M145.93 26.2289H107.517C106.409 26.2289 105.511 27.156 105.511 28.2996V64.4957C105.511 65.6394 106.409 66.5664 107.517 66.5664H145.93C147.038 66.5664 147.936 65.6394 147.936 64.4957V28.2996C147.936 27.156 147.038 26.2289 145.93 26.2289Z" fill="#32D6D8"/>
<path d="M126.72 43.5505H111.928C111.466 43.5505 111.267 42.9506 111.633 42.6548L118.623 37.0343L126.425 30.7565C126.6 30.6168 126.847 30.6168 127.022 30.7565L134.824 37.0343L141.814 42.6548C142.181 42.9506 141.982 43.5505 141.52 43.5505H126.728H126.72Z" fill="#32D6D8"/>
<g opacity="0.7">
<path d="M126.72 43.5505H111.928C111.466 43.5505 111.267 42.9506 111.633 42.6548L118.623 37.0343L126.425 30.7565C126.6 30.6168 126.847 30.6168 127.022 30.7565L134.824 37.0343L141.814 42.6548C142.181 42.9506 141.982 43.5505 141.52 43.5505H126.728H126.72Z" fill="white"/>
</g>
<path d="M137.181 41.981H116.259C116.068 41.981 115.892 41.8577 115.829 41.6687C115.765 41.4797 115.829 41.2743 115.98 41.1511L126.441 32.7368C126.608 32.6053 126.831 32.6053 126.99 32.7368L137.452 41.1511C137.603 41.2743 137.667 41.4797 137.603 41.6687C137.539 41.8577 137.372 41.981 137.173 41.981H137.181ZM116.967 41.2661H136.464L126.712 33.427L116.959 41.2661H116.967Z" fill="#32D6D8"/>
<path d="M117.668 43.5504H114.841V56.0157H117.668V43.5504Z" fill="#32D6D8"/>
<g opacity="0.7">
<path d="M117.668 43.5504H114.841V56.0157H117.668V43.5504Z" fill="white"/>
</g>
<path d="M124.077 43.5504H121.25V56.0157H124.077V43.5504Z" fill="#32D6D8"/>
<g opacity="0.7">
<path d="M124.077 43.5504H121.25V56.0157H124.077V43.5504Z" fill="white"/>
</g>
<path d="M132.778 43.5504H129.952V56.0157H132.778V43.5504Z" fill="#32D6D8"/>
<g opacity="0.7">
<path d="M132.778 43.5504H129.952V56.0157H132.778V43.5504Z" fill="white"/>
</g>
<path d="M139.084 43.5504H136.257V56.0157H139.084V43.5504Z" fill="#32D6D8"/>
<g opacity="0.7">
<path d="M139.084 43.5504H136.257V56.0157H139.084V43.5504Z" fill="white"/>
</g>
<path d="M141.798 59.2286H111.641C111.211 59.2286 110.893 58.8096 110.996 58.374L111.45 56.5334C111.522 56.2294 111.792 56.0157 112.095 56.0157H141.225C141.512 56.0157 141.767 56.2047 141.854 56.4923L142.419 58.333C142.555 58.7767 142.236 59.2286 141.79 59.2286H141.798Z" fill="#32D6D8"/>
<g opacity="0.7">
<path d="M141.798 59.2286H111.641C111.211 59.2286 110.893 58.8096 110.996 58.374L111.45 56.5334C111.522 56.2294 111.792 56.0157 112.095 56.0157H141.225C141.512 56.0157 141.767 56.2047 141.854 56.4923L142.419 58.333C142.555 58.7767 142.236 59.2286 141.79 59.2286H141.798Z" fill="white"/>
</g>
<path d="M126.72 40.3458C125.589 40.3458 124.666 39.3927 124.666 38.2258C124.666 37.059 125.589 36.1058 126.72 36.1058C127.85 36.1058 128.774 37.059 128.774 38.2258C128.774 39.3927 127.85 40.3458 126.72 40.3458ZM126.72 36.8207C125.971 36.8207 125.358 37.4534 125.358 38.2258C125.358 38.9982 125.971 39.631 126.72 39.631C127.468 39.631 128.081 38.9982 128.081 38.2258C128.081 37.4534 127.468 36.8207 126.72 36.8207Z" fill="#32D6D8"/>
<path d="M140.74 43.5504H112.708C112.435 43.5504 112.214 43.7785 112.214 44.0599V44.8487C112.214 45.1301 112.435 45.3582 112.708 45.3582H140.74C141.012 45.3582 141.233 45.1301 141.233 44.8487V44.0599C141.233 43.7785 141.012 43.5504 140.74 43.5504Z" fill="#32D6D8"/>
<g opacity="0.7">
<path d="M140.74 43.5504H112.708C112.435 43.5504 112.214 43.7785 112.214 44.0599V44.8487C112.214 45.1301 112.435 45.3582 112.708 45.3582H140.74C141.012 45.3582 141.233 45.1301 141.233 44.8487V44.0599C141.233 43.7785 141.012 43.5504 140.74 43.5504Z" fill="white"/>
</g>
<path d="M140.588 44.0106H112.851C112.66 44.0106 112.501 43.8462 112.501 43.649C112.501 43.4518 112.66 43.2875 112.851 43.2875H140.588C140.779 43.2875 140.939 43.4518 140.939 43.649C140.939 43.8462 140.779 44.0106 140.588 44.0106Z" fill="#32D6D8"/>
<path d="M140.588 58.0372H112.851C112.66 58.0372 112.501 57.8728 112.501 57.6756C112.501 57.4784 112.66 57.3141 112.851 57.3141H140.588C140.779 57.3141 140.939 57.4784 140.939 57.6756C140.939 57.8728 140.779 58.0372 140.588 58.0372Z" fill="#32D6D8"/>
<path d="M152.172 73.6577H102.494V76.0324H152.172V73.6577Z" fill="#32D6D8"/>
<path d="M116.147 86.0737H91.2363V88.4485H116.147V86.0737Z" fill="#32D6D8"/>
<path d="M139.41 86.0737H121.242V88.4485H139.41V86.0737Z" fill="#32D6D8"/>
<path d="M162.736 86.0737H144.569V88.4485H162.736V86.0737Z" fill="#32D6D8"/>
<path opacity="0.3" d="M116.147 86.0737H91.2363V88.4485H116.147V86.0737Z" fill="black"/>
<path opacity="0.3" d="M139.41 86.0737H121.242V88.4485H139.41V86.0737Z" fill="black"/>
<path opacity="0.3" d="M162.736 86.0737H144.569V88.4485H162.736V86.0737Z" fill="black"/>
<path d="M100.368 167.135C102.342 167.135 103.943 165.483 103.943 163.446C103.943 161.408 102.342 159.756 100.368 159.756C98.3939 159.756 96.7935 161.408 96.7935 163.446C96.7935 165.483 98.3939 167.135 100.368 167.135Z" fill="#32D6D8"/>
<path d="M158.438 161.63H111.761V163.873H158.438V161.63Z" fill="#32D6D8"/>
<path d="M99.7709 181.844C101.745 181.844 103.346 180.192 103.346 178.154C103.346 176.116 101.745 174.465 99.7709 174.465C97.7967 174.465 96.1963 176.116 96.1963 178.154C96.1963 180.192 97.7967 181.844 99.7709 181.844Z" fill="#32D6D8"/>
<path d="M158.438 176.379H111.761V178.623H158.438V176.379Z" fill="#32D6D8"/>
<path d="M100.368 195.936C102.342 195.936 103.943 194.284 103.943 192.246C103.943 190.209 102.342 188.557 100.368 188.557C98.3939 188.557 96.7935 190.209 96.7935 192.246C96.7935 194.284 98.3939 195.936 100.368 195.936Z" fill="#32D6D8"/>
<path d="M158.438 191.121H111.761V193.364H158.438V191.121Z" fill="#32D6D8"/>
<path opacity="0.3" d="M158.438 161.63H111.761V163.873H158.438V161.63Z" fill="black"/>
<path opacity="0.3" d="M158.438 176.379H111.761V178.623H158.438V176.379Z" fill="black"/>
<path opacity="0.3" d="M158.438 191.121H111.761V193.364H158.438V191.121Z" fill="black"/>
<path opacity="0.2" d="M74.3105 175.648C74.3105 173.676 81.2289 148.006 96.4588 121.021C111.681 94.036 130.509 112.467 148.78 82.8526C167.052 53.2383 169.106 3.80444 169.106 3.80444H147.833C147.833 3.80444 143.797 59.1628 124.419 66.402C105.041 73.6413 74.3105 117.734 74.3105 117.734V175.648Z" fill="white"/>
<path opacity="0.2" d="M87.7095 225.747H100.169C100.169 225.747 169.209 124.102 179.455 105.828V86.123C170.045 108.966 87.7174 225.747 87.7174 225.747H87.7095Z" fill="white"/>
<path d="M175.379 80.8806C181.724 94.0115 196.548 99.6731 208.49 93.5267L212.741 91.341L189.773 43.7888L185.521 45.9746C173.58 52.1209 169.034 67.7498 175.379 80.8806Z" fill="#32D6D8"/>
<path opacity="0.3" d="M175.379 80.8806C181.724 94.0115 196.548 99.6731 208.49 93.5267L212.741 91.341L189.773 43.7888L185.521 45.9746C173.58 52.1209 169.034 67.7498 175.379 80.8806Z" fill="black"/>
<path d="M212.621 91.4032C225.374 84.9209 230.62 68.9959 224.34 55.8337C218.059 42.6715 202.63 37.2564 189.878 43.7387C177.125 50.221 171.878 66.146 178.159 79.3082C184.44 92.4704 199.869 97.8855 212.621 91.4032Z" fill="#32D6D8"/>
<path d="M182.807 77.0515C187.886 87.5611 200.258 91.8422 210.449 86.5997C220.631 81.3572 224.779 68.5879 219.7 58.0701C214.62 47.5605 202.248 43.2794 192.058 48.5219C181.876 53.7643 177.728 66.5337 182.807 77.0515Z" fill="#32D6D8"/>
<path opacity="0.3" d="M182.807 77.0515C187.886 87.5611 200.258 91.8422 210.449 86.5997C220.631 81.3572 224.779 68.5879 219.7 58.0701C214.62 47.5605 202.248 43.2794 192.058 48.5219C181.876 53.7643 177.728 66.5337 182.807 77.0515Z" fill="white"/>
<path d="M181.804 59.4916C186.127 48.4068 198.347 43.0411 209.087 47.5029C219.827 51.9648 225.026 64.578 220.703 75.6628C223.449 65.0957 218.123 54.0684 208.291 49.9845C197.551 45.5226 185.339 50.8883 181.008 61.9732C181.223 61.135 181.493 60.3051 181.812 59.4998L181.804 59.4916Z" fill="#32D6D8"/>
<path opacity="0.3" d="M181.804 59.4916C186.127 48.4068 198.347 43.0411 209.087 47.5029C219.827 51.9648 225.026 64.578 220.703 75.6628C223.449 65.0957 218.123 54.0684 208.291 49.9845C197.551 45.5226 185.339 50.8883 181.008 61.9732C181.223 61.135 181.493 60.3051 181.812 59.4998L181.804 59.4916Z" fill="black"/>
<path d="M4.37866 151.35C7.79405 158.425 15.7872 161.482 22.2279 158.17L24.5207 156.995L12.1409 131.366L9.84806 132.541C3.40739 135.853 0.963275 144.275 4.37866 151.358V151.35Z" fill="#32D6D8"/>
<path opacity="0.3" d="M4.37866 151.35C7.79405 158.425 15.7872 161.482 22.2279 158.17L24.5207 156.995L12.1409 131.366L9.84806 132.541C3.40739 135.853 0.963275 144.275 4.37866 151.358V151.35Z" fill="black"/>
<path d="M31.4867 148.721C29.0585 156.223 21.1928 160.266 13.9241 157.759C6.65548 155.253 2.73853 147.135 5.16672 139.633C7.59491 132.13 15.4607 128.088 22.7293 130.594C29.998 133.1 33.9149 141.218 31.4867 148.721Z" fill="#32D6D8"/>
<path d="M8.39103 149.288C11.1297 154.957 17.8013 157.258 23.2866 154.432C28.7799 151.605 31.009 144.719 28.2703 139.057C25.5317 133.396 18.8601 131.087 13.3748 133.914C7.88151 136.74 5.65235 143.626 8.39103 149.288Z" fill="#32D6D8"/>
<path opacity="0.3" d="M8.39103 149.288C11.1297 154.957 17.8013 157.258 23.2866 154.432C28.7799 151.605 31.009 144.719 28.2703 139.057C25.5317 133.396 18.8601 131.087 13.3748 133.914C7.88151 136.74 5.65235 143.626 8.39103 149.288Z" fill="white"/>
<path d="M7.84202 139.822C10.1747 133.848 16.7587 130.955 22.5465 133.363C28.3344 135.771 31.1367 142.566 28.8041 148.54C30.2849 142.845 27.4108 136.905 22.1166 134.694C16.3287 132.287 9.74476 135.179 7.41211 141.153C7.53153 140.701 7.67483 140.257 7.84202 139.822Z" fill="#32D6D8"/>
<path opacity="0.3" d="M7.84202 139.822C10.1747 133.848 16.7587 130.955 22.5465 133.363C28.3344 135.771 31.1367 142.566 28.8041 148.54C30.2849 142.845 27.4108 136.905 22.1166 134.694C16.3287 132.287 9.74476 135.179 7.41211 141.153C7.53153 140.701 7.67483 140.257 7.84202 139.822Z" fill="black"/>
<path d="M23.9395 16.3519C15.6439 12.2187 5.67634 15.8014 1.66386 24.3635C-2.34863 32.9257 1.13045 43.2135 9.4261 47.3549C15.827 50.5513 23.223 49.1215 28.1033 44.3721L33.095 44.824L31.5664 39.598C31.6062 39.5158 31.662 39.4336 31.7018 39.3515C35.7063 30.7893 32.2352 20.5015 23.9395 16.3601V16.3519Z" fill="#32D6D8"/>
<path d="M15.668 12.3995C21.0339 11.6107 26.7262 13.8293 30.261 18.0775" stroke="#32D6D8" stroke-linecap="round" stroke-linejoin="round"/>
<path d="M31.813 20.0825C32.3942 20.6906 32.8559 21.4137 33.1584 22.2107" stroke="#32D6D8" stroke-linecap="round" stroke-linejoin="round"/>
<path d="M16.7029 40.428L8.22412 33.9118L10.4294 30.8551L16.1138 35.2265L23.9238 25.6044L26.75 28.0531L16.7029 40.428Z" fill="white"/>
<path d="M52.2182 259.52L43.1821 261.015L50.5782 282.634L59.6222 281.147L52.2182 259.52Z" fill="#F2B269"/>
<path d="M47.2581 279.216L50.4506 277.909C51.175 277.614 51.9871 277.72 52.6479 278.148C55.4901 279.988 56.5011 278.443 57.56 275.173C58.7781 274.499 59.7016 275.863 59.9563 276.233L65.7999 284.228C66.2935 284.894 66.1741 285.847 65.5292 286.357C65.4178 286.447 65.2904 286.521 65.1551 286.57C61.2699 288.164 59.4389 288.912 54.6064 290.892L39.8302 296.948C35.8018 298.6 33.3577 294.754 34.8703 293.686C41.6772 288.928 46.0878 284.499 47.5288 281.311C47.8074 280.744 47.2501 280.629 47.2501 279.224L47.2581 279.216Z" fill="#263238"/>
<path d="M43.6678 284.228C44.6709 283.793 45.6183 283.242 46.5099 282.601C46.5895 282.527 46.5975 282.404 46.5259 282.322C46.486 282.281 46.4303 282.256 46.3746 282.256C45.8412 282.215 41.1042 281.927 40.3797 283.07C40.2444 283.275 40.2285 283.538 40.3399 283.76C40.5071 284.187 40.8654 284.499 41.2953 284.614C42.0994 284.754 42.9353 284.614 43.6598 284.228H43.6678ZM45.7855 282.609C44.6948 283.316 42.6169 284.516 41.4386 284.187C41.1281 284.089 40.8733 283.867 40.738 283.563C40.6823 283.472 40.6823 283.357 40.746 283.275C41.144 282.651 43.8349 282.535 45.7775 282.609H45.7855Z" fill="#32D6D8"/>
<path d="M46.4701 282.626C46.5178 282.626 46.5576 282.601 46.5974 282.577C46.6293 282.503 46.6213 282.42 46.5736 282.363C46.5099 282.19 44.01 278.517 41.9162 279.668C41.3987 279.964 41.351 280.3 41.4146 280.531C41.6933 281.664 44.9893 282.667 46.3904 282.692L46.4701 282.618V282.626ZM42.2585 279.898C43.6438 279.331 45.3634 281.369 46.0003 282.207C44.424 282.034 41.948 281.089 41.8047 280.383C41.7809 280.325 41.7251 280.177 42.1152 279.972L42.2585 279.898Z" fill="#32D6D8"/>
<path d="M49.4234 283.645C49.3677 283.645 49.312 283.628 49.2642 283.587C48.3646 282.905 47.1704 282.659 46.0797 282.938C45.9364 282.971 45.7851 282.881 45.7453 282.733C45.7135 282.585 45.801 282.429 45.9443 282.388C47.1863 282.067 48.5477 282.347 49.5826 283.127C49.7021 283.218 49.7339 283.398 49.6463 283.522C49.5906 283.596 49.511 283.637 49.4234 283.637V283.645Z" fill="#32D6D8"/>
<path d="M48.0303 286.003C47.9746 286.003 47.9189 285.987 47.8711 285.946C46.9715 285.264 45.7773 285.017 44.6866 285.297C44.5353 285.329 44.392 285.239 44.3522 285.091C44.3204 284.943 44.408 284.787 44.5513 284.746C45.7932 284.425 47.1546 284.705 48.1896 285.485C48.309 285.576 48.3408 285.757 48.2533 285.88C48.1975 285.954 48.1179 285.995 48.0303 285.995V286.003Z" fill="#32D6D8"/>
<path d="M46.064 288.312C46.0083 288.312 45.9526 288.296 45.9048 288.255C44.9972 287.573 43.811 287.326 42.7203 287.605C42.577 287.638 42.4257 287.548 42.3859 287.4C42.3541 287.252 42.4417 287.096 42.585 287.055C43.8269 286.734 45.1883 287.014 46.2233 287.794C46.3427 287.885 46.3745 288.066 46.2869 288.189C46.2312 288.263 46.1516 288.304 46.064 288.304V288.312Z" fill="#32D6D8"/>
<path opacity="0.3" d="M65.8081 284.22L59.9645 276.225C59.7018 275.863 58.7862 274.499 57.5761 275.165L52.2182 259.52L43.1821 261.007L49.1451 278.435L47.2583 279.208C47.2583 280.613 47.8156 280.728 47.5369 281.295C47.3936 281.607 47.2185 281.936 47.0195 282.273C46.8602 282.273 46.709 282.297 46.5497 282.314C46.295 281.886 43.9225 278.558 41.9163 279.668C41.3988 279.964 41.351 280.3 41.4147 280.531C41.5739 281.18 42.7283 281.788 43.9464 282.19C42.4576 282.223 40.7858 282.412 40.3797 283.061C40.2444 283.267 40.2285 283.53 40.3399 283.752C40.5071 284.179 40.8654 284.491 41.2953 284.606C42.0994 284.746 42.9353 284.606 43.6598 284.22C44.4718 283.867 45.2441 283.423 45.9845 282.93C46.0163 282.93 46.0402 282.955 46.0721 282.946C46.2552 282.897 46.4462 282.889 46.6373 282.872C46.2631 283.439 45.8173 284.031 45.2998 284.656C45.0451 284.672 44.7983 284.697 44.5515 284.754C44.4002 284.795 44.3126 284.943 44.3524 285.099C44.3922 285.247 44.5355 285.346 44.6868 285.305C44.7027 285.305 44.7266 285.305 44.7425 285.305C44.2489 285.855 43.7076 286.422 43.1184 286.997C42.9433 287.022 42.7602 287.022 42.585 287.071C42.4338 287.112 42.3462 287.26 42.386 287.416C42.4019 287.49 42.4497 287.548 42.5054 287.589C40.4753 289.504 37.9117 291.558 34.8705 293.686C33.3579 294.754 35.81 298.6 39.8304 296.948L54.6065 290.892C59.439 288.912 61.2701 288.164 65.1552 286.57C65.2906 286.521 65.418 286.447 65.5294 286.356C66.1743 285.847 66.2937 284.894 65.8001 284.228L65.8081 284.22ZM41.8048 280.391C41.7809 280.333 41.7252 280.185 42.1153 279.98L42.2586 279.906C43.6439 279.339 45.3635 281.377 46.0004 282.215C44.4241 282.043 41.9481 281.098 41.8048 280.391ZM41.4466 284.195C41.1361 284.097 40.8813 283.875 40.746 283.571C40.6902 283.481 40.6902 283.365 40.7539 283.283C41.1361 282.683 43.612 282.552 45.5307 282.609C45.6023 282.626 45.674 282.634 45.7456 282.642C44.647 283.357 42.6089 284.516 41.4466 284.195Z" fill="black"/>
<path d="M64.4149 265.962L55.355 264.647L56.2705 287.556L65.3384 288.871L64.4149 265.962Z" fill="#F2B269"/>
<path d="M54.0651 283.283L57.4964 283.004C58.2686 282.938 59.017 283.283 59.5265 283.891C61.7159 286.513 63.125 285.338 65.0676 282.544C66.421 282.264 66.9146 283.858 67.0579 284.278L70.3618 293.686C70.6484 294.475 70.2583 295.346 69.502 295.642C69.3666 295.691 69.2233 295.724 69.08 295.732C64.9163 296.077 62.9499 296.242 57.7671 296.669L41.9241 297.975C37.6011 298.329 36.3592 293.916 38.1107 293.349C45.9684 290.868 51.4458 287.967 53.7387 285.362C54.1686 284.902 53.667 284.631 54.0651 283.283Z" fill="#263238"/>
<path d="M49.2085 286.981C50.2912 286.866 51.3501 286.636 52.385 286.291C52.4806 286.25 52.5204 286.126 52.4806 286.028C52.4567 285.97 52.4089 285.937 52.3532 285.921C51.8516 285.716 47.4092 284.006 46.3902 284.877C46.1991 285.033 46.1115 285.28 46.1593 285.527C46.1991 285.987 46.4459 286.398 46.8281 286.636C47.5605 287.014 48.3885 287.137 49.2005 286.989L49.2085 286.981ZM51.6924 286.077C50.4504 286.422 48.1178 286.94 47.0908 286.274C46.8201 286.094 46.6449 285.798 46.5972 285.469C46.5653 285.37 46.6051 285.255 46.6848 285.198C47.242 284.721 49.8454 285.428 51.6844 286.085L51.6924 286.077Z" fill="#32D6D8"/>
<path d="M52.3456 286.307C52.3933 286.315 52.4331 286.307 52.4809 286.299C52.5366 286.241 52.5526 286.159 52.5207 286.085C52.5048 285.904 51.1593 281.632 48.8347 282.1C48.2614 282.231 48.1102 282.527 48.1102 282.774C48.0544 283.941 50.9205 285.904 52.25 286.348L52.3456 286.307ZM49.0974 282.429C50.5861 282.305 51.645 284.779 52.0112 285.765C50.5543 285.116 48.4525 283.464 48.5242 282.749C48.5242 282.692 48.5082 282.527 48.9382 282.445L49.0974 282.42V282.429Z" fill="#32D6D8"/>
<path d="M51.8994 286.208C53.0936 286.274 54.248 286.915 54.9565 287.901" stroke="#32D6D8" stroke-width="0.5" stroke-linecap="round" stroke-linejoin="round"/>
<path d="M49.9014 288.041C51.0956 288.107 52.2499 288.748 52.9585 289.734" stroke="#32D6D8" stroke-width="0.5" stroke-linecap="round" stroke-linejoin="round"/>
<path d="M47.3535 289.651C48.5477 289.717 49.7021 290.358 50.4106 291.344" stroke="#32D6D8" stroke-width="0.5" stroke-linecap="round" stroke-linejoin="round"/>
<path opacity="0.2" d="M49.3916 123.683C49.3916 123.683 54.3833 126.288 63.3557 125.425C77.9487 124.028 89.0467 118.564 89.0467 118.564" stroke="black" stroke-width="0.5" stroke-linecap="round" stroke-linejoin="round"/>
<path d="M50.3312 125.425C50.3312 125.425 23.2788 180.858 21.9333 201.45C20.4446 224.03 46.5815 276.636 46.5815 276.636L60.5774 269.898C60.5774 269.898 42.3859 220.069 43.6836 202.764C47.8155 178.014 76.9299 129.534 76.9299 129.534L50.3392 125.434L50.3312 125.425Z" fill="#32D6D8"/>
<path opacity="0.2" d="M64.391 138.564C57.8548 141.629 55.6893 160.34 55.9759 168.828C60.5696 158.713 65.5295 148.819 69.4942 141.251C68.6105 140.701 65.2906 138.038 64.391 138.564Z" fill="black"/>
<path d="M50.1401 121.687L89.3733 123.001C89.3733 123.001 89.6281 135.425 86.6585 144.678L47.7358 131.58L50.1401 121.687Z" fill="#32D6D8"/>
<path d="M63.4752 124.604C63.4752 124.604 54.7895 186.659 54.5029 207.489C54.1844 230.316 54.3596 276.636 54.3596 276.636H68.0211C68.0211 276.636 73.6816 233.825 75.9028 211.705C78.4265 186.503 88.2985 136.625 88.2985 136.625L63.4752 124.604Z" fill="#32D6D8"/>
<path opacity="0.2" d="M54.3041 251.434L54.3439 272.897L52.0112 274.023L52.9586 247.153L54.3041 251.434Z" fill="black"/>
<path opacity="0.2" d="M75.3296 132.254C75.8391 133.708 76.9617 134.916 78.3469 135.508C79.7322 136.099 81.3483 136.066 82.7097 135.417" stroke="black" stroke-width="0.5" stroke-linecap="round" stroke-linejoin="round"/>
<path d="M50.411 94.447C50.212 94.9154 49.9891 95.3755 49.7582 95.8357C47.1628 100.963 44.6789 104.39 42.4099 106.362C39.2971 109.04 36.5504 108.967 34.4009 106.682C30.683 102.722 34.1382 92.7707 34.3054 92.7707C34.4725 92.7707 38.5726 93.8307 38.5726 93.8307L38.907 92.7707C39.3926 91.193 40.3878 88.1116 41.6616 84.7344C44.1137 78.3169 47.6644 70.8065 50.9763 70.4532C50.9763 70.371 55.5381 82.7459 50.4031 94.4552L50.411 94.447Z" fill="#263238"/>
<path opacity="0.2" d="M46.7091 92.9596L45.722 102.615L43.9307 104.85L44.7586 92.4009L46.7091 92.9596Z" fill="black"/>
<path opacity="0.2" d="M40.6345 101.99C40.6743 99.5827 40.4833 97.1833 40.0772 94.8168L38.5566 93.8718C39.0423 92.4585 39.7827 89.599 41.0565 86.5751C45.4591 92.7707 40.8415 101.662 40.6425 101.99H40.6345Z" fill="black"/>
<path d="M87.6618 100.791C88.036 110.544 89.5088 121.243 89.3894 123.683C76.8981 131.391 53.8343 132.664 48.4764 128.367C48.3171 127.307 49.6944 124.094 48.7789 123.683C40.0374 119.714 50.3632 70.5517 50.9921 70.3627C54.3518 69.5657 57.7672 69.0069 61.2065 68.6946C66.238 68.4317 71.2775 68.4317 76.317 68.6946C80.3215 68.9165 84.3021 69.3684 88.2589 70.0587C86.7224 77.1993 85.8625 84.4796 85.6874 91.7928C85.4963 96.2465 87.5264 96.912 87.6777 100.791H87.6618Z" fill="#263238"/>
<path d="M38.6601 82.8033C37.243 83.0663 35.8418 83.4443 34.4804 83.9291C34.1301 84.1756 33.3658 88.7196 33.4773 89.6153C33.541 90.0837 35.4756 94.1265 35.4756 94.1265C36.2638 94.5702 38.6681 94.488 38.6681 94.488V82.8033H38.6601Z" fill="#F2B269"/>
<path d="M69.5501 77.8896C69.5501 77.8896 80.0749 72.606 82.1528 68.5139C84.2307 64.4218 79.6211 60.2886 71.9066 60.2557C64.1922 60.2229 56.3583 63.4275 57.3057 69.5575C58.253 75.6792 61.7799 77.8403 61.7799 77.8403C61.7799 77.8403 64.0568 74.9807 69.5581 77.8896H69.5501Z" fill="#263238"/>
<path d="M73.3793 69.0727C70.3063 71.4967 67.0023 75.7778 65.0359 75.7121C63.364 75.6546 62.4883 72.4663 61.732 70.9297C63.8417 67.61 62.8784 67.6511 61.103 64.7012L68.8016 53.2384C69.2554 58.5877 68.8573 66.6322 73.3793 69.0645V69.0727Z" fill="#F2B269"/>
<path opacity="0.2" d="M65.6806 57.9221L61.0869 64.7094C61.6044 65.5476 62.3368 66.2953 62.6951 67.2156C64.8606 66.2049 66.8588 63.633 67.0658 60.9707C67.233 59.2862 66.3095 57.9057 65.6806 57.9221Z" fill="black"/>
<path d="M47.0275 87.9062C47.1469 88.2924 46.9559 88.7197 46.6135 88.8512C46.5817 88.8594 46.5498 88.8758 46.518 88.8758L39.2255 90.4781C38.8194 90.5357 38.4373 90.2645 38.3099 89.829L33.8197 74.0687C33.7083 73.6332 33.9312 73.173 34.3133 73.0333L41.6059 71.431C42.0517 71.3899 42.4657 71.7021 42.601 72.187L47.0355 87.9062H47.0275Z" fill="#263238"/>
<path opacity="0.2" d="M47.0275 87.9062C47.1469 88.2924 46.9559 88.7197 46.6135 88.8512C46.5817 88.8594 46.5498 88.8758 46.518 88.8758L39.2255 90.4781C38.8194 90.5357 38.4373 90.2645 38.3099 89.829L33.8197 74.0687C33.7083 73.6332 33.9312 73.173 34.3133 73.0333L41.6059 71.431C42.0517 71.3899 42.4657 71.7021 42.601 72.187L47.0355 87.9062H47.0275Z" fill="white"/>
<path opacity="0.5" d="M41.4942 72.3759C41.3748 71.9568 41.0404 71.6774 40.6662 71.6364L34.3051 73.0333C33.915 73.1647 33.6921 73.6249 33.8115 74.0686L38.3017 89.8289C38.4132 90.1905 38.6998 90.4288 39.0341 90.4699L45.4191 89.073C45.4191 89.073 45.4828 89.0565 45.5146 89.0483C45.857 88.9168 46.048 88.4978 45.9286 88.1033L41.4942 72.3841V72.3759Z" fill="black"/>
<path d="M51.3187 87.6679L45.0054 83.395L45.1248 93.1076C45.1248 93.1076 51.3664 95.8521 52.4651 92.4091L51.3187 87.6679Z" fill="#F2B269"/>
<path d="M38.4214 89.1059L38.4533 89.6482C38.5647 91.6532 40.1888 93.2062 42.1314 93.1651H45.3239L45.0054 83.395L41.8448 84.2414C39.7271 84.8084 38.2941 86.8462 38.4214 89.0977V89.1059Z" fill="#F2B269"/>
<path d="M50.9842 87.4378C52.9347 88.391 61.103 94.8167 61.103 94.8167L56.9949 99.8866L50.0288 92.7049L50.9762 87.4296L50.9842 87.4378Z" fill="#F2B269"/>
<path opacity="0.2" d="M54.3042 98.4816C54.3042 98.4816 67.7349 117.981 76.9142 113.897C86.0936 109.813 87.654 100.799 87.654 100.799L75.8872 108.391L54.3042 96.7806V98.4898V98.4816Z" fill="black"/>
<path d="M56.1909 88.5307C56.1909 88.5307 72.7185 98.5884 74.5019 99.2375C76.2852 99.8867 79.6926 84.6605 80.9346 80.593C82.1765 76.5256 85.3451 70.4696 88.1555 70.0587C88.1555 70.0587 97.1995 69.6725 93.2586 85.137C89.3178 100.602 82.9806 111.555 75.8632 111.81C68.7459 112.064 53.5 97.1257 53.5 97.1257L56.1909 88.5307Z" fill="#263238"/>
<path d="M35.1968 83.7155C36.5343 83.0992 37.8797 82.4747 39.3048 82.1214C39.5118 82.0721 39.7347 82.0228 39.9417 82.0639C40.1567 82.105 40.3557 82.2611 40.4035 82.4747C40.4592 82.7541 40.2522 83.0089 40.0532 83.2061C39.0421 84.2085 37.8797 85.0549 36.6298 85.7205" fill="#F2B269"/>
<path opacity="0.2" d="M53.5 97.1257L56.1909 88.5307C56.1909 88.5307 72.7185 98.5883 74.5019 99.2375C76.2852 99.8866 80.6639 85.7944 81.9058 81.7269" stroke="black" stroke-width="0.5" stroke-linecap="round" stroke-linejoin="round"/>
<path opacity="0.2" d="M81.7706 69.1466C81.7706 69.1466 69.1758 79.4179 65.9595 79.6891C65.9595 79.6891 78.3631 76.9199 81.7706 69.1466Z" fill="black"/>
<path d="M63.396 79.0811C62.9979 77.8732 62.0983 75.8435 60.9757 75.3012C60.6891 75.1615 60.3786 75.0547 60.0602 75.0794C59.7417 75.104 59.4233 75.293 59.3118 75.597C59.1287 76.0736 59.487 76.5749 59.8214 76.9528C60.2751 77.4705 60.713 77.9307 61.334 78.1854C61.955 78.4401 62.775 79.0071 63.4039 79.0811" stroke="white" stroke-width="0.25" stroke-linecap="round" stroke-linejoin="round"/>
<path d="M63.555 79.0728C64.7969 79.0975 66.9465 78.9249 67.8222 78.0128C68.0452 77.7828 68.2521 77.5116 68.3318 77.1993C68.4193 76.8871 68.3556 76.5091 68.1168 76.2955C67.7426 75.9586 67.1694 76.1311 66.7077 76.3201C66.0867 76.5831 65.5135 76.846 65.0676 77.3719C64.6298 77.8896 63.8257 78.4894 63.5391 79.0728" stroke="white" stroke-width="0.25" stroke-linecap="round" stroke-linejoin="round"/>
<path d="M63.4434 79.2783C62.6154 82.902 62.2333 86.6408 62.3209 90.3631" stroke="white" stroke-width="0.25" stroke-linecap="round" stroke-linejoin="round"/>
<path d="M63.6744 79.0811C63.3081 82.8363 64.5183 87.2077 66.0309 90.6425" stroke="white" stroke-width="0.25" stroke-linecap="round" stroke-linejoin="round"/>
<path opacity="0.2" d="M49.0973 109.041C49.2247 109.082 60.7606 109.427 60.7606 109.427C60.7606 109.427 67.3287 115.524 70.3141 116.124L70.9749 121.687C70.9749 121.687 61.095 126.19 51.0877 122.706C43.7235 120.142 49.0894 109.041 49.0894 109.041H49.0973Z" fill="black"/>
<path d="M38.8276 75.1615C38.947 75.6546 38.74 76.1312 38.3738 76.2298C37.9996 76.3284 37.6015 76.0079 37.4821 75.5149C37.3627 75.0219 37.5697 74.5453 37.9359 74.4467C38.3101 74.3481 38.7081 74.6685 38.8276 75.1615Z" fill="white"/>
<path opacity="0.2" d="M75.3301 100.158C75.3301 100.158 76.8507 106.066 77.7423 105.178C78.634 104.291 77.3443 102.253 77.3443 102.253C77.3443 102.253 81.4443 104.143 80.2581 102.713C79.0719 101.284 75.3301 100.158 75.3301 100.158Z" fill="black"/>
<path d="M52.592 43.1396C55.872 44.4789 55.3068 48.152 49.9886 54.931C46.621 52.0304 44.7262 45.3171 46.422 43.1396C48.1257 40.962 49.7259 41.9892 52.592 43.1396Z" fill="#263238"/>
<path d="M65.4975 41.4058C62.2493 36.9932 56.143 36.1387 51.8678 39.4912C45.9764 44.1256 47.8792 54.7667 51.0478 60.6255C54.5826 67.1498 63.8415 67.9962 67.5276 61.1678C69.9877 56.6156 68.7616 52.5399 67.2729 45.4322C66.9783 43.9695 66.3732 42.589 65.4895 41.4058H65.4975Z" fill="#F2B269"/>
<path d="M58.0059 51.258C58.181 51.9976 57.8466 52.6796 57.361 52.7618C56.8754 52.8439 56.4056 52.2934 56.2783 51.5456C56.1509 50.7979 56.4454 50.1159 56.9231 50.0419C57.3928 49.9597 57.8785 50.4938 58.0059 51.258Z" fill="#263238"/>
<path d="M51.6445 52.6467C51.8197 53.3863 51.4773 54.0765 50.9997 54.1504C50.5299 54.2326 50.0443 53.6821 49.9169 52.9343C49.7895 52.1866 50.0841 51.5045 50.5618 51.4306C51.0315 51.3484 51.5251 51.9318 51.6445 52.6467Z" fill="#263238"/>
<path d="M48.4123 49.0065C48.5318 49.0476 48.6591 49.023 48.7547 48.9408C49.3836 48.341 50.2434 48.078 51.0873 48.2424C51.2625 48.2917 51.4456 48.1848 51.5013 48.0041C51.5491 47.8233 51.4456 47.6343 51.2704 47.5768C50.2116 47.3467 49.1129 47.6589 48.3168 48.4231C48.1735 48.5464 48.1576 48.76 48.277 48.9079C48.3168 48.949 48.3646 48.9819 48.4123 49.0065Z" fill="#263238"/>
<path d="M58.4513 47.4454C58.515 47.4289 58.5787 47.3961 58.6265 47.3468C58.722 47.1824 58.6742 46.9688 58.515 46.8702C57.5995 46.2703 56.453 46.1717 55.4579 46.6072C55.2907 46.6894 55.219 46.8948 55.3066 47.0674C55.3942 47.2399 55.5853 47.3057 55.7524 47.2235C56.5486 46.9113 57.4482 47.0016 58.1727 47.47C58.2682 47.5029 58.3717 47.4947 58.4593 47.4454H58.4513Z" fill="#263238"/>
<path d="M63.093 39.9185C60.1235 41.8741 66.3412 50.4034 68.9366 58.3904C74.9872 51.6853 71.2295 40.5183 69.1277 38.7106C67.0339 36.9028 65.7123 38.2258 63.093 39.9185Z" fill="#263238"/>
<path d="M72.7181 49.9597C72.5827 51.9565 71.6911 53.8135 70.2262 55.12C68.2836 56.8456 66.2296 55.3172 65.8554 52.8357C65.5449 50.6253 66.142 47.0098 68.5464 46.262C70.9507 45.5143 72.8534 47.5028 72.7181 49.9515V49.9597Z" fill="#F2B269"/>
<path opacity="0.1" d="M67.5833 52.696C67.2887 51.3813 67.5912 49.9351 68.3873 48.8586C68.7217 48.3985 69.2631 47.9794 69.7965 48.1602" stroke="black" stroke-width="0.5" stroke-miterlimit="10"/>
<path d="M56.7478 58.0125C58.1012 57.3141 59.2954 56.328 60.2507 55.1201C60.4179 55.3255 60.5533 55.5556 60.6568 55.8021C60.8478 56.2376 60.9354 56.7142 60.9115 57.1908C60.8558 58.1686 60.2746 59.3355 58.2763 60.379C58.133 60.4612 57.9818 60.5434 57.8305 60.6091C57.2812 59.8285 56.6841 59.089 56.0312 58.3905C56.0312 58.3905 56.3099 58.259 56.7478 58.0125Z" fill="#263238"/>
<path d="M60.211 55.1283C60.3782 55.3338 60.5135 55.5638 60.617 55.8103C60.3224 56.706 59.1362 57.6592 57.2573 58.6617L56.708 58.0125C58.0614 57.3141 59.2556 56.328 60.211 55.1201V55.1283Z" fill="white"/>
<path d="M58.9133 58.8013C59.4785 58.144 60.1552 57.6016 60.9116 57.1908C60.8558 58.1686 60.2746 59.3355 58.2764 60.379C58.3241 59.7956 58.5471 59.2533 58.9133 58.8096V58.8013Z" fill="#FF3636"/>
<path d="M53.269 51.0938C52.855 53.1644 52.1624 55.1776 51.207 57.0511C52.1703 57.5359 53.2849 57.5524 54.2642 57.1086L53.269 51.0938Z" fill="#DE842C"/>
<path d="M67.2807 40.3869C67.2807 40.3869 68.0689 37.6506 63.0851 34.7746C58.1014 31.8987 49.7181 33.7311 44.1453 37.2644C38.5724 40.7977 44.8857 45.8677 47.497 46.106L46.8043 45.161C49.5987 45.424 52.425 45.1035 55.0841 44.216L53.452 43.5998C53.452 43.5998 63.9131 42.2357 67.2887 40.3869H67.2807Z" fill="#263238"/>
</g>
<defs>
<clipPath id="clip0_3725_2514">
<rect width="227" height="298" fill="white"/>
</clipPath>
</defs>
</svg>
