<svg width="507" height="507" viewBox="0 0 507 507" fill="none" xmlns="http://www.w3.org/2000/svg">
<path d="M163.508 411.795H353.841C405.189 379.923 439.382 323.031 439.382 258.15C439.382 158.348 358.477 77.4424 258.675 77.4424C158.872 77.4424 77.9668 158.348 77.9668 258.15C77.9668 323.031 112.16 379.923 163.508 411.795Z" fill="#EAF4F4"/>
<path d="M274.154 410.999L353.858 414.39L359.504 313.31C359.797 306.406 354.438 300.57 347.534 300.276L278.767 302.563L274.154 410.999Z" fill="#81D5E8"/>
<path d="M272.773 411.82L353.82 415.268L358.123 314.131C358.416 307.227 353.057 301.391 346.153 301.098L277.608 298.182L272.773 411.82Z" fill="#1C1A4D"/>
<path d="M287.44 257.294C287.44 257.294 286.634 274.726 291.064 278.465C295.494 282.205 299.867 283.988 299.867 283.988L283.528 301.823L261.09 299.81L258.674 291.065L262.183 288.016L263.967 287.44C263.967 287.44 264.024 273.518 259.882 272.482C255.74 271.446 281.054 253.5 281.054 253.5L287.44 257.294Z" fill="#F6A99C"/>
<path d="M261.838 271.964C261.838 271.964 274.828 271.329 282.192 256.4L278.898 255.052L261.838 271.964Z" fill="#F37E74"/>
<path d="M228.761 210.691L229.218 204.422L224.155 204.652L223.705 212.363C220.083 215.132 217.582 221.027 217.582 227.852C217.582 237.336 222.412 245.025 228.369 245.025C234.327 245.025 239.157 237.336 239.157 227.852C239.156 218.576 234.537 211.019 228.761 210.691Z" fill="#73D8F5"/>
<path d="M227.29 206.004C227.29 206.004 225.133 220.215 226.636 229.477C228.186 239.025 226.858 244.507 227.117 246.837C227.376 249.167 230.057 269.872 236.4 273.238C242.743 276.604 248.088 275.273 257.019 273.59C265.951 271.907 273.977 267.247 277.343 260.904C280.708 254.561 287.698 233.979 287.698 233.979L268.54 190.097L229.965 197.216L227.29 206.004Z" fill="#F6A99C"/>
<path d="M234.338 222.717C234.338 222.717 236.741 229.162 228.571 239.756C228.446 239.918 228.309 240.071 228.165 240.217C227.683 240.708 226.462 242.12 226.658 243.658C226.9 245.568 231.404 246.708 233.648 245.73" fill="#F6A99C"/>
<path d="M231.612 246.258C230.328 246.258 228.917 245.935 227.86 245.335C227.042 244.87 226.568 244.298 226.489 243.68C226.287 242.083 227.509 240.644 228.044 240.099C228.196 239.944 228.324 239.798 228.436 239.653C236.443 229.272 234.203 222.84 234.179 222.776L234.496 222.658C234.521 222.726 235.107 224.344 234.685 227.288C234.298 229.987 232.947 234.358 228.704 239.859C228.584 240.016 228.447 240.172 228.285 240.336C227.785 240.845 226.641 242.187 226.824 243.638C226.906 244.279 227.523 244.755 228.027 245.041C229.622 245.947 232.164 246.192 233.579 245.575L233.714 245.885C233.136 246.137 232.398 246.258 231.612 246.258Z" fill="#1A0738"/>
<path d="M236.358 218.082C236.102 218.125 235.891 218.309 235.823 218.559C235.692 219.043 235.648 219.826 236.568 220.171C237.949 220.689 246.737 219.725 248.52 220.473C250.296 221.218 251.699 221.911 251.958 223.076C252.174 223.076 252.979 220.933 250.002 218.848C247.333 217.347 240.128 217.444 236.358 218.082Z" fill="#130D32"/>
<path d="M225.046 221.221C225.046 221.221 227.499 218.886 229.965 219.236C231.385 219.437 231.075 220.966 230.512 221.22C229.667 221.601 227.923 221.58 226.096 223.076C225.09 224.069 224.036 222.253 225.046 221.221Z" fill="#130D32"/>
<path d="M272.043 232.457C272.043 232.457 247.571 250.505 244.637 250.937L246.276 256.891C246.276 256.891 272.597 239.804 273.978 236.093C275.359 232.383 272.043 232.457 272.043 232.457Z" fill="#1A0738"/>
<path d="M266.471 220.732C266.471 220.732 261.983 217.28 260.171 213.742C258.359 210.203 257.668 205.63 254.389 203.99C251.109 202.35 240.754 205.457 235.317 207.442C230.916 208.046 223.235 207.037 220.474 203.529C217.712 200.02 210.463 184.918 218.834 178.014C225.479 173.095 231.002 176.116 241.444 176.547C251.886 176.979 257.754 171.197 274.841 172.75C291.928 174.304 303.32 185.005 307.548 191.649C311.777 198.294 319.198 214.173 314.797 228.24C310.396 242.306 299.523 253.18 297.106 255.424C294.69 257.667 290.202 260.019 279.803 255.467C279.578 255.368 285.497 240.3 282.867 234.971C280.782 230.747 268.499 222.48 266.471 220.732Z" fill="#1A0738"/>
<path d="M287.152 201.833C287.152 201.833 267.724 207.313 267.764 223.364C267.805 240.154 273.632 252.979 294.344 251.363" fill="#2A2F6F"/>
<path d="M304.45 203.643C303.266 196.905 301.347 190.156 297.829 184.239C295.693 180.648 293.161 177.357 289.858 174.782C286.65 172.281 283.1 170.218 279.341 168.664C276.537 167.505 273.789 166.699 270.767 166.427C264.237 165.839 257.54 166.094 251.108 167.4C240.062 169.644 237.09 176.218 237.09 176.218L244.725 176.484C244.725 176.484 251.41 173.7 264.139 174.304C279.422 174.996 284.619 194.528 286.081 202.261C277.696 205.887 271.733 215.146 271.733 225.997C271.733 240.009 281.675 251.368 293.939 251.368C306.203 251.368 316.144 240.009 316.144 225.997C316.144 216.329 311.412 207.926 304.45 203.643Z" fill="#73D8F5"/>
<path d="M246.328 260.459L232.213 266.178C229.842 267.138 227.156 265.87 226.392 263.428L224.795 258.328C224.031 255.887 225.514 253.313 228.009 252.751L242.866 249.4C245.089 248.899 247.325 250.187 248.006 252.362L248.861 255.095C249.542 257.27 248.44 259.603 246.328 260.459Z" fill="#88E9F9"/>
<path d="M303.488 227.61C302.54 230.679 299.88 233.27 296.61 233.573C295.032 233.72 293.453 233.33 292.13 232.452C290.836 231.593 289.856 230.283 289.323 228.83C288.146 225.62 289.026 221.854 291.469 219.469C292.586 218.378 294.001 217.613 295.542 217.332C297.054 217.057 298.67 217.316 300.031 218.061C302.931 219.65 304.299 223.134 303.786 226.326C303.716 226.761 303.615 227.189 303.488 227.61C303.331 228.132 304.146 228.355 304.303 227.835C305.346 224.381 304.434 220.324 301.522 218.042C300.132 216.952 298.395 216.351 296.624 216.383C294.914 216.414 293.232 217.019 291.861 218.034C288.844 220.27 287.378 224.226 288.172 227.894C288.541 229.596 289.414 231.21 290.699 232.394C292.004 233.596 293.689 234.32 295.459 234.435C299.03 234.667 302.337 232.323 303.8 229.147C303.996 228.721 304.165 228.283 304.303 227.835C304.464 227.314 303.648 227.092 303.488 227.61Z" fill="#1A0738"/>
<path d="M264.14 174.304C279.389 174.994 284.596 194.439 286.071 202.208C287.049 201.935 288.012 201.637 288.973 201.308C289.1 194.529 286.737 187.84 282.983 182.193C278.729 175.792 272.702 169.835 265.041 167.982C260.921 166.985 256.582 166.792 252.33 167.165C251.922 167.239 251.515 167.318 251.109 167.4C240.361 169.583 237.257 175.866 237.098 176.203L240.825 176.591L244.928 176.488C244.928 176.488 246.795 176.597 250.131 175.685C252.478 175.042 252.331 174.937 255.189 174.432C257.697 173.989 260.714 174.141 264.14 174.304Z" fill="#6A9FF3"/>
<path d="M231.433 393.069C231.433 393.069 236.87 394.536 238.424 400.491C239.977 406.445 236.352 411.45 236.352 411.45C236.352 411.45 290.634 412.227 301.594 411.45C312.554 410.674 324.808 407.308 329.468 401.008C334.128 394.709 333.524 390.998 333.869 387.373C334.214 383.749 336.803 360.103 339.651 334.041C342.499 307.979 338.961 300.903 335.336 295.207C331.712 289.512 321.701 286.232 318.422 285.628C315.143 285.024 292.573 279.669 292.573 279.669C292.573 279.669 288.304 296.157 274.669 297.192C261.034 298.228 263.962 286.836 263.962 286.836C263.962 286.836 245.069 291.194 237.475 299.609C228.802 309.218 215.598 374.817 211.585 379.218C207.572 383.62 185.049 385.561 178.318 386.467C171.586 387.374 180.259 407.049 180.259 407.049L221.294 406.402L231.433 393.069Z" fill="#F37B20"/>
<path d="M185.264 397.556C185.264 397.556 200.005 387.51 205.717 387.459C215.209 387.373 221.407 393.166 230.899 393.771L232.822 393.54C232.822 393.54 235.719 394.345 237.704 398.518C239.689 402.691 238.585 405.927 238.585 405.927H186.904C186.904 405.927 189.061 400.835 189.838 400.576C190.615 400.317 184.315 402.13 184.315 402.13L182.848 399.627L185.264 397.556Z" fill="#F5AA99"/>
<path d="M192.211 405.236C194.846 399.993 201.108 391.575 207.04 390.191C205.429 390.963 204.063 392.084 202.749 393.267C198.987 396.744 195.492 401.276 192.211 405.236Z" fill="#D56F5F"/>
<path d="M197.131 404.935C199.642 400.981 205.331 394.608 209.831 393.184C207.43 394.817 205.464 396.907 203.385 398.906C201.554 400.701 199.034 403.254 197.131 404.935Z" fill="#D56F5F"/>
<path d="M205.242 402.69C206.899 400.798 209.804 398.216 212.208 397.418C213.688 397.036 215.154 398.078 216.239 398.949C216.706 399.351 217.153 399.773 217.54 400.252C217.008 399.946 216.49 399.638 215.959 399.361C214.994 398.882 213.549 398.045 212.485 398.362C210.997 398.946 209.707 399.919 208.33 400.773C207.319 401.424 206.306 402.081 205.242 402.69Z" fill="#D56F5F"/>
<path d="M252.058 323.168C245.643 342.022 242.26 361.824 240.901 381.662C240.709 384.501 240.562 387.344 240.494 390.193C240.104 375.938 241.695 361.647 244.619 347.704C246.418 339.378 248.836 331.06 252.058 323.168Z" fill="#CC5200"/>
<path d="M234.756 392.681C245.839 391.805 256.915 390.794 267.948 389.433C276.194 388.355 284.481 387.288 292.528 385.176C294.502 384.62 296.489 384.025 298.281 383.037C299.032 382.581 299.804 382.113 300.023 381.277L300.093 381.03L300.37 380.039L300.608 379.035C300.827 378.115 301.055 376.926 301.217 375.99C302.697 367.089 303.134 358.058 303.77 349.061C304.337 340.741 304.763 332.394 305.834 324.116C306.193 321.358 306.645 318.603 307.376 315.919C306.728 318.622 306.365 321.383 306.056 324.143C304.252 341.413 304.722 358.949 302.035 376.132C301.816 377.448 301.503 378.952 301.184 380.247L300.902 381.265C300.806 381.641 300.684 382.041 300.44 382.35C298.923 384.277 295.056 385.299 292.745 385.971C284.642 388.078 276.322 389.111 268.024 390.075C256.984 391.291 245.851 392.155 234.756 392.681Z" fill="#CC5200"/>
<path d="M221.164 381.548C225.225 385.1 229.207 391.004 228.742 396.608C228.695 395.886 228.613 395.175 228.476 394.473C227.429 389.54 224.404 385.31 221.164 381.548Z" fill="#CC5200"/>
<path d="M426.898 425.344H87.575C83.8729 425.344 80.8438 422.315 80.8438 418.613C80.8438 414.911 83.8727 411.882 87.575 411.882H426.898C430.6 411.882 433.63 414.911 433.63 418.613C433.63 422.315 430.601 425.344 426.898 425.344Z" fill="#170736"/>
<path d="M300.082 382.126C306.345 381.099 314.78 381.22 320.467 384.265C321.335 384.749 322.165 385.311 322.881 385.993C322.07 385.428 321.212 384.955 320.319 384.562C314.31 381.992 306.563 381.975 300.082 382.126Z" fill="#CC5200"/>
<path d="M189.066 410.188L116.822 411.342C112.464 411.37 108.532 408.733 106.903 404.691L75.4437 326.649C74.1387 323.45 82.4976 319.889 85.945 319.673L145.389 315.582C149.45 315.327 153.236 317.638 154.866 321.367L189.066 410.188Z" fill="#8AEAEB"/>
<path d="M255.562 405.237H188.379C187.534 405.237 186.771 404.728 186.446 403.948L152.383 322.145C150.777 318.406 147.004 316.071 142.942 316.301L77.3333 320.009C73.8845 320.204 71.6442 323.726 72.9293 326.932L103.901 405.168C105.505 409.22 109.421 411.881 113.779 411.881H176.719H189.75H255.638C257.574 411.881 259.136 410.205 258.945 408.232C258.779 406.518 257.285 405.237 255.562 405.237Z" fill="#384F98"/>
<path d="M128.261 380.663C131.561 379.809 133.349 375.694 132.256 371.472C131.163 367.25 127.602 364.52 124.302 365.375C121.003 366.229 119.214 370.344 120.308 374.566C121.401 378.788 124.962 381.518 128.261 380.663Z" fill="#FBF8F8"/>
<path d="M417.905 383.998C417.276 383.998 416.752 384.434 416.608 385.019C416.289 385.078 416.034 385.311 415.939 385.616C415.778 385.311 415.461 385.101 415.092 385.101C415.072 385.101 415.054 385.105 415.035 385.107C414.825 384.241 414.047 383.596 413.116 383.596C412.221 383.596 411.466 384.192 411.223 385.007C410.922 384.65 410.472 384.423 409.968 384.423C409.625 384.423 409.307 384.528 409.044 384.707C408.884 384.108 408.341 383.663 407.691 383.663C406.981 383.663 406.4 384.191 406.304 384.875C406.132 384.713 405.902 384.612 405.648 384.612C405.166 384.612 404.771 384.968 404.702 385.43C404.492 385.101 404.126 384.88 403.706 384.88C403.346 384.88 403.027 385.044 402.81 385.298C402.679 384.523 402.007 383.931 401.194 383.931C400.558 383.931 400.007 384.294 399.735 384.824C399.516 384.691 399.259 384.612 398.983 384.612C398.457 384.612 397.997 384.894 397.743 385.314C397.631 384.906 397.262 384.604 396.818 384.604C396.634 384.604 396.464 384.658 396.318 384.747C395.956 384.34 395.43 384.082 394.842 384.082C394.164 384.082 393.567 384.423 393.211 384.942C392.966 384.346 392.379 383.925 391.694 383.925C390.87 383.925 390.191 384.532 390.073 385.323C389.985 385.276 389.893 385.239 389.796 385.212C389.809 385.127 389.818 385.041 389.818 384.953C389.818 384.046 389.084 383.312 388.177 383.312C387.271 383.312 386.536 384.046 386.536 384.953C386.536 385.051 386.547 385.146 386.563 385.24C386.421 384.746 385.971 384.383 385.431 384.383C384.908 384.383 384.47 384.725 384.313 385.195C384.024 384.728 383.509 384.417 382.919 384.417C382.541 384.417 382.194 384.546 381.916 384.761C381.656 384.372 381.212 384.115 380.709 384.115C379.907 384.115 379.258 384.765 379.258 385.566C379.258 386.368 379.907 387.018 380.709 387.018C380.984 387.018 381.241 386.94 381.46 386.806C381.732 387.336 382.283 387.699 382.919 387.699C383.732 387.699 384.405 387.107 384.536 386.332C384.753 386.586 385.071 386.75 385.431 386.75C385.851 386.75 386.218 386.529 386.428 386.2C386.497 386.662 386.892 387.018 387.373 387.018C387.628 387.018 387.858 386.917 388.029 386.755C388.125 387.439 388.706 387.967 389.416 387.967C390.067 387.967 390.609 387.522 390.77 386.923C391.033 387.102 391.351 387.207 391.694 387.207C392.197 387.207 392.648 386.98 392.949 386.623C393.192 387.438 393.947 388.034 394.841 388.034C395.772 388.034 396.55 387.39 396.76 386.523C396.779 386.525 396.798 386.529 396.817 386.529C397.107 386.529 397.363 386.399 397.539 386.196C397.605 386.935 398.226 387.515 398.983 387.515C399.017 387.515 399.049 387.511 399.082 387.509C399.25 387.585 399.434 387.632 399.63 387.632C400.053 387.632 400.425 387.432 400.671 387.127C400.835 387.182 401.01 387.214 401.193 387.214C401.783 387.214 402.298 386.902 402.587 386.436C402.744 386.906 403.182 387.247 403.705 387.247C404.245 387.247 404.694 386.884 404.837 386.391C404.821 386.484 404.81 386.58 404.81 386.678C404.81 387.584 405.545 388.319 406.451 388.319C407.358 388.319 408.092 387.584 408.092 386.678C408.092 386.589 408.083 386.503 408.07 386.419C408.167 386.391 408.259 386.354 408.347 386.308C408.465 387.098 409.144 387.705 409.968 387.705C410.653 387.705 411.24 387.285 411.485 386.688C411.841 387.208 412.439 387.549 413.116 387.549C413.704 387.549 414.23 387.291 414.592 386.883C414.738 386.973 414.908 387.027 415.092 387.027C415.537 387.027 415.908 386.723 416.018 386.313C416.169 386.57 416.446 386.745 416.766 386.745C416.979 386.745 417.171 386.666 417.322 386.54C417.499 386.626 417.695 386.678 417.905 386.678C418.644 386.678 419.244 386.079 419.244 385.339C419.245 384.598 418.645 383.998 417.905 383.998ZM386.607 385.486C386.605 385.452 386.602 385.419 386.597 385.387C386.604 385.415 386.612 385.442 386.621 385.469C386.616 385.474 386.611 385.48 386.607 385.486ZM404.871 386.243C404.876 386.21 404.879 386.177 404.881 386.144C404.885 386.15 404.89 386.155 404.895 386.161C404.886 386.188 404.878 386.215 404.871 386.243Z" fill="#782B68"/>
<path d="M406.727 384.84C406.727 384.84 405.045 381.536 404.108 377.987C403.17 374.437 404.911 370.552 406.251 370.284C407.591 370.016 409.95 372.427 410.21 376.245C410.47 380.063 408.528 384.601 408.126 385.145C407.724 385.689 406.727 384.84 406.727 384.84Z" fill="#5C877A"/>
<path d="M409.263 374.839C409.263 374.839 409.008 368.493 411.051 365.105C413.53 360.997 415.806 358.876 418.62 359.405C421.207 359.892 425.131 361.785 423.152 370.039C422.237 373.857 419.826 376.491 415.374 382.073C413.858 383.744 412.871 385.717 412.871 385.717H407.926L409.263 374.839Z" fill="#87BFA5"/>
<path d="M421.174 360.397L421.173 360.396C421.151 360.411 416.536 363.451 413.106 371.78C409.668 380.13 409.861 385.653 409.861 385.653C409.861 385.653 416.344 377.26 417.806 373.024C419.266 368.795 421.168 360.423 421.174 360.397Z" fill="#547A74"/>
<path d="M387.148 384.954C387.148 384.954 380.465 382.765 377.83 375.888C375.196 369.012 378.991 364.814 378.991 364.814C378.991 364.814 372.338 363.966 370.73 360.036C369.123 356.107 370.239 350.659 373.186 349.141C376.133 347.623 380.688 350.213 381.581 353.071C383.189 356.955 381.804 362.716 381.492 363.296C381.179 363.877 383.68 362.135 386.806 364.279C389.931 366.422 392.744 374.951 392.7 376.826C392.655 378.701 390.207 384.604 390.207 384.604L387.148 384.954Z" fill="#96CCAF"/>
<path d="M388.333 378.258C388.378 376.382 385.565 367.854 382.439 365.71C380.696 364.515 379.147 364.528 378.173 364.673C378.678 364.775 378.99 364.815 378.99 364.815C378.99 364.815 375.195 369.012 377.829 375.889C379.923 381.354 384.571 383.857 386.392 384.654C387.117 382.791 388.302 379.558 388.333 378.258Z" fill="#547A74"/>
<path d="M377.215 354.502C376.598 352.526 374.228 350.678 371.85 350.229C369.94 352.466 369.395 356.774 370.73 360.037C371.806 362.668 375.143 363.917 377.232 364.455C377.66 363.141 378.681 358.043 377.215 354.502Z" fill="#547A74"/>
<path d="M416.701 360.796C416.701 360.796 417.393 360.394 417.46 360.595C417.527 360.796 417.818 361.153 417.907 361.153C417.996 361.153 418.532 361.198 418.755 361.019C418.978 360.84 418.934 360.483 419.291 360.282C419.648 360.081 420.207 360.148 420.854 359.657C421.501 359.166 421.993 358.652 421.993 358.184C421.993 357.715 421.725 357.402 421.68 357.157C421.635 356.911 421.859 356.264 421.412 356.04C420.966 355.817 420.162 356.286 419.76 356.911C419.358 357.536 420.162 353.696 419.18 353.294C418.197 352.892 416.88 354.277 416.813 354.589C416.746 354.902 416.679 357.559 416.433 357.67C416.188 357.782 415.563 354.991 414.803 355.348C414.044 355.706 414.446 356.799 414.446 356.799C414.446 356.799 413.955 356.665 413.955 356.889C413.955 357.112 414.558 359.322 415.429 359.724C416.299 360.126 416.299 359.814 416.299 359.814C416.299 359.814 416.389 360.684 416.701 360.796Z" fill="#F1735B"/>
<path d="M392.52 384.754C392.52 384.754 380.618 363.519 386.335 347.444C392.051 331.37 403.065 337.799 403.05 338.268C403.036 338.737 411.207 343.827 409.667 356.62C408.126 369.413 402.381 385.337 402.381 385.337L392.52 384.754Z" fill="#547A74"/>
<path d="M397.108 384.939C397.108 384.939 385.206 363.705 390.922 347.63C396.639 331.555 407.653 337.985 407.638 338.454C407.624 338.923 415.795 344.013 414.255 356.806C412.714 369.599 406.969 385.523 406.969 385.523L397.108 384.939Z" fill="#547A74"/>
<path d="M394.887 384.939C394.887 384.939 382.985 363.705 388.702 347.63C394.418 331.555 405.432 337.985 405.418 338.454C405.403 338.923 413.575 344.013 412.034 356.806C410.493 369.599 404.748 385.523 404.748 385.523L394.887 384.939Z" fill="#87BFA5"/>
<path d="M394.887 384.939C394.887 384.939 382.985 363.705 388.702 347.63C394.418 331.555 405.432 337.985 405.418 338.454C405.403 338.923 413.575 344.013 412.034 356.806C410.493 369.599 404.748 385.523 404.748 385.523L394.887 384.939Z" fill="#87BFA5"/>
<path d="M398.952 337.13C398.952 337.13 393.133 350.308 393.196 359.325C393.258 368.342 396.35 386.145 396.35 386.145L398.026 385.946C398.026 385.946 400.157 367.628 400.626 359.814C401.021 353.225 398.952 337.13 398.952 337.13Z" fill="#547A74"/>
<path d="M411.879 387.106C411.969 387.179 412.064 387.246 412.166 387.302C412.077 387.214 411.994 387.12 411.924 387.017C411.911 387.048 411.893 387.076 411.879 387.106Z" fill="#782B68"/>
<path d="M381.146 384.444C381.377 384.444 381.594 384.5 381.788 384.596C381.522 384.302 381.139 384.115 380.711 384.115C379.909 384.115 379.26 384.765 379.26 385.566C379.26 386.138 379.591 386.63 380.07 386.867C379.838 386.61 379.695 386.27 379.695 385.896C379.695 385.094 380.345 384.444 381.146 384.444Z" fill="#782B68"/>
<path d="M382.352 385.091C382.63 384.876 382.977 384.746 383.356 384.746C383.628 384.746 383.883 384.815 384.108 384.933C383.81 384.617 383.39 384.417 382.92 384.417C382.573 384.417 382.253 384.53 381.988 384.715C382.131 384.817 382.255 384.944 382.352 385.091Z" fill="#782B68"/>
<path d="M411.661 385.337C411.904 384.521 412.659 383.926 413.554 383.926C413.9 383.926 414.226 384.015 414.509 384.172C414.152 383.817 413.662 383.597 413.118 383.597C412.234 383.597 411.489 384.179 411.236 384.98C411.397 385.074 411.541 385.195 411.661 385.337Z" fill="#782B68"/>
<path d="M416.441 386.68C416.458 386.687 416.476 386.692 416.493 386.698C416.48 386.679 416.467 386.661 416.455 386.642C416.452 386.655 416.445 386.667 416.441 386.68Z" fill="#782B68"/>
<path d="M390.233 385.541C390.33 385.569 390.422 385.606 390.51 385.653C390.627 384.862 391.307 384.255 392.13 384.255C392.401 384.255 392.656 384.323 392.881 384.439C392.582 384.125 392.163 383.926 391.695 383.926C391.03 383.926 390.464 384.325 390.207 384.894C390.237 385.019 390.255 385.148 390.255 385.282C390.255 385.371 390.246 385.457 390.233 385.541Z" fill="#782B68"/>
<path d="M384.751 385.524C384.907 385.053 385.346 384.712 385.869 384.712C386.036 384.712 386.193 384.75 386.337 384.813C386.121 384.552 385.799 384.383 385.434 384.383C384.951 384.383 384.543 384.676 384.359 385.09C384.514 385.211 384.647 385.357 384.751 385.524Z" fill="#782B68"/>
<path d="M387 385.569C386.983 385.476 386.973 385.38 386.973 385.282C386.973 384.375 387.708 383.641 388.614 383.641C388.887 383.641 389.144 383.708 389.37 383.826C389.071 383.51 388.648 383.312 388.179 383.312C387.281 383.312 386.553 384.033 386.539 384.927C386.758 385.081 386.924 385.305 387 385.569Z" fill="#782B68"/>
<path d="M397.703 386.739C397.846 387.009 398.072 387.225 398.347 387.361C398.143 387.134 398.004 386.846 397.975 386.524C397.899 386.612 397.806 386.683 397.703 386.739Z" fill="#782B68"/>
<path d="M393.385 386.952C393.328 387.021 393.263 387.083 393.195 387.141C393.37 387.407 393.606 387.627 393.885 387.783C393.656 387.554 393.48 387.271 393.385 386.952Z" fill="#782B68"/>
<path d="M402.908 386.929C403.005 387.019 403.117 387.092 403.239 387.146C403.147 387.034 403.072 386.906 403.025 386.765C402.989 386.822 402.95 386.876 402.908 386.929Z" fill="#782B68"/>
<path d="M388.205 387.258C388.345 387.504 388.557 387.699 388.812 387.823C388.632 387.62 388.506 387.367 388.467 387.085C388.39 387.157 388.301 387.214 388.205 387.258Z" fill="#782B68"/>
<path d="M386.699 386.732C386.797 386.83 386.913 386.909 387.045 386.958C386.953 386.834 386.888 386.688 386.864 386.528C386.817 386.603 386.761 386.67 386.699 386.732Z" fill="#782B68"/>
<path d="M381.898 387.136C381.853 387.163 381.806 387.186 381.758 387.209C381.875 387.328 382.011 387.428 382.161 387.507C382.057 387.396 381.968 387.272 381.898 387.136Z" fill="#782B68"/>
<path d="M408.508 386.748C408.511 386.767 408.51 386.787 408.513 386.806C408.668 387.111 408.916 387.359 409.219 387.516C408.994 387.278 408.835 386.976 408.785 386.637C408.697 386.683 408.605 386.721 408.508 386.748Z" fill="#782B68"/>
<path d="M410.405 384.752C410.678 384.752 410.933 384.821 411.16 384.938C410.861 384.622 410.439 384.423 409.969 384.423C409.716 384.423 409.477 384.481 409.264 384.583C409.361 384.719 409.437 384.871 409.481 385.037C409.744 384.858 410.062 384.752 410.405 384.752Z" fill="#782B68"/>
<path d="M398.179 385.644C398.433 385.224 398.893 384.942 399.42 384.942C399.696 384.942 399.952 385.02 400.171 385.153C400.444 384.624 400.994 384.261 401.63 384.261C401.903 384.261 402.156 384.332 402.382 384.449C402.083 384.133 401.665 383.932 401.195 383.932C400.559 383.932 400.008 384.294 399.736 384.824C399.517 384.691 399.26 384.613 398.985 384.613C398.529 384.613 398.125 384.823 397.859 385.151C398.012 385.277 398.126 385.448 398.179 385.644Z" fill="#782B68"/>
<path d="M405.275 386.72C405.213 386.936 405.089 387.125 404.926 387.272C405.071 387.644 405.347 387.951 405.698 388.133C405.42 387.839 405.249 387.444 405.249 387.007C405.249 386.909 405.259 386.813 405.275 386.72Z" fill="#782B68"/>
<path d="M416.377 385.945C416.472 385.64 416.727 385.407 417.046 385.348C417.19 384.763 417.714 384.327 418.343 384.327C418.546 384.327 418.737 384.376 418.91 384.457C418.665 384.178 418.309 383.998 417.908 383.998C417.278 383.998 416.754 384.434 416.611 385.019C416.318 385.073 416.082 385.273 415.971 385.541C416.143 385.632 416.286 385.772 416.377 385.945Z" fill="#782B68"/>
<path d="M404.143 385.21C404.312 385.21 404.472 385.247 404.618 385.312C404.401 385.049 404.075 384.881 403.708 384.881C403.464 384.881 403.24 384.958 403.053 385.085C403.148 385.25 403.215 385.433 403.248 385.628C403.465 385.374 403.783 385.21 404.143 385.21Z" fill="#782B68"/>
<path d="M387.033 385.717C387.038 385.749 387.041 385.782 387.043 385.815C387.048 385.809 387.053 385.804 387.057 385.798C387.048 385.771 387.04 385.744 387.033 385.717Z" fill="#782B68"/>
<path d="M396.754 385.077C396.9 384.988 397.07 384.934 397.254 384.934C397.371 384.934 397.482 384.956 397.585 384.994C397.41 384.759 397.134 384.604 396.819 384.604C396.647 384.604 396.489 384.653 396.35 384.732C396.499 384.829 396.636 384.944 396.754 385.077Z" fill="#782B68"/>
<path d="M415.528 385.431C415.646 385.431 415.758 385.455 415.862 385.494C415.741 385.331 415.572 385.207 415.375 385.146C415.414 385.239 415.447 385.336 415.471 385.437C415.49 385.436 415.509 385.431 415.528 385.431Z" fill="#782B68"/>
<path d="M405.309 386.572C405.316 386.545 405.324 386.518 405.333 386.491C405.328 386.485 405.323 386.48 405.319 386.474C405.316 386.507 405.313 386.54 405.309 386.572Z" fill="#782B68"/>
<path d="M395.279 384.411C395.627 384.411 395.952 384.504 396.235 384.661C395.878 384.305 395.388 384.082 394.844 384.082C394.237 384.082 393.696 384.357 393.334 384.787C393.465 384.929 393.574 385.091 393.648 385.272C394.004 384.753 394.602 384.411 395.279 384.411Z" fill="#782B68"/>
<path d="M405.139 385.76C405.208 385.298 405.603 384.942 406.085 384.942C406.339 384.942 406.569 385.043 406.741 385.204C406.837 384.521 407.418 383.993 408.128 383.993C408.347 383.993 408.552 384.047 408.737 384.137C408.481 383.848 408.11 383.664 407.692 383.664C406.983 383.664 406.402 384.192 406.306 384.875C406.134 384.714 405.904 384.613 405.65 384.613C405.193 384.613 404.817 384.935 404.721 385.362C404.891 385.459 405.034 385.596 405.139 385.76Z" fill="#782B68"/>
<path d="M418.909 384.458C418.736 384.377 418.546 384.328 418.342 384.328C417.713 384.328 417.188 384.764 417.045 385.349C416.726 385.408 416.471 385.641 416.376 385.945C416.284 385.773 416.142 385.632 415.969 385.542C415.935 385.523 415.899 385.507 415.862 385.494C415.758 385.454 415.647 385.431 415.529 385.431C415.509 385.431 415.491 385.436 415.471 385.437C415.447 385.336 415.414 385.239 415.375 385.145C415.204 384.732 414.896 384.389 414.508 384.173C414.225 384.016 413.9 383.927 413.553 383.927C412.658 383.927 411.903 384.522 411.66 385.338C411.541 385.195 411.397 385.075 411.236 384.98C411.211 384.966 411.185 384.952 411.16 384.939C410.934 384.821 410.678 384.753 410.405 384.753C410.062 384.753 409.744 384.858 409.481 385.038C409.437 384.872 409.361 384.72 409.264 384.584C409.128 384.394 408.948 384.241 408.737 384.138C408.552 384.048 408.347 383.994 408.128 383.994C407.418 383.994 406.837 384.522 406.741 385.205C406.569 385.043 406.339 384.943 406.085 384.943C405.603 384.943 405.208 385.298 405.139 385.761C405.035 385.596 404.891 385.459 404.721 385.363C404.687 385.344 404.652 385.328 404.617 385.312C404.472 385.248 404.312 385.211 404.143 385.211C403.783 385.211 403.464 385.375 403.247 385.628C403.214 385.434 403.147 385.251 403.052 385.086C402.896 384.813 402.661 384.595 402.382 384.45C402.157 384.333 401.903 384.262 401.631 384.262C400.995 384.262 400.444 384.625 400.172 385.154C399.953 385.021 399.696 384.943 399.421 384.943C398.894 384.943 398.434 385.224 398.18 385.644C398.126 385.448 398.012 385.278 397.86 385.152C397.778 385.085 397.686 385.031 397.585 384.994C397.482 384.956 397.372 384.934 397.255 384.934C397.071 384.934 396.901 384.988 396.755 385.077C396.637 384.944 396.5 384.829 396.35 384.732C396.313 384.708 396.274 384.684 396.235 384.662C395.951 384.504 395.627 384.412 395.279 384.412C394.602 384.412 394.004 384.753 393.648 385.273C393.574 385.091 393.465 384.929 393.334 384.788C393.205 384.647 393.052 384.528 392.881 384.44C392.656 384.323 392.402 384.256 392.131 384.256C391.308 384.256 390.628 384.863 390.51 385.653C390.422 385.607 390.33 385.569 390.233 385.542C390.246 385.457 390.255 385.371 390.255 385.283C390.255 385.149 390.238 385.019 390.207 384.895C390.095 384.43 389.785 384.043 389.37 383.827C389.144 383.709 388.887 383.642 388.615 383.642C387.708 383.642 386.974 384.376 386.974 385.283C386.974 385.381 386.984 385.476 387 385.57C386.924 385.306 386.758 385.082 386.54 384.928C386.476 384.883 386.408 384.846 386.336 384.814C386.193 384.752 386.036 384.713 385.869 384.713C385.346 384.713 384.907 385.054 384.751 385.525C384.647 385.358 384.514 385.212 384.359 385.092C384.281 385.031 384.197 384.979 384.109 384.933C383.884 384.816 383.629 384.747 383.357 384.747C382.978 384.747 382.631 384.876 382.354 385.091C382.256 384.945 382.132 384.818 381.989 384.715C381.926 384.67 381.858 384.632 381.788 384.597C381.594 384.501 381.377 384.445 381.147 384.445C380.345 384.445 379.695 385.095 379.695 385.897C379.695 386.271 379.838 386.611 380.071 386.868C380.336 387.162 380.719 387.348 381.147 387.348C381.365 387.348 381.572 387.297 381.757 387.21C381.805 387.187 381.853 387.164 381.898 387.136C381.968 387.272 382.057 387.397 382.16 387.508C382.459 387.828 382.884 388.029 383.357 388.029C384.169 388.029 384.842 387.437 384.973 386.662C385.19 386.916 385.509 387.08 385.869 387.08C386.194 387.08 386.487 386.946 386.7 386.733C386.762 386.671 386.818 386.604 386.865 386.53C386.889 386.69 386.954 386.835 387.046 386.959C387.22 387.194 387.496 387.348 387.811 387.348C387.953 387.348 388.085 387.314 388.206 387.259C388.302 387.214 388.391 387.157 388.467 387.086C388.507 387.368 388.632 387.62 388.812 387.823C389.068 388.112 389.437 388.297 389.854 388.297C390.505 388.297 391.047 387.853 391.208 387.253C391.471 387.432 391.789 387.538 392.131 387.538C392.539 387.538 392.909 387.387 393.196 387.141C393.264 387.083 393.329 387.021 393.387 386.953C393.482 387.272 393.656 387.555 393.886 387.784C394.243 388.141 394.734 388.364 395.279 388.364C396.21 388.364 396.988 387.72 397.198 386.854C397.217 386.855 397.236 386.859 397.255 386.859C397.419 386.859 397.57 386.814 397.704 386.741C397.807 386.685 397.9 386.614 397.976 386.526C398.005 386.848 398.144 387.136 398.348 387.362C398.614 387.656 398.993 387.845 399.421 387.845C399.454 387.845 399.487 387.841 399.52 387.839C399.688 387.915 399.872 387.962 400.068 387.962C400.491 387.962 400.863 387.762 401.109 387.457C401.273 387.512 401.448 387.544 401.631 387.544C402.148 387.544 402.608 387.304 402.909 386.93C402.951 386.877 402.99 386.823 403.025 386.766C403.072 386.907 403.147 387.035 403.24 387.147C403.456 387.408 403.777 387.577 404.143 387.577C404.445 387.577 404.717 387.46 404.925 387.273C405.088 387.126 405.212 386.937 405.275 386.721C405.258 386.814 405.248 386.91 405.248 387.008C405.248 387.444 405.42 387.84 405.698 388.134C405.997 388.45 406.419 388.649 406.889 388.649C407.795 388.649 408.53 387.914 408.53 387.008C408.53 386.939 408.521 386.873 408.513 386.806C408.51 386.787 408.511 386.767 408.507 386.749C408.605 386.721 408.697 386.684 408.784 386.637C408.835 386.977 408.994 387.279 409.219 387.517C409.517 387.833 409.936 388.035 410.405 388.035C411.055 388.035 411.613 387.655 411.878 387.107C411.893 387.077 411.91 387.049 411.923 387.018C411.994 387.121 412.077 387.215 412.165 387.303C412.522 387.657 413.011 387.878 413.553 387.878C414.141 387.878 414.668 387.62 415.03 387.213C415.176 387.302 415.346 387.356 415.529 387.356C415.96 387.356 416.319 387.071 416.442 386.681C416.446 386.668 416.452 386.656 416.456 386.642C416.467 386.662 416.481 386.68 416.494 386.699C416.65 386.925 416.908 387.075 417.204 387.075C417.416 387.075 417.608 386.996 417.76 386.869C417.937 386.955 418.133 387.008 418.343 387.008C419.082 387.008 419.682 386.408 419.682 385.668C419.682 385.132 419.364 384.672 418.909 384.458ZM387.034 385.717C387.041 385.744 387.049 385.771 387.058 385.798C387.053 385.804 387.048 385.81 387.043 385.815C387.041 385.782 387.038 385.749 387.034 385.717ZM405.308 386.573C405.313 386.54 405.315 386.507 405.317 386.474C405.322 386.48 405.327 386.485 405.332 386.491C405.323 386.518 405.315 386.545 405.308 386.573Z" fill="#6D204E"/>
<path d="M419.349 392.187H378.018C377.446 392.187 376.982 391.723 376.982 391.151V387.596C376.982 387.024 377.446 386.561 378.018 386.561H419.349C419.921 386.561 420.385 387.024 420.385 387.596V391.151C420.385 391.723 419.921 392.187 419.349 392.187Z" fill="#E74646"/>
<path d="M418.108 391.383H379.26L382.751 411.249C382.979 412.542 384.102 413.486 385.416 413.486H411.951C413.265 413.486 414.389 412.542 414.616 411.249L418.108 391.383Z" fill="#E74646"/>
<path d="M417.801 393.124L417.966 392.187H379.4L379.565 393.124H417.801Z" fill="#AA3939"/>
<path d="M419.759 356.911C420.161 356.286 420.965 355.817 421.411 356.04C421.462 356.066 421.503 356.097 421.538 356.132C421.527 355.923 421.467 355.722 421.255 355.616C420.823 355.4 420.058 355.832 419.645 356.427C419.626 356.864 419.633 357.107 419.759 356.911Z" fill="#DE4835"/>
<path d="M421.676 357.115C421.677 357.13 421.678 357.144 421.68 357.156C421.697 357.25 421.747 357.353 421.801 357.471C421.77 357.339 421.724 357.221 421.676 357.115Z" fill="#DE4835"/>
<path d="M416.244 359.897C416.276 360.006 416.317 360.113 416.368 360.199C416.319 359.993 416.3 359.813 416.3 359.813C416.3 359.813 416.299 359.863 416.244 359.897Z" fill="#DE4835"/>
<path d="M413.955 356.888C413.955 356.665 414.446 356.799 414.446 356.799C414.446 356.799 414.044 355.705 414.803 355.347C415.562 354.99 416.188 357.781 416.433 357.67C416.679 357.558 416.746 354.901 416.813 354.588C416.88 354.276 418.197 352.892 419.179 353.294C419.288 353.338 419.374 353.426 419.443 353.544C419.368 353.21 419.238 352.957 419.023 352.869C418.041 352.468 416.724 353.852 416.657 354.164C416.59 354.477 416.523 357.134 416.277 357.245C416.031 357.357 415.406 354.566 414.647 354.923C413.888 355.281 414.29 356.375 414.29 356.375C414.29 356.375 413.799 356.241 413.799 356.464C413.799 356.571 413.938 357.134 414.178 357.735C414.035 357.313 413.955 356.969 413.955 356.888Z" fill="#DE4835"/>
<path d="M398.19 339.135C398.19 339.135 399.037 338.654 399.116 338.9C399.195 339.145 399.544 339.583 399.652 339.584C399.761 339.585 400.412 339.646 400.686 339.431C400.959 339.217 400.909 338.782 401.346 338.542C401.783 338.302 402.461 338.39 403.254 337.8C404.048 337.211 404.651 336.592 404.657 336.022C404.663 335.452 404.341 335.069 404.289 334.77C404.238 334.47 404.517 333.686 403.977 333.409C403.437 333.132 402.454 333.692 401.957 334.448C401.461 335.203 402.485 330.543 401.295 330.042C400.106 329.542 398.487 331.209 398.402 331.588C398.316 331.967 398.203 335.197 397.903 335.33C397.603 335.463 396.876 332.062 395.949 332.487C395.021 332.912 395.497 334.247 395.497 334.247C395.497 334.247 394.901 334.079 394.898 334.35C394.896 334.621 395.602 337.317 396.656 337.816C397.71 338.315 397.714 337.935 397.714 337.935C397.714 337.935 397.811 338.995 398.19 339.135Z" fill="#F1735B"/>
<path d="M394.898 334.35C394.9 334.078 395.496 334.247 395.496 334.247C395.496 334.247 395.021 332.912 395.948 332.487C396.875 332.062 397.602 335.463 397.902 335.33C398.202 335.198 398.316 331.967 398.401 331.588C398.486 331.209 400.105 329.542 401.294 330.042C401.426 330.098 401.529 330.206 401.612 330.35C401.524 329.943 401.37 329.634 401.11 329.525C399.92 329.024 398.301 330.691 398.216 331.071C398.131 331.45 398.017 334.68 397.717 334.813C397.417 334.946 396.691 331.544 395.763 331.969C394.836 332.395 395.311 333.73 395.311 333.73C395.311 333.73 394.716 333.561 394.713 333.832C394.712 333.962 394.874 334.649 395.158 335.383C394.99 334.867 394.897 334.449 394.898 334.35Z" fill="#DE4835"/>
<path d="M377.483 370.257H375.732V370.088H377.242L376.412 367.79L376.571 367.732L377.483 370.257Z" fill="#BE1622"/>
<path d="M375.674 368.371L375.555 368.49L377.296 370.232L377.416 370.112L375.674 368.371Z" fill="#BE1622"/>
<path d="M381.54 371.522L380.979 370.782L381.113 370.68L381.534 371.234L381.914 370.683L382.053 370.779L381.54 371.522Z" fill="#BE1622"/>
<path d="M385.232 366.93L384.266 366.727L384.3 366.562L385.031 366.715L384.936 366.031L385.103 366.008L385.232 366.93Z" fill="#BE1622"/>
<path d="M372.944 363.3L372.805 363.204L373.226 362.6H371.691V362.431H373.55L372.944 363.3Z" fill="#BE1622"/>
<path d="M370.597 358.313H369.011V358.144H370.194L368.951 356.881L369.072 356.763L370.597 358.313Z" fill="#BE1622"/>
<path d="M375.481 355.176L374.602 355.029L374.629 354.862L375.357 354.983L375.538 354.299L375.702 354.342L375.481 355.176Z" fill="#BE1622"/>
<path d="M382.46 358.962L382.27 358.18H382.141L382.244 358.071L382.23 358.011H382.301L383.038 357.232L383.161 357.349L382.533 358.011H382.944V358.18H382.444L382.624 358.923L382.46 358.962Z" fill="#BE1622"/>
<path d="M382.107 354.808L382.756 353.437L382.909 353.509L382.396 354.593L382.819 354.528L382.845 354.695L382.107 354.808Z" fill="#BE1622"/>
<path d="M379.44 350.472L379.287 349.219L379.455 349.198L379.573 350.167L380.036 349.832L380.135 349.969L379.44 350.472Z" fill="#BE1622"/>
<path d="M381.541 362.371L380.961 363.979L381.12 364.036L381.7 362.428L381.541 362.371Z" fill="#BE1622"/>
<path d="M377.62 377.681L377.485 377.578L378.633 376.069L376.305 375.838L376.321 375.67L378.95 375.931L377.62 377.681Z" fill="#BE1622"/>
<path d="M378.768 375.915L376.523 376.807L376.586 376.964L378.83 376.072L378.768 375.915Z" fill="#BE1622"/>
<path d="M382.961 380.028L381.758 379.584L381.816 379.426L382.792 379.786V379.215H382.961V380.028Z" fill="#BE1622"/>
<path d="M387.711 379.392L387.082 378.621L387.213 378.514L387.64 379.037L387.872 378.253L388.035 378.301L387.711 379.392Z" fill="#BE1622"/>
<path d="M386.123 374.992L386.013 374.864L387.77 373.346L385.76 372.912L385.795 372.747L388.137 373.252L386.123 374.992Z" fill="#BE1622"/>
<path d="M388.325 343.324L386.162 342.534L386.22 342.375L388.137 343.076L387.949 340.518L388.117 340.506L388.325 343.324Z" fill="#BE1622"/>
<path d="M387.038 341.077L386.895 341.166L388.164 343.218L388.308 343.129L387.038 341.077Z" fill="#BE1622"/>
<path d="M383.111 351.078L383.086 350.911L385.605 350.534L383.721 348.754L383.837 348.631L385.973 350.65L383.111 351.078Z" fill="#BE1622"/>
<path d="M383.605 358.878L383.555 358.717L385.605 358.085L383.764 356.722L383.864 356.586L385.975 358.148L383.605 358.878Z" fill="#BE1622"/>
<path d="M422.539 363.609L423.457 361.773L423.608 361.849L422.852 363.362L423.672 363.169L423.711 363.333L422.539 363.609Z" fill="#BE1622"/>
<path d="M422.477 370.563L423.622 368.831L423.762 368.924L422.915 370.206L424.339 369.636L424.402 369.793L422.477 370.563Z" fill="#BE1622"/>
<path d="M415.324 368.797L413.889 367.09L414.018 366.981L415.061 368.222L414.841 366.836L415.008 366.81L415.324 368.797Z" fill="#BE1622"/>
<path d="M417.911 370.051L417.723 369.3L417.887 369.259L418.034 369.846L419.224 369.549L419.265 369.713L417.911 370.051Z" fill="#BE1622"/>
<path d="M412.076 377.584L411.141 377.366L411.179 377.201L411.967 377.385L412.435 376.05L412.595 376.106L412.076 377.584Z" fill="#BE1622"/>
<path d="M416.535 375.679V374.839H416.704V375.473L417.789 375.258L417.821 375.424L416.535 375.679Z" fill="#BE1622"/>
<path d="M405.601 366.549L404.865 364.249L405.026 364.197L405.697 366.295L408.386 364.686L408.472 364.831L405.601 366.549Z" fill="#BE1622"/>
<path d="M405.237 357.863L405.033 357.32L405.191 357.261L405.322 357.609L406.106 357.118L406.195 357.261L405.237 357.863Z" fill="#BE1622"/>
<path d="M394.944 357.81H393.994V357.641H394.719L394.331 356.293L394.494 356.246L394.944 357.81Z" fill="#BE1622"/>
<path d="M405.029 349.178V347.234H405.198V348.589L406.214 346.964L406.358 347.053L405.029 349.178Z" fill="#BE1622"/>
<path d="M406.849 348.604L405.107 348.796L405.126 348.964L406.867 348.772L406.849 348.604Z" fill="#BE1622"/>
<path d="M406.924 340.938L407.273 338.457L407.441 338.481L407.12 340.755L411.671 340.427L411.683 340.596L406.924 340.938Z" fill="#BE1622"/>
<path d="M408.168 339.537L406.928 340.791L407.048 340.91L408.288 339.656L408.168 339.537Z" fill="#BE1622"/>
<path d="M410.568 350.251L410.387 348.702L410.555 348.683L410.708 349.996L412.075 349.332L412.149 349.484L410.568 350.251Z" fill="#BE1622"/>
<path d="M397.228 377.31L395.811 376.862L395.861 376.701L396.989 377.057L396.524 375.228L396.688 375.187L397.228 377.31Z" fill="#BE1622"/>
<path d="M381.582 353.071C381.177 351.776 380.021 350.539 378.604 349.711C378.296 350.83 377.714 353.607 378.757 355.85C379.637 357.741 381.233 359.054 382.226 359.734C382.445 357.678 382.428 355.115 381.582 353.071Z" fill="#547A74"/>
<path d="M173.644 100.519H37.2753C27.0214 100.519 18.709 108.831 18.709 119.085V196.71C18.709 206.964 27.0214 215.277 37.2753 215.277H149.936C155.189 235.95 178.533 241.941 178.533 241.941C171.804 233.794 169.755 221.491 169.135 215.277H173.645C183.899 215.277 192.211 206.964 192.211 196.71V119.085C192.211 108.831 183.899 100.519 173.644 100.519Z" fill="#A4EAE8"/>
<path d="M42.5259 127.063C43.6089 127.063 44.6918 127.063 45.7748 127.063C48.6956 127.063 51.6164 127.063 54.5371 127.063C58.8674 127.063 63.1978 127.063 67.5281 127.063C72.8112 127.063 78.0945 127.063 83.3776 127.063C89.1441 127.063 94.9104 127.063 100.677 127.063C106.537 127.063 112.397 127.063 118.258 127.063C123.685 127.063 129.112 127.063 134.538 127.063C139.141 127.063 143.743 127.063 148.346 127.063C151.655 127.063 154.964 127.063 158.273 127.063C159.836 127.063 161.402 127.087 162.965 127.063C163.033 127.062 163.102 127.063 163.17 127.063C164.084 127.063 164.86 126.286 164.86 125.373C164.86 124.456 164.087 123.683 163.17 123.683C162.087 123.683 161.004 123.683 159.921 123.683C157.001 123.683 154.08 123.683 151.159 123.683C146.829 123.683 142.498 123.683 138.168 123.683C132.885 123.683 127.602 123.683 122.319 123.683C116.552 123.683 110.786 123.683 105.019 123.683C99.1592 123.683 93.2989 123.683 87.4385 123.683C82.0116 123.683 76.5847 123.683 71.1577 123.683C66.5552 123.683 61.9528 123.683 57.3503 123.683C54.0413 123.683 50.7322 123.683 47.4232 123.683C45.8598 123.683 44.2944 123.658 42.7311 123.683C42.6628 123.684 42.5944 123.683 42.5259 123.683C41.6127 123.683 40.8359 124.459 40.8359 125.373C40.8359 126.289 41.6095 127.063 42.5259 127.063Z" fill="#EAF4F4"/>
<path d="M42.5272 141.302C43.2708 141.302 44.0146 141.302 44.7582 141.302C46.7639 141.302 48.7695 141.302 50.7752 141.302C53.7488 141.302 56.7225 141.302 59.6961 141.302C63.324 141.302 66.9519 141.302 70.5798 141.302C74.5395 141.302 78.4993 141.302 82.459 141.302C86.4832 141.302 90.5075 141.302 94.5317 141.302C98.2583 141.302 101.985 141.302 105.712 141.302C108.872 141.302 112.033 141.302 115.193 141.302C117.465 141.302 119.738 141.302 122.01 141.302C123.084 141.302 124.158 141.316 125.232 141.302C125.279 141.302 125.326 141.302 125.373 141.302C126.257 141.302 127.104 140.525 127.063 139.612C127.022 138.697 126.32 137.922 125.373 137.922C124.629 137.922 123.886 137.922 123.142 137.922C121.136 137.922 119.131 137.922 117.125 137.922C114.151 137.922 111.178 137.922 108.204 137.922C104.576 137.922 100.948 137.922 97.3204 137.922C93.3605 137.922 89.4009 137.922 85.4412 137.922C81.417 137.922 77.3927 137.922 73.3685 137.922C69.6419 137.922 65.9153 137.922 62.1887 137.922C59.0282 137.922 55.8677 137.922 52.7071 137.922C50.4349 137.922 48.1625 137.922 45.8903 137.922C44.8166 137.922 43.7418 137.908 42.6681 137.922C42.6212 137.923 42.5742 137.922 42.5274 137.922C41.6433 137.922 40.7965 138.699 40.8374 139.612C40.8783 140.528 41.5798 141.302 42.5272 141.302Z" fill="#EAF4F4"/>
<path d="M42.5259 155.541C43.6089 155.541 44.6918 155.541 45.7748 155.541C48.6956 155.541 51.6164 155.541 54.5371 155.541C58.8674 155.541 63.1978 155.541 67.5281 155.541C72.8112 155.541 78.0945 155.541 83.3776 155.541C89.1441 155.541 94.9104 155.541 100.677 155.541C106.537 155.541 112.397 155.541 118.258 155.541C123.685 155.541 129.112 155.541 134.538 155.541C139.141 155.541 143.743 155.541 148.346 155.541C151.655 155.541 154.964 155.541 158.273 155.541C159.836 155.541 161.402 155.566 162.965 155.541C163.033 155.54 163.102 155.541 163.17 155.541C164.084 155.541 164.86 154.764 164.86 153.851C164.86 152.935 164.087 152.161 163.17 152.161C162.087 152.161 161.004 152.161 159.921 152.161C157.001 152.161 154.08 152.161 151.159 152.161C146.829 152.161 142.498 152.161 138.168 152.161C132.885 152.161 127.602 152.161 122.319 152.161C116.552 152.161 110.786 152.161 105.019 152.161C99.1592 152.161 93.2989 152.161 87.4385 152.161C82.0116 152.161 76.5847 152.161 71.1577 152.161C66.5552 152.161 61.9528 152.161 57.3503 152.161C54.0413 152.161 50.7322 152.161 47.4232 152.161C45.8598 152.161 44.2944 152.137 42.7311 152.161C42.6628 152.162 42.5944 152.161 42.5259 152.161C41.6127 152.161 40.8359 152.938 40.8359 153.851C40.8359 154.768 41.6095 155.541 42.5259 155.541Z" fill="#EAF4F4"/>
<path d="M42.5272 168.486C43.2708 168.486 44.0146 168.486 44.7582 168.486C46.7639 168.486 48.7695 168.486 50.7752 168.486C53.7488 168.486 56.7225 168.486 59.6961 168.486C63.324 168.486 66.9519 168.486 70.5798 168.486C74.5395 168.486 78.4993 168.486 82.459 168.486C86.4832 168.486 90.5075 168.486 94.5317 168.486C98.2583 168.486 101.985 168.486 105.712 168.486C108.872 168.486 112.033 168.486 115.193 168.486C117.465 168.486 119.738 168.486 122.01 168.486C123.084 168.486 124.158 168.5 125.232 168.486C125.279 168.485 125.326 168.486 125.373 168.486C126.257 168.486 127.104 167.709 127.063 166.796C127.022 165.88 126.32 165.106 125.373 165.106C124.629 165.106 123.886 165.106 123.142 165.106C121.136 165.106 119.131 165.106 117.125 165.106C114.151 165.106 111.178 165.106 108.204 165.106C104.576 165.106 100.948 165.106 97.3204 165.106C93.3605 165.106 89.4009 165.106 85.4412 165.106C81.417 165.106 77.3927 165.106 73.3685 165.106C69.6419 165.106 65.9153 165.106 62.1887 165.106C59.0282 165.106 55.8677 165.106 52.7071 165.106C50.4349 165.106 48.1625 165.106 45.8903 165.106C44.8166 165.106 43.7418 165.092 42.6681 165.106C42.6212 165.107 42.5742 165.106 42.5274 165.106C41.6433 165.106 40.7965 165.883 40.8374 166.796C40.8783 167.711 41.5798 168.486 42.5272 168.486Z" fill="#EAF4F4"/>
<path d="M399.11 202.539H360.72C355.855 202.539 351.912 206.483 351.912 211.347V211.651L332.871 219.2L351.912 226.749V227.053C351.912 231.918 355.855 235.861 360.72 235.861H399.11C403.974 235.861 407.918 231.918 407.918 227.053V211.347C407.918 206.483 403.974 202.539 399.11 202.539Z" fill="#A4EAE8"/>
<path d="M394.092 223.777C396.62 223.777 398.669 221.728 398.669 219.201C398.669 216.673 396.62 214.624 394.092 214.624C391.565 214.624 389.516 216.673 389.516 219.201C389.516 221.728 391.565 223.777 394.092 223.777Z" fill="#1C1A4D"/>
<path d="M380.006 223.777C382.534 223.777 384.583 221.728 384.583 219.201C384.583 216.673 382.534 214.624 380.006 214.624C377.479 214.624 375.43 216.673 375.43 219.201C375.43 221.728 377.479 223.777 380.006 223.777Z" fill="#1C1A4D"/>
<path d="M365.92 223.777C368.448 223.777 370.497 221.728 370.497 219.201C370.497 216.673 368.448 214.624 365.92 214.624C363.393 214.624 361.344 216.673 361.344 219.201C361.344 221.728 363.393 223.777 365.92 223.777Z" fill="#1C1A4D"/>
</svg>
