<?xml version="1.0" encoding="utf-8"?>
<!-- Generator: Adobe Illustrator 26.0.0, SVG Export Plug-In . SVG Version: 6.00 Build 0)  -->
<svg version="1.1" id="Layer_1" xmlns="http://www.w3.org/2000/svg" xmlns:xlink="http://www.w3.org/1999/xlink" x="0px" y="0px"
	 viewBox="0 0 142.2 141.4" style="enable-background:new 0 0 142.2 141.4;" xml:space="preserve">
<style type="text/css">
	.st0{fill-rule:evenodd;clip-rule:evenodd;fill:url(#SVGID_1_);}
	.st1{fill-rule:evenodd;clip-rule:evenodd;fill:#4DE400;}
</style>
<linearGradient id="SVGID_1_" gradientUnits="userSpaceOnUse" x1="1.8243" y1="70.8066" x2="139.831" y2="70.8066" gradientTransform="matrix(0.9592 0.2827 -0.2827 0.9592 22.9032 -17.133)">
	<stop  offset="1.385225e-07" style="stop-color:#4DE400"/>
	<stop  offset="0.1848" style="stop-color:#4BE106;stop-opacity:0.8296"/>
	<stop  offset="0.4236" style="stop-color:#44D816;stop-opacity:0.6095"/>
	<stop  offset="0.6918" style="stop-color:#3AC930;stop-opacity:0.3623"/>
	<stop  offset="0.9797" style="stop-color:#2BB455;stop-opacity:9.686995e-02"/>
	<stop  offset="1" style="stop-color:#2AB258;stop-opacity:7.819332e-02"/>
</linearGradient>
<path class="st0" d="M135.2,46C121.5,10.4,81.6-7.3,46,6.4C10.5,20.1-7.3,60,6.4,95.6c13.7,35.6,53.6,53.3,89.2,39.6
	C131.2,121.5,148.9,81.6,135.2,46z M29,31.4C7.2,54.5,8.3,90.9,31.4,112.7s59.5,20.7,81.3-2.5c21.8-23.1,20.7-59.5-2.5-81.3
	C87.1,7.2,50.7,8.3,29,31.4z"/>
<path class="st1" d="M22.2,30c-2.2-2.3-2.2-5.9,0-8.1c2.1-2.1,4.3-4,6.7-5.8c2.5-1.9,6.1-1.5,8.1,1.1c1.9,2.5,1.5,6.1-1.1,8.1
	c-2,1.5-3.8,3.1-5.6,4.9C28,32.3,24.4,32.3,22.2,30z"/>
</svg>
