<svg width="500" height="500" viewBox="0 0 500 500" fill="none" xmlns="http://www.w3.org/2000/svg">
<path d="M500 382.398H0V382.648H500V382.398Z" fill="#EBEBEB"/>
<path d="M85.581 391.922H52.459V392.172H85.581V391.922Z" fill="#EBEBEB"/>
<path d="M225 392.047H171.14V392.297H225V392.047Z" fill="#EBEBEB"/>
<path d="M124.966 397.083H105.774V397.333H124.966V397.083Z" fill="#EBEBEB"/>
<path d="M446.001 396.958H426.766V397.208H446.001V396.958Z" fill="#EBEBEB"/>
<path d="M417.862 396.958H387.57V397.208H417.862V396.958Z" fill="#EBEBEB"/>
<path d="M370.889 395.306H328.333V395.556H370.889V395.306Z" fill="#EBEBEB"/>
<path d="M237.014 337.8H43.915C40.768 337.8 38.207 335.239 38.207 332.092V60.66C38.207 57.513 40.768 54.952 43.915 54.952H237.014C240.16 54.952 242.721 57.513 242.721 60.66V332.092C242.721 335.239 240.16 337.8 237.014 337.8ZM43.915 55.203C40.905 55.203 38.457 57.651 38.457 60.661V332.093C38.457 335.103 40.905 337.551 43.915 337.551H237.014C240.023 337.551 242.471 335.103 242.471 332.093V60.66C242.471 57.651 240.023 55.202 237.014 55.202L43.915 55.203Z" fill="#EBEBEB"/>
<path d="M453.31 337.8H260.212C257.065 337.8 254.505 335.239 254.505 332.092V60.66C254.505 57.513 257.066 54.952 260.212 54.952H453.31C456.458 54.952 459.018 57.513 459.018 60.66V332.092C459.019 335.239 456.458 337.8 453.31 337.8ZM260.212 55.203C257.203 55.203 254.755 57.651 254.755 60.661V332.093C254.755 335.103 257.203 337.551 260.212 337.551H453.31C456.32 337.551 458.768 335.103 458.768 332.093V60.66C458.768 57.651 456.32 55.202 453.31 55.202L260.212 55.203Z" fill="#EBEBEB"/>
<path d="M415.841 307.731C421.058 305.96 424.856 300.922 421.535 295.761C416.041 287.222 429.789 285.404 425.93 271.111C420.483 250.933 403.6 268.423 399.401 249.054C396.346 234.962 372.679 225.73 371.754 244.282C370.741 264.596 360.559 251.328 358.298 273.91C356.734 289.525 378.957 291.799 372.325 296.684C367.481 300.252 364.614 306.462 371.378 310.714C380.587 316.502 371.895 321.023 378.155 325.062C384.329 329.045 385.438 322.662 395.159 325.797C403.852 328.6 411.217 320.01 409.486 314.64C407.872 309.628 410.59 309.514 415.841 307.731Z" fill="#E6E6E6"/>
<path d="M365.598 317.015C365.598 317.015 366.313 382.398 393.714 382.398C421.115 382.398 421.83 317.015 421.83 317.015H365.598Z" fill="#F0F0F0"/>
<path d="M190.331 89.576H69.02V219.355H190.331V89.576Z" fill="#E6E6E6"/>
<path d="M196.378 89.576H71.8462V219.355H196.378V89.576Z" fill="#F0F0F0"/>
<path d="M190.331 219.355H69.02V230.592H190.331V219.355Z" fill="#E6E6E6"/>
<path d="M206.451 219.355H81.9189V230.592H206.451V219.355Z" fill="#F0F0F0"/>
<path d="M187.913 210.89L187.913 98.0413L80.3116 98.0413L80.3116 210.89H187.913Z" fill="#FAFAFA"/>
<path d="M95.9219 210.89L145.609 98.041H169.064L119.378 210.89H95.9219Z" fill="white"/>
<path d="M84.23 202.464C83.896 202.464 83.625 202.193 83.625 201.859V103.549C83.625 103.215 83.896 102.944 84.23 102.944C84.564 102.944 84.835 103.215 84.835 103.549V201.859C84.835 202.194 84.564 202.464 84.23 202.464Z" fill="#F0F0F0"/>
<path d="M124.416 210.89L174.103 98.041H183.247L133.56 210.89H124.416Z" fill="white"/>
<path d="M187.913 210.89L187.913 98.0413H186.838L186.838 210.89H187.913Z" fill="#E6E6E6"/>
<path opacity="0.6" d="M198.38 110.806H77.069L76.29 101.332H197.601L198.38 110.806Z" fill="#EBEBEB"/>
<path opacity="0.6" d="M198.38 126.343H77.069L76.29 116.87H197.601L198.38 126.343Z" fill="#EBEBEB"/>
<path opacity="0.6" d="M198.38 141.88H77.069L76.29 132.407H197.601L198.38 141.88Z" fill="#EBEBEB"/>
<path opacity="0.6" d="M198.38 157.418H77.069L76.29 147.944H197.601L198.38 157.418Z" fill="#EBEBEB"/>
<path opacity="0.6" d="M198.38 172.955H77.069L76.29 163.482H197.601L198.38 172.955Z" fill="#EBEBEB"/>
<path opacity="0.6" d="M198.38 188.492H77.069L76.29 179.019H197.601L198.38 188.492Z" fill="#EBEBEB"/>
<path d="M381.2 266.211H336.415V382.398H381.2V266.211Z" fill="#E6E6E6"/>
<path d="M369.241 382.398H381.2V362.357H356.702L369.241 382.398Z" fill="#F5F5F5"/>
<path d="M266.061 266.211H221.276V382.398H266.061V266.211Z" fill="#E6E6E6"/>
<path d="M381.201 266.211H255.625V375.5H381.201V266.211Z" fill="#F5F5F5"/>
<path d="M371.923 276.357H264.902V299.259H371.923V276.357Z" fill="#F0F0F0"/>
<path d="M267.584 382.398H255.625V362.357H280.123L267.584 382.398Z" fill="#F5F5F5"/>
<path d="M371.923 309.405H264.902V332.307H371.923V309.405Z" fill="#F0F0F0"/>
<path d="M371.923 342.452H264.902V365.354H371.923V342.452Z" fill="#F0F0F0"/>
<path d="M250.477 266.211H205.692V382.398H250.477V266.211Z" fill="#E6E6E6"/>
<path d="M238.518 382.398H250.477V362.357H225.979L238.518 382.398Z" fill="#F5F5F5"/>
<path d="M135.338 266.211H90.5532V382.398H135.338V266.211Z" fill="#E6E6E6"/>
<path d="M250.478 266.211H124.902V375.5H250.478V266.211Z" fill="#F5F5F5"/>
<path d="M241.2 276.357H134.179V299.259H241.2V276.357Z" fill="#F0F0F0"/>
<path d="M136.861 382.398H124.902V362.357H149.4L136.861 382.398Z" fill="#F5F5F5"/>
<path d="M241.2 309.405H134.179V332.307H241.2V309.405Z" fill="#F0F0F0"/>
<path d="M241.2 342.452H134.179V365.354H241.2V342.452Z" fill="#F0F0F0"/>
<path d="M300.837 246.466C300.55 246.466 300.278 246.517 300 246.551V244.917C300 243.599 298.932 242.531 297.614 242.531H284.82C283.502 242.531 282.433 243.6 282.433 244.917V266.211H300V261.934C300.278 261.967 300.551 262.019 300.837 262.019C304.716 262.019 307.871 258.863 307.871 254.985V253.5C307.871 249.622 304.716 246.466 300.837 246.466ZM304.857 254.984C304.857 257.201 303.054 259.004 300.837 259.004C300.55 259.004 300.27 258.971 300 258.913V249.57C300.271 249.513 300.55 249.48 300.837 249.48C303.054 249.48 304.857 251.283 304.857 253.5V254.984Z" fill="#E6E6E6"/>
<path d="M422.346 202.541V107.445L295.154 107.445V202.541L422.346 202.541Z" fill="#E6E6E6"/>
<path d="M423.8 207.391V107.444L296.608 107.444V207.391L423.8 207.391Z" fill="#F0F0F0"/>
<path d="M311.189 115.817H409.215C412.645 115.817 415.425 118.597 415.425 122.027V192.808C415.425 196.238 412.645 199.018 409.215 199.018H311.189C307.759 199.018 304.979 196.238 304.979 192.808V122.027C304.979 118.597 307.759 115.817 311.189 115.817Z" fill="#E6E6E6"/>
<path d="M311.189 115.817H409.215C412.645 115.817 415.425 118.597 415.425 122.027V191.359C415.425 194.789 412.645 197.569 409.215 197.569H311.189C307.759 197.569 304.979 194.789 304.979 191.359V122.027C304.979 118.597 307.759 115.817 311.189 115.817Z" fill="white"/>
<path d="M378.218 171.479L397.964 157.224C398.37 156.931 398.37 156.455 397.964 156.162L378.219 141.907C368.285 134.736 352.121 134.736 342.187 141.908L322.441 156.163C322.035 156.456 322.035 156.932 322.441 157.225L342.186 171.48C352.12 178.651 368.284 178.651 378.218 171.479ZM376.748 142.97H343.657C352.78 136.384 367.624 136.383 376.748 142.97ZM376.748 170.418C367.625 177.004 352.781 177.005 343.657 170.418H376.748Z" fill="#F0F0F0"/>
<path d="M250 427.561C357.082 427.561 443.889 422.492 443.889 416.238C443.889 409.985 357.082 404.915 250 404.915C142.918 404.915 56.1108 409.985 56.1108 416.238C56.1108 422.492 142.918 427.561 250 427.561Z" fill="#F5F5F5"/>
<path d="M179.674 130.223C175.863 128.828 169.564 131.81 170.802 137.748C172.04 143.685 157.574 136.263 154.466 148.338C154.466 148.338 161.252 149.403 165.087 156.241C170.352 165.629 211.783 166.588 205.89 154.982C199.997 143.376 212.487 140.364 208.703 132.135C204.918 123.906 197.814 121.68 192.698 123.682C187.582 125.684 176.714 122.591 179.674 130.223Z" fill="#003559"/>
<path d="M179.675 130.348C179.638 130.348 179.601 130.331 179.576 130.299C178.417 128.802 178.024 127.621 178.375 126.69C179.01 125.006 181.904 124.445 185.255 123.794C188.495 123.165 192.166 122.453 193.958 120.532C194.008 120.482 194.087 120.479 194.135 120.526C194.186 120.573 194.189 120.652 194.142 120.702C192.294 122.683 188.58 123.403 185.303 124.039C182.161 124.648 179.195 125.224 178.61 126.777C178.293 127.62 178.673 128.722 179.774 130.145C179.816 130.199 179.806 130.278 179.752 130.32C179.729 130.34 179.701 130.348 179.675 130.348Z" fill="#003559"/>
<path d="M206.16 169.1C208.457 168.38 210.922 167.582 213.28 166.733C215.658 165.88 218.034 165.023 220.373 164.085C225.032 162.181 229.627 160.138 233.914 157.715C234.435 157.427 235.09 157.056 235.238 156.951C235.376 156.87 235.526 156.719 235.678 156.614L236.147 156.164C236.789 155.5 237.432 154.616 238.02 153.655C239.195 151.716 240.242 149.494 241.156 147.196C242.1 144.902 242.943 142.52 243.7 140.1C244.479 137.694 245.2 135.21 245.864 132.794L249.959 133.449C249.529 138.804 248.616 143.992 247.185 149.247C246.422 151.858 245.545 154.479 244.216 157.092C243.547 158.398 242.786 159.715 241.725 161.014C241.438 161.337 241.159 161.659 240.854 161.976C240.512 162.29 240.206 162.607 239.82 162.907C238.937 163.596 238.455 163.855 237.868 164.242C233.278 167.214 228.458 169.613 223.552 171.732C218.616 173.845 213.703 175.664 208.437 177.155L206.16 169.1Z" fill="#FFB573"/>
<path d="M200.607 169.3C201.897 166.066 220.363 163.667 220.363 163.667L223.008 180.014C223.008 180.014 207.44 186.063 204.099 183.007C200.619 179.825 198.724 174.019 200.607 169.3Z" fill="#003559"/>
<path d="M245.31 131.762L243.884 125.138L251.401 128.717C251.401 128.717 251.71 133.965 248.81 135.746L248.09 135.379C246.668 134.652 245.647 133.324 245.31 131.762Z" fill="#FFB573"/>
<path d="M245.609 119.297L252.292 121.314L251.402 128.717L243.884 125.138L245.609 119.297Z" fill="#FFB573"/>
<path d="M162.004 355.051L169.011 359.378L179.941 345.724L173.943 340.269L162.004 355.051Z" fill="#FFB573"/>
<path d="M170.686 358.956L164.496 352.152C164.271 351.905 163.916 351.86 163.643 352.045L157.555 356.167C156.923 356.595 156.832 357.556 157.361 358.118C159.56 360.453 160.739 361.469 163.461 364.461C165.136 366.302 169.754 371.763 172.067 374.305C174.329 376.791 177.016 374.696 176.281 373.43C172.984 367.755 171.346 363.127 171.235 360.307C171.215 359.798 171.016 359.318 170.686 358.956Z" fill="#003559"/>
<g opacity="0.2">
<path d="M179.937 345.727L174.609 352.385L167.783 347.891L173.935 340.271L179.937 345.727Z" fill="black"/>
</g>
<path d="M213.854 169.768C213.854 169.768 217.732 171.204 209.146 219.113C195.953 218.9 182.318 218.681 175.899 218.577C176.675 205.054 176.93 196.701 170.91 168.827C170.91 168.827 177.796 167.433 184.954 167.204C190.553 167.024 195.14 166.92 200.051 167.448C206.524 168.144 213.854 169.768 213.854 169.768Z" fill="#003559"/>
<path opacity="0.2" d="M174.337 186.482C174.711 188.721 175.01 190.792 175.264 192.715C177.37 188.333 177.856 182.454 177.856 182.454L174.337 186.482Z" fill="black"/>
<path d="M186.722 150.229C187.596 155.102 188.403 164.018 184.952 167.204C184.952 167.204 186.201 172.153 195.227 172.298C205.152 172.458 200.05 167.448 200.05 167.448C194.654 166.067 194.859 162.05 195.863 158.291L186.722 150.229Z" fill="#FFB573"/>
<path d="M184.956 167.209C190.556 167.024 195.139 166.918 200.051 167.452C200.378 167.489 200.706 167.526 201.033 167.563C202.202 169.867 202.513 175.445 199.542 180.55C199.542 180.55 186.324 172.944 182.965 167.304C183.622 167.262 184.29 167.23 184.956 167.209Z" fill="#FFB573"/>
<path opacity="0.2" d="M190.449 153.519L195.859 158.287C195.618 159.177 195.427 160.08 195.35 160.959C193.286 160.627 190.479 158.309 190.295 156.139C190.202 155.057 190.264 154.019 190.449 153.519Z" fill="black"/>
<path d="M181.619 141.727C183.344 149.668 183.904 153.065 188.585 156.557C195.626 161.81 205.002 157.955 205.685 149.659C206.3 142.192 203.376 130.461 195.039 128.477C186.825 126.524 179.894 133.787 181.619 141.727Z" fill="#FFB573"/>
<path d="M181.819 131.592C185.155 131.809 189.081 133.501 188.132 138.07C187.183 142.639 183.515 139.62 184.85 146.268C186.184 152.916 173.911 149.076 175.76 142.967C177.609 136.858 176.699 131.259 181.819 131.592Z" fill="#003559"/>
<path d="M179.678 136.713C184.563 141.251 191.374 128.597 198.035 133.345C204.696 138.093 204.582 129.968 197.022 127.967C189.462 125.967 173.785 131.239 179.678 136.713Z" fill="#003559"/>
<path d="M209.145 219.113C209.145 219.113 212.669 266.745 211.73 291.7C210.754 317.657 177.606 350.886 177.606 350.886L169.05 343.9C168.829 344.009 193.097 300.949 191.705 287.935C188.746 260.267 184.798 218.72 184.798 218.72L209.145 219.113Z" fill="#56B01A"/>
<path opacity="0.3" d="M209.145 219.113C209.145 219.113 212.669 266.745 211.73 291.7C210.754 317.657 177.606 350.886 177.606 350.886L169.05 343.9C168.829 344.009 193.097 300.949 191.705 287.935C188.746 260.267 184.798 218.72 184.798 218.72L209.145 219.113Z" fill="white"/>
<path d="M166.828 345.54L177.876 352.373L180.866 349.35L168.761 341.268L166.828 345.54Z" fill="#003559"/>
<path opacity="0.2" d="M193.07 235.856C190.103 230.678 187.9 230.862 186.278 234.087C187.65 248.231 189.748 269.497 191.518 286.248C195.457 273.96 202.205 251.795 193.07 235.856Z" fill="black"/>
<path d="M111.449 303.309L114.085 311.061L133.003 307.804L130.368 300.053L111.449 303.309Z" fill="#FFB573"/>
<path d="M116.981 311.422L115.681 302.316C115.634 301.985 115.361 301.719 115.025 301.676L107.539 300.732C106.763 300.634 106.134 301.286 106.256 302.05C106.765 305.224 107.173 306.751 107.745 310.756C108.097 313.22 108.846 320.299 109.332 323.701C109.807 327.028 113.27 327.241 113.378 325.82C113.862 319.451 115.142 314.946 116.667 312.783C116.942 312.393 117.05 311.906 116.981 311.422Z" fill="#003559"/>
<g opacity="0.2">
<path d="M132.998 307.804L123.246 309.484L120.61 301.729L130.361 300.049L132.998 307.804Z" fill="black"/>
</g>
<path d="M199.948 218.965C199.948 218.965 195.395 263.559 184.781 286.472C180.188 296.388 126.482 309.818 126.482 309.818L121.783 299.794C121.051 299.748 152.263 282.015 162.641 278.16C164.95 277.302 166.632 275.301 167.111 272.885C172.326 246.547 175.602 218.573 175.602 218.573L199.948 218.965Z" fill="#56B01A"/>
<path opacity="0.3" d="M199.948 218.965C199.948 218.965 195.395 263.559 184.781 286.472C180.188 296.388 126.482 309.818 126.482 309.818L121.783 299.794C121.051 299.748 152.263 282.015 162.641 278.16C164.95 277.302 166.632 275.301 167.111 272.885C172.326 246.547 175.602 218.573 175.602 218.573L199.948 218.965Z" fill="white"/>
<path d="M121.234 298.858L125.303 311.195L129.705 311.312L125.47 296.783L121.234 298.858Z" fill="#003559"/>
<path d="M115.973 314.483C116.088 315.289 116.321 316.031 116.762 316.442C117.042 316.703 117.379 316.816 117.764 316.776C117.994 316.752 118.158 316.637 118.237 316.443C118.649 315.444 116.508 312.233 116.262 311.871C116.213 311.799 116.127 311.759 116.046 311.772C115.966 311.785 115.908 311.846 115.904 311.927C115.862 312.618 115.845 313.59 115.973 314.483ZM117.887 315.905C117.908 316.054 117.903 316.176 117.867 316.264C117.834 316.344 117.775 316.384 117.673 316.394C117.412 316.421 117.197 316.351 117.015 316.182C116.495 315.696 116.225 314.364 116.273 312.563C116.976 313.668 117.777 315.138 117.887 315.905Z" fill="#56B01A"/>
<path d="M115.905 311.966C115.909 311.993 115.918 312.02 115.934 312.044C116.516 313.005 118.57 314.893 119.484 314.731C119.7 314.693 119.954 314.535 119.933 314.003C119.917 313.61 119.753 313.253 119.444 312.944C118.434 311.936 116.185 311.777 116.09 311.771C116.02 311.767 115.958 311.798 115.926 311.854C115.906 311.888 115.899 311.926 115.905 311.966ZM119.527 313.854C119.532 313.892 119.536 313.93 119.537 313.97C119.551 314.321 119.411 314.346 119.366 314.354C118.817 314.451 117.232 313.172 116.483 312.195C117.144 312.281 118.515 312.534 119.177 313.195C119.378 313.394 119.493 313.61 119.527 313.854Z" fill="#56B01A"/>
<path d="M195.527 141.904C195.627 142.557 196.054 143.033 196.481 142.967C196.908 142.901 197.172 142.319 197.072 141.666C196.972 141.013 196.545 140.537 196.118 140.603C195.691 140.669 195.426 141.251 195.527 141.904Z" fill="#003559"/>
<path d="M202.904 140.77C203.004 141.423 203.431 141.899 203.858 141.833C204.285 141.767 204.549 141.185 204.449 140.532C204.349 139.879 203.922 139.403 203.495 139.469C203.068 139.535 202.804 140.117 202.904 140.77Z" fill="#003559"/>
<path d="M203.312 139.534L204.81 138.841C204.81 138.841 204.194 140.189 203.312 139.534Z" fill="#003559"/>
<path d="M200.014 142.282C200.014 142.282 201.553 144.922 202.981 146.09C202.243 147.027 200.721 146.884 200.721 146.884L200.014 142.282Z" fill="#ED893E"/>
<path d="M197.555 149.988C197.863 149.988 198.187 149.965 198.528 149.912C198.634 149.896 198.707 149.797 198.69 149.691C198.674 149.585 198.566 149.514 198.469 149.529C195.595 149.97 193.959 148.174 193.943 148.156C193.872 148.076 193.75 148.069 193.669 148.141C193.589 148.212 193.583 148.335 193.654 148.415C193.718 148.486 195.093 149.987 197.555 149.988Z" fill="#003559"/>
<path d="M180.577 149.411C181.388 150.888 182.804 151.852 184.14 152.218C186.148 152.768 187.142 150.969 186.575 149.079C186.064 147.378 184.404 145.042 182.393 145.326C180.41 145.606 179.65 147.723 180.577 149.411Z" fill="#FFB573"/>
<path d="M191.538 140.843C191.701 140.843 191.853 140.739 191.907 140.575C192.464 138.869 194.667 138.173 194.689 138.166C194.894 138.103 195.008 137.886 194.946 137.681C194.883 137.477 194.667 137.361 194.461 137.425C194.354 137.458 191.85 138.251 191.171 140.335C191.105 140.539 191.216 140.758 191.419 140.824C191.458 140.837 191.498 140.843 191.538 140.843Z" fill="#003559"/>
<path d="M203.801 137.008C203.933 137.008 204.062 136.94 204.135 136.818C204.244 136.634 204.184 136.396 204 136.286C202.157 135.189 200.54 135.959 200.472 135.993C200.28 136.087 200.2 136.32 200.295 136.512C200.389 136.703 200.62 136.783 200.813 136.69C200.866 136.664 202.132 136.077 203.604 136.953C203.665 136.99 203.733 137.008 203.801 137.008Z" fill="#003559"/>
<path d="M174.466 179.882C173.001 181.461 171.428 183.176 169.966 184.879C168.494 186.596 167.002 188.299 165.613 190.068C162.839 193.596 160.16 197.214 158.069 200.959L157.675 201.66C157.488 202.001 157.568 201.833 157.508 201.94C157.44 202.092 157.353 202.421 157.303 202.811C157.192 203.604 157.181 204.613 157.24 205.641C157.367 207.713 157.674 209.932 158.077 212.14C158.454 214.361 158.914 216.6 159.435 218.833C159.929 221.068 160.481 223.331 161.019 225.541L157.132 226.985C155.044 222.66 153.341 218.262 151.885 213.635C151.201 211.308 150.561 208.947 150.191 206.379C150.009 205.088 149.866 203.758 149.933 202.223C149.978 201.451 150.071 200.621 150.347 199.658C150.43 199.404 150.5 199.168 150.617 198.896C150.745 198.583 150.803 198.474 150.87 198.332L151.277 197.478C152.348 195.184 153.589 193.047 154.902 190.981C156.193 188.894 157.616 186.934 159.064 184.998C161.983 181.119 165.036 177.523 168.499 174.011L174.466 179.882Z" fill="#FFB573"/>
<path d="M170.909 168.827C167.496 169.516 161.055 180.263 161.055 180.263L172.058 190.832C172.058 190.832 180.122 184.072 179.979 179.546C179.83 174.834 174.804 168.041 170.909 168.827Z" fill="#003559"/>
<path d="M171.696 362.192C172.244 362.794 172.842 363.265 173.405 363.322C173.762 363.358 174.077 363.231 174.339 362.946C174.496 362.775 174.551 362.571 174.499 362.356C174.231 361.245 170.801 359.951 170.411 359.808C170.334 359.779 170.247 359.803 170.195 359.866C170.143 359.93 170.136 360.019 170.178 360.09C170.545 360.697 171.089 361.525 171.696 362.192ZM173.931 362.132C174.032 362.243 174.099 362.349 174.122 362.447C174.144 362.536 174.122 362.608 174.053 362.683C173.876 362.877 173.676 362.959 173.444 362.936C172.78 362.869 171.815 361.925 170.817 360.38C171.972 360.848 173.41 361.558 173.931 362.132Z" fill="#56B01A"/>
<path d="M170.202 360.12C170.22 360.14 170.243 360.156 170.268 360.167C171.251 360.592 173.856 360.832 174.44 360.096C174.579 359.922 174.676 359.623 174.355 359.189C174.118 358.869 173.791 358.676 173.385 358.62C172.058 358.435 170.301 359.779 170.226 359.836C170.172 359.878 170.144 359.945 170.152 360.013C170.158 360.053 170.175 360.09 170.202 360.12ZM173.969 359.329C173.995 359.357 174.019 359.388 174.043 359.419C174.255 359.705 174.165 359.817 174.136 359.854C173.785 360.296 171.876 360.261 170.761 359.931C171.3 359.57 172.461 358.882 173.332 359.003C173.594 359.041 173.804 359.147 173.969 359.329Z" fill="#56B01A"/>
<path d="M195.934 140.668L197.432 139.975C197.432 139.975 196.817 141.323 195.934 140.668Z" fill="#003559"/>
<path d="M175.432 216.618L174.534 219.58C174.414 219.809 174.684 220.049 175.068 220.055L209.286 220.606C209.586 220.611 209.836 220.468 209.858 220.28L210.206 217.309C210.23 217.103 209.973 216.924 209.645 216.919L175.977 216.377C175.73 216.373 175.509 216.471 175.432 216.618Z" fill="#FAFAFA"/>
<path d="M179.893 220.455L178.991 220.441C178.811 220.438 178.676 220.343 178.69 220.23L179.175 216.37C179.189 216.257 179.348 216.167 179.527 216.17L180.429 216.185C180.609 216.188 180.744 216.283 180.73 216.396L180.245 220.256C180.231 220.368 180.072 220.458 179.893 220.455Z" fill="#56B01A"/>
<g opacity="0.3">
<path d="M179.893 220.455L178.991 220.441C178.811 220.438 178.676 220.343 178.69 220.23L179.175 216.37C179.189 216.257 179.348 216.167 179.527 216.17L180.429 216.185C180.609 216.188 180.744 216.283 180.73 216.396L180.245 220.256C180.231 220.368 180.072 220.458 179.893 220.455Z" fill="white"/>
</g>
<path d="M206.746 220.888L205.844 220.873C205.664 220.87 205.529 220.775 205.543 220.662L206.028 216.802C206.042 216.689 206.201 216.599 206.38 216.602L207.282 216.616C207.462 216.619 207.597 216.714 207.583 216.827L207.098 220.687C207.084 220.801 206.926 220.891 206.746 220.888Z" fill="#56B01A"/>
<path opacity="0.3" d="M206.746 220.888L205.844 220.873C205.664 220.87 205.529 220.775 205.543 220.662L206.028 216.802C206.042 216.689 206.201 216.599 206.38 216.602L207.282 216.616C207.462 216.619 207.597 216.714 207.583 216.827L207.098 220.687C207.084 220.801 206.926 220.891 206.746 220.888Z" fill="white"/>
<path d="M193.32 220.672L192.418 220.657C192.238 220.654 192.103 220.559 192.117 220.446L192.602 216.586C192.616 216.473 192.775 216.383 192.954 216.386L193.856 216.401C194.036 216.404 194.171 216.499 194.157 216.612L193.672 220.472C193.658 220.585 193.499 220.675 193.32 220.672Z" fill="#56B01A"/>
<path opacity="0.3" d="M193.32 220.672L192.418 220.657C192.238 220.654 192.103 220.559 192.117 220.446L192.602 216.586C192.616 216.473 192.775 216.383 192.954 216.386L193.856 216.401C194.036 216.404 194.171 216.499 194.157 216.612L193.672 220.472C193.658 220.585 193.499 220.675 193.32 220.672Z" fill="white"/>
<path d="M161.123 224.987L166.099 232.3L157.817 231.446C157.817 231.446 155.768 226.605 157.904 223.955L161.123 224.987Z" fill="#FFB573"/>
<path d="M165.642 239.168L158.747 238.077L157.817 231.445L166.099 232.3L165.642 239.168Z" fill="#FFB573"/>
<path d="M310.809 158.034L309.623 158.601L308.525 159.093C307.793 159.404 307.06 159.693 306.324 159.972C304.853 160.529 303.369 161.037 301.862 161.497C298.841 162.386 295.731 163.078 292.513 163.461C289.294 163.848 285.964 163.925 282.556 163.499C280.854 163.29 279.141 162.938 277.441 162.405C277.016 162.289 276.594 162.124 276.173 161.977L275.542 161.749L274.82 161.44C274.327 161.232 273.859 161.008 273.44 160.762C273.004 160.523 272.568 160.28 272.19 160.016C270.599 158.988 269.283 157.837 268.098 156.667C266.915 155.492 265.826 154.293 264.84 153.064C262.878 150.588 261.148 148.068 259.602 145.473C256.477 140.288 253.948 134.983 251.788 129.371L256.931 126.873C258.446 129.192 259.999 131.614 261.641 133.896C263.248 136.212 264.909 138.476 266.618 140.651C268.338 142.817 270.09 144.919 271.948 146.776C273.759 148.636 275.736 150.332 277.516 151.275C278.915 152.089 281.303 152.529 283.621 152.66C285.964 152.816 288.443 152.58 290.942 152.193C293.443 151.768 295.975 151.147 298.48 150.361C299.737 149.981 300.987 149.556 302.218 149.094C302.834 148.865 303.444 148.621 304.043 148.374L304.934 148.011L305.716 147.674L310.809 158.034Z" fill="#FF8B7B"/>
<path d="M257.358 129.563L256.857 121.845L250.066 128.932C250.066 128.932 251.834 134.299 255.438 134.93L256.012 134.278C257.145 132.988 257.64 131.257 257.358 129.563Z" fill="#FF8B7B"/>
<path d="M252.126 117.226L246.245 121.886L250.065 128.932L256.856 121.845L252.126 117.226Z" fill="#FF8B7B"/>
<path d="M352.779 147.038C354.619 149.196 356.156 151.285 357.756 153.47C359.339 155.634 360.816 157.88 362.246 160.171C365.088 164.76 367.67 169.594 369.663 174.93L370.347 176.988L370.516 177.503L370.6 177.76L370.706 178.154C370.855 178.724 370.977 179.293 371.026 179.798C371.279 181.885 371.054 183.582 370.766 185.149C370.159 188.258 369.142 190.902 368.019 193.442C365.733 198.503 362.972 203.004 359.746 207.367L354.793 204.51C355.681 202.203 356.602 199.799 357.419 197.442C358.248 195.078 359.031 192.721 359.667 190.396C360.31 188.086 360.806 185.759 360.963 183.754C361.034 182.769 360.97 181.857 360.836 181.386C360.813 181.247 360.767 181.192 360.742 181.139C360.731 181.113 360.744 181.134 360.716 181.068L360.633 180.871L360.466 180.477L359.804 178.902C357.846 174.684 355.339 170.474 352.585 166.384C351.225 164.327 349.783 162.305 348.331 160.288C346.896 158.291 345.324 156.251 343.896 154.407L352.779 147.038Z" fill="#FF8B7B"/>
<path d="M354.02 204.831L349.823 211.328L359.499 209.684C359.499 209.684 361.277 204.32 358.76 201.666L357.911 201.848C356.232 202.207 354.803 203.303 354.02 204.831Z" fill="#FF8B7B"/>
<path d="M350.87 217.857L358.369 217.618L359.5 209.684L349.823 211.328L350.87 217.857Z" fill="#FF8B7B"/>
<path d="M316.167 115.554C316.125 116.167 315.765 116.655 315.364 116.643C314.963 116.631 314.671 116.124 314.714 115.511C314.756 114.898 315.116 114.41 315.517 114.422C315.918 114.434 316.209 114.941 316.167 115.554Z" fill="#003559"/>
<path d="M315.822 116.657C315.822 116.657 314.183 120.153 312.529 121.814C313.546 122.859 315.424 122.452 315.424 122.452L315.822 116.657Z" fill="#FF5652"/>
<path d="M315.636 111.607C315.704 111.626 315.778 111.626 315.85 111.602C315.903 111.584 317.154 111.18 318.377 112.145C318.532 112.267 318.76 112.242 318.883 112.085C319.006 111.929 318.979 111.702 318.823 111.578C317.281 110.362 315.682 110.896 315.614 110.92C315.427 110.985 315.327 111.189 315.392 111.377C315.433 111.493 315.526 111.576 315.636 111.607Z" fill="#003559"/>
<path d="M333.294 123.681C333.52 129.945 331.718 137.663 335.717 141.116C335.717 141.116 334.366 146.873 324.038 147.58C312.682 148.357 318.443 142.299 318.443 142.299C324.597 140.391 324.3 135.791 323.091 131.535L333.294 123.681Z" fill="#FF8B7B"/>
<path d="M338.513 142.868C339.274 141.023 339.995 138.219 338.122 137.704C336.061 137.138 325.7 136.058 318.087 139.061C319.688 141.835 318.57 144.609 318.57 144.609L338.513 142.868Z" fill="#003559"/>
<path d="M384.161 372.647C384.044 372.647 383.935 372.629 383.841 372.588C383.655 372.509 383.433 372.313 383.432 371.829C383.432 371.571 383.534 371.347 383.734 371.163C384.581 370.385 387.049 370.584 387.157 370.594C387.227 370.6 387.288 370.647 387.311 370.713C387.335 370.78 387.317 370.854 387.266 370.903C386.749 371.401 385.129 372.647 384.161 372.647ZM386.374 370.925C385.542 370.925 384.421 371.021 383.978 371.429C383.854 371.544 383.793 371.674 383.793 371.829C383.793 372.177 383.935 372.237 383.981 372.257C384.472 372.464 385.811 371.676 386.696 370.931C386.596 370.926 386.487 370.925 386.374 370.925Z" fill="#56B01A"/>
<path d="M387.104 370.954C386.214 370.954 384.182 370.275 383.897 369.467C383.842 369.314 383.805 369.018 384.158 368.748C384.384 368.575 384.646 368.513 384.938 368.563C386.045 368.756 387.244 370.597 387.293 370.676C387.328 370.731 387.331 370.8 387.301 370.858C387.271 370.916 387.212 370.952 387.147 370.954C387.133 370.954 387.118 370.954 387.104 370.954ZM384.747 368.907C384.61 368.907 384.488 368.949 384.376 369.035C384.179 369.186 384.219 369.299 384.236 369.348C384.408 369.834 385.838 370.446 386.78 370.571C386.404 370.055 385.585 369.042 384.876 368.919C384.831 368.91 384.788 368.907 384.747 368.907Z" fill="#56B01A"/>
<path d="M335.554 397.151C335.277 397.151 335.044 397.1 334.884 396.981C334.732 396.868 334.571 396.643 334.669 396.215C335.019 394.686 338.837 395.452 339.271 395.544C339.344 395.56 339.401 395.619 339.413 395.693C339.424 395.767 339.389 395.84 339.323 395.877C338.601 396.287 336.698 397.151 335.554 397.151ZM336.828 395.64C335.933 395.64 335.136 395.792 335.02 396.295C334.954 396.584 335.059 396.662 335.098 396.691C335.558 397.034 337.397 396.445 338.69 395.803C338.167 395.719 337.473 395.64 336.828 395.64Z" fill="#56B01A"/>
<path d="M339.233 395.9C339.226 395.9 339.22 395.9 339.213 395.899C338.217 395.792 336.067 394.815 335.926 393.933C335.893 393.725 335.95 393.432 336.414 393.224C336.757 393.07 337.106 393.065 337.459 393.207C338.601 393.67 339.368 395.572 339.4 395.653C339.423 395.712 339.414 395.778 339.376 395.829C339.343 395.874 339.289 395.9 339.233 395.9ZM336.953 393.464C336.822 393.464 336.693 393.493 336.563 393.552C336.253 393.692 336.275 393.83 336.283 393.876C336.368 394.41 337.886 395.246 338.931 395.485C338.674 394.946 338.073 393.845 337.324 393.541C337.198 393.49 337.075 393.464 336.953 393.464Z" fill="#56B01A"/>
<path d="M347.177 393.069L339.953 395.479L334.298 378.775L341.522 376.365L347.177 393.069Z" fill="#FF8B7B"/>
<path d="M394.659 366.345L388.097 370.21L376.435 356.613L382.996 352.747L394.659 366.345Z" fill="#FF8B7B"/>
<path d="M387.213 369.708L394.584 365.365C394.852 365.207 395.187 365.261 395.389 365.494L399.896 370.695C400.364 371.234 400.203 372.1 399.578 372.454C396.98 373.925 395.647 374.507 392.405 376.417C390.411 377.592 386.416 380.225 383.662 381.847C380.968 383.434 379.049 380.896 380.041 379.98C384.487 375.871 385.552 373.189 386.37 370.748C386.518 370.307 386.821 369.939 387.213 369.708Z" fill="#003559"/>
<path d="M339.754 394.616L347.643 391.984C347.938 391.885 348.255 392.008 348.404 392.278L351.725 398.306C352.069 398.931 351.75 399.738 351.065 399.954C348.205 400.855 344.044 402.058 340.467 403.251C336.285 404.646 332.716 407.303 327.6 408.051C324.507 408.504 323.311 405.485 324.575 405.01C330.331 402.85 334.185 400.445 338.18 395.766C338.614 395.259 339.13 394.824 339.754 394.616Z" fill="#003559"/>
<path d="M348.915 141.722C356.172 141.961 367.226 159.617 367.226 159.617L354.687 172.1C354.687 172.1 348.179 165.639 342.897 158.016C337.363 150.027 341.495 141.478 348.915 141.722Z" fill="#56B01A"/>
<path opacity="0.2" d="M349.421 159.639L345.651 151.311L344.027 159.603C346.217 162.61 348.519 165.362 350.42 167.515C350.875 164.864 350.545 162.125 349.421 159.639Z" fill="black"/>
<path d="M305.257 179.023C305.893 187.5 307.128 198.013 309.287 211.019L349.93 208.237C350.023 201.966 345.195 171.717 350.327 141.837C350.327 141.837 343.325 140.914 336.676 141.047C331.477 141.153 323.954 141.502 319.405 142.229C313.403 143.191 307.782 145.144 307.782 145.144C307.782 145.144 304.564 149.146 304.719 166.872C304.751 170.371 304.912 174.392 305.257 179.023Z" fill="#56B01A"/>
<path opacity="0.2" d="M305.257 179.023C307.409 174.366 311.256 165.053 310.275 159.967L304.719 166.873C304.751 170.371 304.912 174.392 305.257 179.023Z" fill="black"/>
<path d="M315.831 157.52C313.547 164.402 299 170.987 299 170.987L286.991 152.023C286.991 152.023 296.395 147.216 305.822 145.383C316.348 143.337 318.404 149.769 315.831 157.52Z" fill="#56B01A"/>
<path opacity="0.2" d="M334.301 378.779L337.215 387.39L344.441 384.979L341.528 376.368L334.301 378.779Z" fill="black"/>
<path opacity="0.2" d="M383 352.75L376.436 356.617L382.451 363.624L389.014 359.757L383 352.75Z" fill="black"/>
<path d="M336.734 114.868C335.754 122.386 335.562 126.821 331.488 130.572C325.36 136.215 316.29 132.487 315.007 124.915C313.852 118.1 315.649 106.951 323.235 104.175C330.71 101.44 337.714 107.35 336.734 114.868Z" fill="#FF8B7B"/>
<path d="M324.592 129.96C326.608 132.263 333.356 131.281 334.779 130.098C336.202 128.915 349.432 121.077 346.354 114.438C343.276 107.799 325.802 103.9 323.612 109.73C321.421 115.56 322.522 127.596 324.592 129.96Z" fill="#003559"/>
<path d="M342.846 112.512C342.846 112.512 348.321 113.006 349.553 117.751C347.848 116.026 345.211 113.462 342.846 112.512Z" fill="#003559"/>
<path d="M326.807 111.66C318.945 111.12 303.289 99.5231 314.981 93.7111C326.673 87.8991 326.39 99.0831 331.096 101.935C335.802 104.787 338.111 99.1471 343.667 101.325C348.989 103.411 351.397 115.413 342.465 114.271C333.533 113.129 326.807 111.66 326.807 111.66Z" fill="#003559"/>
<path d="M327.913 110.095C322.371 110.095 313.772 105.878 311.388 100.785C310.322 98.5081 310.636 96.3001 312.298 94.4011C314.196 92.2321 316.028 91.135 317.9 91.047C320.746 90.909 323.082 93.1161 325.336 95.2471C327.366 97.1651 329.293 98.9771 331.204 98.5501C331.337 98.5211 331.473 98.606 331.502 98.74C331.531 98.875 331.446 99.0081 331.311 99.0381C329.126 99.5181 327.121 97.6201 324.993 95.6101C322.813 93.5511 320.569 91.413 317.923 91.547C316.195 91.629 314.478 92.6711 312.675 94.7311C311.131 96.4951 310.851 98.461 311.84 100.575C314.188 105.587 322.743 109.725 328.155 109.594C328.157 109.594 328.159 109.594 328.161 109.594C328.297 109.594 328.408 109.702 328.411 109.838C328.414 109.976 328.305 110.091 328.167 110.094C328.083 110.094 327.998 110.095 327.913 110.095Z" fill="#003559"/>
<path d="M326.408 116.753C325.857 118.672 324.551 120.331 323.205 121.325C321.18 122.819 319.737 121.386 319.94 119.144C320.123 117.127 321.397 113.918 323.603 113.297C325.776 112.684 327.038 114.558 326.408 116.753Z" fill="#FF8B7B"/>
<path d="M323.705 210.032C323.705 210.032 334.06 267.656 339.443 289.142C345.337 312.67 378.558 363.875 378.558 363.875L390.575 356.795C390.575 356.795 365.961 313.19 362.299 289.747C358.325 264.303 349.926 208.238 349.926 208.238L323.705 210.032Z" fill="#003559"/>
<path d="M374.201 360.477C374.15 360.507 377.982 364.465 377.982 364.465L391.503 356.499L388.988 352.433L374.201 360.477Z" fill="#56B01A"/>
<path opacity="0.2" d="M329.772 230.401C339.8 231.678 339.855 269.028 339.226 288.282C335.948 274.926 330.962 249.136 327.536 230.824C328.187 230.447 328.929 230.292 329.772 230.401Z" fill="black"/>
<path d="M309.29 211.019C309.29 211.019 309.939 268.045 311.457 291.218C313.036 315.322 334.03 386.597 334.03 386.597L346.267 382.514C346.267 382.514 334.837 315.244 334.703 291.475C334.557 265.563 336.001 209.191 336.001 209.191L309.29 211.019Z" fill="#003559"/>
<path d="M330.237 382.445C330.18 382.464 332.426 387.36 332.426 387.36L347.312 382.393L347.184 376.458L330.237 382.445Z" fill="#56B01A"/>
<path d="M235.304 112.323L234.551 112.98L238.051 116.992L238.804 116.335L235.304 112.323Z" fill="#56B01A"/>
<path d="M239.816 99.2182L238.877 99.561L244.008 113.623L244.948 113.28L239.816 99.2182Z" fill="#56B01A"/>
<path d="M250.755 103.86L250.221 112.561L251.219 112.622L251.753 103.922L250.755 103.86Z" fill="#56B01A"/>
<path d="M260.736 103.16L255.604 113.573L256.501 114.014L261.632 103.602L260.736 103.16Z" fill="#56B01A"/>
<path d="M263.569 114.189L260.568 115.432L260.951 116.356L263.952 115.113L263.569 114.189Z" fill="#56B01A"/>
</svg>
