<svg xmlns="http://www.w3.org/2000/svg" xmlns:xlink="http://www.w3.org/1999/xlink" width="25" zoomAndPan="magnify" viewBox="0 0 18.75 18.75" height="25" preserveAspectRatio="xMidYMid meet" version="1.0"><defs><clipPath id="c360fd2b2a"><path d="M 3 0.570312 L 18.503906 0.570312 L 18.503906 15 L 3 15 Z M 3 0.570312 " clip-rule="nonzero"/></clipPath><clipPath id="7d8fa78fe5"><path d="M 0 1 L 17 1 L 17 17.59375 L 0 17.59375 Z M 0 1 " clip-rule="nonzero"/></clipPath></defs><g clip-path="url(#c360fd2b2a)"><path fill="#007AD9" d="M 3.5625 8.746094 C 3.582031 8.515625 3.675781 8.3125 3.816406 8.128906 C 4.3125 7.476562 5.425781 7.175781 6.203125 7.65625 C 6.660156 7.941406 7.027344 8.304688 7.332031 8.738281 C 7.585938 9.09375 7.816406 9.472656 8.0625 9.847656 C 8.238281 9.605469 8.410156 9.351562 8.589844 9.105469 C 10.121094 6.972656 11.800781 4.96875 13.753906 3.203125 C 14.949219 2.121094 16.324219 1.316406 17.800781 0.679688 C 18.054688 0.570312 18.269531 0.613281 18.488281 0.835938 C 18.386719 0.929688 18.289062 1.019531 18.1875 1.113281 C 16.898438 2.332031 15.636719 3.582031 14.492188 4.9375 C 13.835938 5.710938 13.226562 6.527344 12.601562 7.328125 C 11.339844 8.941406 10.398438 10.753906 9.328125 12.488281 C 8.914062 13.15625 8.503906 13.828125 8.089844 14.496094 C 7.925781 14.761719 7.710938 14.757812 7.542969 14.488281 C 7.007812 13.605469 6.585938 12.667969 6.1875 11.71875 C 5.855469 10.925781 5.480469 10.15625 5.003906 9.433594 C 4.769531 9.078125 4.492188 8.785156 4.039062 8.746094 C 3.882812 8.734375 3.726562 8.746094 3.5625 8.746094 Z M 3.5625 8.746094 " fill-opacity="1" fill-rule="nonzero"/></g><g clip-path="url(#7d8fa78fe5)"><path fill="#007AD9" d="M 15.148438 5.984375 L 13.890625 7.242188 C 14.253906 8.042969 14.457031 8.929688 14.457031 9.867188 C 14.457031 13.390625 11.601562 16.246094 8.074219 16.246094 C 4.550781 16.246094 1.695312 13.390625 1.695312 9.867188 C 1.695312 6.339844 4.550781 3.484375 8.074219 3.484375 C 8.957031 3.484375 9.796875 3.664062 10.558594 3.988281 L 11.824219 2.722656 C 10.703125 2.132812 9.429688 1.800781 8.074219 1.800781 C 3.621094 1.800781 0.0117188 5.410156 0.0117188 9.867188 C 0.0117188 14.320312 3.621094 17.929688 8.074219 17.929688 C 12.53125 17.929688 16.140625 14.320312 16.140625 9.867188 C 16.140625 8.460938 15.78125 7.136719 15.148438 5.984375 Z M 15.148438 5.984375 " fill-opacity="1" fill-rule="nonzero"/></g></svg>