<svg width="24" height="24" viewBox="0 0 24 24" fill="none" xmlns="http://www.w3.org/2000/svg">
<g clip-path="url(#clip0_7_73)">
<path d="M24 12C24 18.627 18.627 24 12 24C5.373 24 0 18.627 0 12H2C2 17.514 6.486 22 12 22C17.514 22 22 17.514 22 12C22 6.486 17.514 2 12 2C9.223 2 6.713 3.141 4.901 4.977L6.962 7.038L0 8.392L1.305 1.379L3.484 3.559C5.656 1.363 8.666 0 12 0C18.627 0 24 5.373 24 12ZM11 6V14H18V12H13V6H11Z" fill="#eee03b"/>
</g>
<defs>
<clipPath id="clip0_7_73">
<rect width="24" height="24" fill="#ffff00"/>
</clipPath>
</defs>
</svg>
