<svg width="25" height="24" viewBox="0 0 25 24" fill="none" xmlns="http://www.w3.org/2000/svg">
<path d="M12.8061 2.644C15.7532 4.882 19.224 5.648 21.6641 5.894C21.0101 12.946 16.8018 18.487 12.8061 21.549C8.80951 18.487 4.60117 12.946 3.94815 5.893C6.38728 5.648 9.85911 4.882 12.8061 2.644V2.644ZM12.8061 0C9.82829 2.995 5.36551 4 1.8728 4C1.8728 12.583 6.90909 20.097 12.8061 24C18.7022 20.097 23.7395 12.583 23.7395 4C20.2458 4 15.782 2.995 12.8061 0ZM16.5771 8L12.2227 12.475L10.0211 10.352L8.79161 11.591L12.2227 14.953L17.8076 9.238L16.5771 8V8Z" fill="#eee03b"/>
</svg>
