<svg width="24" height="24" viewBox="0 0 24 24" fill="none" xmlns="http://www.w3.org/2000/svg">
<path d="M12 2C17.514 2 22 6.486 22 12C22 17.514 17.514 22 12 22C6.486 22 2 17.514 2 12C2 6.486 6.486 2 12 2ZM12 0C5.373 0 0 5.373 0 12C0 18.627 5.373 24 12 24C18.627 24 24 18.627 24 12C24 5.373 18.627 0 12 0ZM16 14.083C16 11.938 13.768 11.341 12.057 10.537C11.018 9.997 11.149 8.708 12.638 8.621C13.464 8.571 14.313 8.816 15.081 9.086L15.443 7.439C14.536 7.163 13.724 7.037 13 7.018V6H12V7.067C10.055 7.334 9.016 8.554 9.016 9.917C9.016 12.355 11.863 12.727 12.794 13.16C14.064 13.728 13.829 14.91 12.68 15.171C11.683 15.397 10.411 15.003 9.455 14.631L9 16.275C9.894 16.737 10.965 16.983 12 17.002V18H13V16.947C14.657 16.715 16.002 15.801 16 14.083Z" fill="#4ec9db"/>
<circle cx="12.5" cy="11.5" r="8.5" fill="black"/>
<path d="M8.47 14.626V13.422H10.85C11.802 13.422 12.4927 13.226 12.922 12.834C13.3513 12.442 13.566 11.9427 13.566 11.336C13.566 10.608 13.3327 10.034 12.866 9.614C12.3993 9.194 11.69 8.98867 10.738 8.998H7.406V8.2H16.38V8.998H12.712L13.146 8.606C13.8087 8.858 14.2753 9.23133 14.546 9.726C14.826 10.2113 14.966 10.7573 14.966 11.364C14.966 12.0453 14.8027 12.6333 14.476 13.128C14.1493 13.6133 13.6827 13.9867 13.076 14.248C12.4787 14.5 11.7507 14.626 10.892 14.626H8.47ZM13.622 18L11.06 14.108H12.572L15.148 18H13.622ZM7.406 10.944V10.146H16.38V10.944H7.406Z" fill="#4ec9db"/>
</svg>
