<svg id="Layer_1" data-name="Layer 1" xmlns="http://www.w3.org/2000/svg" viewBox="0 0 83.4 87.66"><defs><style>.cls-1,.cls-4{fill:#fbfaf1;}.cls-1,.cls-10,.cls-15,.cls-2,.cls-3,.cls-4,.cls-5,.cls-6,.cls-7,.cls-9{stroke:#2e4754;}.cls-1,.cls-2{stroke-miterlimit:22.93;}.cls-1,.cls-10,.cls-13,.cls-14,.cls-15,.cls-2,.cls-3,.cls-4,.cls-5,.cls-6,.cls-7,.cls-9{stroke-width:0.22px;}.cls-1,.cls-10,.cls-11,.cls-12,.cls-2,.cls-3,.cls-4,.cls-5,.cls-7,.cls-8,.cls-9{fill-rule:evenodd;}.cls-11,.cls-2,.cls-5{fill:#a3eef5;}.cls-3{fill:#84c1c7;}.cls-10,.cls-13,.cls-14,.cls-15,.cls-3,.cls-4,.cls-5,.cls-6,.cls-7,.cls-9{stroke-linecap:round;stroke-linejoin:round;}.cls-13,.cls-14,.cls-6{fill:none;}.cls-15,.cls-7,.cls-8{fill:#2e4754;}.cls-9{fill:#b86e56;}.cls-10,.cls-12{fill:#fc9777;}.cls-13{stroke:#000;}.cls-14{stroke:#fbfaf1;}.cls-15{font-size:8px;font-family:MyriadPro-Regular, Myriad Pro;}</style></defs><path class="cls-1" d="M40.51,2.39A39.68,39.68,0,1,1,.83,42.07,39.67,39.67,0,0,1,40.51,2.39Z"/><path class="cls-2" d="M78.69,52.86a39.68,39.68,0,0,1-76.37,0Z"/><path class="cls-3" d="M79.15,51.07c-.19.82-.4,1.63-.65,2.43h-76c-.24-.8-.46-1.61-.65-2.43Z"/><path class="cls-4" d="M29.78,26.15l-.25-.56a2.7,2.7,0,0,1,1-2,16.15,16.15,0,0,1,2-1c.3-.19.44.14.38.35a2.54,2.54,0,0,1-.11.29,4.57,4.57,0,0,0,1-.45.47.47,0,0,1,.64.07.58.58,0,0,1,.47,0,.77.77,0,0,1,.27.39c.5.29.39.59-.16.89,0,0,.39.1.28.4s-2,1.25-2.71,1.66l-2.83,0Z"/><path class="cls-5" d="M19.16,32.88s-1.75-.4-1.74,1.69,1.95,3.22,4.63,3.14,6.59.58,7.81-1.39,2.75-10.14,2.75-10.14a4.84,4.84,0,0,0-1.7-.56c-.8-.05-1.38,0-1.38,0L28,30.26c-.44,1.34-1,3.23-1,3.23l-7.09-.66-.72.05Z"/><path class="cls-3" d="M32.36,27.44c.16-.77.25-1.26.25-1.26a4.84,4.84,0,0,0-1.7-.56c-.8-.05-1.38,0-1.38,0l-.4,1.21a14.91,14.91,0,0,1,3.23.64Z"/><path class="cls-5" d="M9.6,33a46.39,46.39,0,0,1,5.45-.78,16.21,16.21,0,0,1,4.74.45c.25.07.78,3,1.22,4.66s1.18,2.59,1.47,3.91S21,43.87,21,43.87a30.4,30.4,0,0,0-.72,3.72c.09.31,1.15,3.48,1.15,3.48H8.1s1.12-3.42,1.25-4-1.28-7.83-1.72-9.8.19-4.09,2-4.25Z"/><path class="cls-4" d="M13.82,48.66l.66.7a8.1,8.1,0,0,0,1.9.16,11.07,11.07,0,0,0,1.46-.14s.61.86.91.91.31-.17.31-.17a.57.57,0,0,0,.46.12.55.55,0,0,0,.3-.31s.23.28.47.07-.11-1.45-.11-1.45.7.85,1,.52-1-1.66-1.51-2-3.64.13-4.29,0-1.56,1.58-1.56,1.58Z"/><path class="cls-6" d="M19.66,43.74a2.62,2.62,0,0,0,.78.16,4.46,4.46,0,0,0,.57,0m-3.69,4.84s.86,0,1,.09.65,1,.7,1.13l.07.19m-1.21-2.07a2.5,2.5,0,0,1,1.1.24,3.59,3.59,0,0,1,.7,1.24,1.06,1.06,0,0,1,.1.28,1,1,0,0,1,0,.23m-1.42-2.53a4.32,4.32,0,0,1,1,.16c.44.15.89,1,.89,1"/><path class="cls-5" d="M8.78,33.59a4.27,4.27,0,0,1,1.63,3.24c.12,2.23-2.67,7.4-2.67,7.4s5.17,2.5,6.07,2.58a9.18,9.18,0,0,1,1.57.27,12.55,12.55,0,0,0-.71,1.5,3.63,3.63,0,0,0-.19.78s-5.7-1-8.39-1.57-3.31-2.42-2.53-4.12S6.12,36.87,6.62,36s1.22-2.7,2.16-2.36Z"/><path class="cls-3" d="M13.93,46.82a9.57,9.57,0,0,1,1.45.26,12.55,12.55,0,0,0-.71,1.5,3.63,3.63,0,0,0-.19.78l-1.38-.24a5.43,5.43,0,0,1,.83-2.3Z"/><path class="cls-6" d="M12.55,43.19a2.22,2.22,0,0,0,1.8,1.1,2.21,2.21,0,0,0,2-.56m.43-5.27s-.53-2-.66-2.87-.25-2.2-.25-2.2"/><path class="cls-7" d="M17.73,20.57a4.75,4.75,0,0,1,2.69,4.34c.08.75,1.37,5.41-2.27,6.79s-8,.48-8.7-1.49a7.45,7.45,0,0,1,.87-6.14c1-1.79,1.27-2.94,2.77-3.52a6.52,6.52,0,0,1,4.64,0Z"/><path class="cls-4" d="M13,32.26l.06-2.76a12.73,12.73,0,0,1-.54-1.24,1.52,1.52,0,0,1-1.21-1.57c0-.7.29-.92.57-1a1.29,1.29,0,0,1,1.12.8c.31.79.31,1,.41,1.1s-.06-.7.14-1.05A4.13,4.13,0,0,0,13.78,25c0-.54,1.5-.67,2.15-1.26a2.85,2.85,0,0,0,.83-1.09s.07.42,1.34.66l.55.1c.05.18.08.36.12.55.25,1.51.56,3.8,0,5.09a3.41,3.41,0,0,1-1.93,1.73l0,1.34-1,1.31L13,32.26Z"/><path class="cls-7" d="M16.85,30.74l0,1.11c-2.31-.48-2.67-2.49-2.16-2.07a10,10,0,0,0,2.12,1Z"/><path class="cls-8" d="M15.46,25.43c-.14,0-.26.18-.25.38s.13.37.28.36.26-.17.25-.38-.13-.37-.28-.36Z"/><path class="cls-8" d="M17.85,25.25c-.15,0-.26.18-.25.38s.13.37.28.36.26-.17.25-.38-.13-.37-.28-.36Z"/><polyline class="cls-6" points="16.77 25.48 17.12 26.72 16.64 27.02"/><path class="cls-8" d="M17.24,27.88a6.31,6.31,0,0,1-1.16-.17c-.51-.14-.69.18-.49.53a1.45,1.45,0,0,0,1.43.39c.55-.12.64-.74.22-.75Z"/><path class="cls-3" d="M18,34.71l-2.14-1.32s1-1.3,1-1.31,1,.28,1,.28.39,1.89.1,2.35Z"/><path class="cls-3" d="M13,31.5a15.75,15.75,0,0,0,1.54,1.06c.74.43,1.31.83,1.31.83L13.65,34.9c-.87-.77-1.28-1.56-2-2.24L13,31.5Z"/><path class="cls-8" d="M16.88,35a.27.27,0,0,0-.25.28.28.28,0,0,0,.28.26.26.26,0,0,0,.25-.28.28.28,0,0,0-.28-.26Z"/><path class="cls-8" d="M17.34,37a.27.27,0,0,0-.25.28.28.28,0,0,0,.28.26.28.28,0,0,0,.26-.28.28.28,0,0,0-.29-.26Z"/><polygon class="cls-9" points="39.2 42.09 26.97 42.09 23.1 50.2 35.33 50.2 35.81 50.2 39.48 42.47 39.2 42.09 39.2 42.09"/><polygon class="cls-10" points="39.48 42.47 27.25 42.47 23.58 50.2 35.81 50.2 39.48 42.47 39.48 42.47"/><polygon class="cls-9" points="33.71 50.2 14.66 50.2 14.66 51.07 33.71 51.07 33.71 50.2 33.71 50.2"/><polygon class="cls-10" points="23.58 50.2 14.66 50.2 14.66 51.07 23.58 51.07 23.58 50.2 23.58 50.2"/><path class="cls-6" d="M4.2,86.29H77.49m-74-35.22H76.74M5.4,57H74.78M33.05,25.32a3.59,3.59,0,0,0-.79-1.15c-.23-.17-.38-.26-.38-.26s.37-.2.56-.33a3.13,3.13,0,0,0,.35-.33m-.49,1a7,7,0,0,0,2.2-1.36m-1.8,1.84c1.28-.56,1.62-1,2.5-1.46M33,25.18a5,5,0,0,0,1.22-.57,5,5,0,0,1,.82-.49"/><path class="cls-11" d="M9.35,7.18A2.19,2.19,0,1,1,7.17,9.36,2.18,2.18,0,0,1,9.35,7.18Z"/><polygon class="cls-12" points="50.15 8.34 54.07 8.34 54.07 11.88 50.15 11.88 50.15 8.34 50.15 8.34"/><polyline class="cls-6" points="47.16 51.07 47.16 12.33 14.23 12.33"/><path class="cls-4" d="M32.46,22l.73-1.27.48-.82a9.39,9.39,0,1,0-2.42,0l.48.82L32.46,22Z"/><path class="cls-12" d="M32.46,7.3a4.8,4.8,0,1,1-4.79,4.79A4.8,4.8,0,0,1,32.46,7.3Z"/><polygon class="cls-12" points="32.55 4.74 30.43 4.74 30.97 6.92 32.55 6.92 34.14 6.92 34.68 4.74 32.55 4.74 32.55 4.74"/><path class="cls-7" d="M30.86,6.92h3.39a.36.36,0,0,1,.36.36h0a.36.36,0,0,1-.36.36H30.86a.36.36,0,0,1-.36-.36h0a.36.36,0,0,1,.36-.36Z"/><polygon class="cls-12" points="68.89 27.66 82.49 27.66 82.49 33.43 68.89 33.43 68.89 27.66 68.89 27.66"/><path class="cls-5" d="M56.53,79.1s.76,1.62,1.07,2.59a16.94,16.94,0,0,1,.52,2.39s-3.44,2.13-4.52,2.21H47.1s-.47-1.21.72-1.46a8.25,8.25,0,0,0,3.86-2,2.34,2.34,0,0,0,.92-2c0-.41,3.93-1.75,3.93-1.75Z"/><path class="cls-3" d="M57.89,82.79c.14.69.23,1.29.23,1.29s-3.44,2.13-4.52,2.21H47.1A1.57,1.57,0,0,1,47,85.6c3,.05,8.36.1,10.4-2.42a1.33,1.33,0,0,1,.47-.39Z"/><polygon class="cls-13" points="55.42 86.29 58.24 86.29 58.24 81.23 55.42 81.23 55.42 86.29 55.42 86.29"/><polygon class="cls-7" points="51.75 86.29 61.91 86.29 61.91 85.51 51.75 85.51 51.75 86.29 51.75 86.29"/><path class="cls-4" d="M51.75,85.51a8.39,8.39,0,0,0,2.6-1.83,4.51,4.51,0,0,0,1.08-2.45h2.81a4.51,4.51,0,0,0,1.08,2.45,8.4,8.4,0,0,0,2.59,1.83H51.75Z"/><path class="cls-5" d="M50.43,79.1a27.91,27.91,0,0,1,1.08,2.59A18.65,18.65,0,0,1,52,84.08s-3.44,2.13-4.52,2.21H41s-.47-1.21.72-1.46a8.29,8.29,0,0,0,3.86-2,2.37,2.37,0,0,0,.92-2c0-.41,3.92-1.75,3.92-1.75Z"/><path class="cls-3" d="M51.87,83.2c.1.5.16.88.16.88s-3.44,2.13-4.52,2.21H41a1.55,1.55,0,0,1-.08-.72l4.21,0a6.65,6.65,0,0,0,3.23-.36c.92-.47,2.7-1.51,3.5-2Z"/><path class="cls-4" d="M51.3,22.77s.22,3.52.24,4.86-.08,3,1.52,2.9A4,4,0,0,0,55.18,30l.19,2.54,5-1.47a15.85,15.85,0,0,1-1.17-4.71c0-1.9,1-3.57-.64-5.36s-7.22-2-7.21,1.78Z"/><path class="cls-7" d="M52.06,19.39s-2.26-1-2.66.52.05,2.77,1,3,2.14.07,2.5.24.33.84.81.93c.27.05.37.53.45,1,.17,1.4-.53,2.88-1.07,2.49a3.46,3.46,0,0,0-1.54-.35c0,.18,0,.34,0,.48,0,1.34-.08,3,1.52,2.9a6.71,6.71,0,0,0,.74-.08,4.4,4.4,0,0,0,.8-2.56c.11-1.34.27-3.2.27-3.2.39-1.11,1.45-1.28,1.91-.52s-.2,1.77-.48,2.07-.35.31-.35.31.63,1.77,1.11,1.77,2.3-.29,2.3-.29a6.63,6.63,0,0,1,.72-2.46c.63-1.18.93-4.6-.56-5.68A6.88,6.88,0,0,0,54,19.18c-1.56.53-1.89.21-1.89.21Z"/><path class="cls-7" d="M52.91,51.43S43.69,56,41.75,57.28s-3.57,2.72-2.6,6,6.53,16.78,6.53,16.78l.47,1.38s3.08-1.38,3.75-1.56S51,79.61,51,79.61,49.39,75,48.79,73s-2.37-10.78-2.37-10.78S61.57,63.46,65,59.77s1.62-10,1.62-10L52.91,51.43Z"/><path class="cls-7" d="M48.82,61.76,52.24,81s3.39-.86,4.08-.9.92-.06.92-.06S55.83,65.4,55.83,63.93a12.92,12.92,0,0,0-.37-2.88l-6.64.71Z"/><polygon class="cls-4" points="55.8 63.29 57.86 63.29 57.86 81.23 55.8 81.23 55.8 63.29 55.8 63.29"/><polygon class="cls-7" points="55.8 63.29 57.86 63.29 57.86 65.11 55.8 65.11 55.8 63.29 55.8 63.29"/><path class="cls-4" d="M39.62,49s-.67.44-2.17-.09-2.06.15-2.42.95a7.59,7.59,0,0,0-.43,1.17h5.32a6.38,6.38,0,0,0-.3-2Z"/><path class="cls-9" d="M55,32.56V30.92c0-.25,1.68-.71,3-1a10.79,10.79,0,0,1,2.21-.25l.48,1.72L55,32.56Z"/><path class="cls-8" d="M52.11,24.67c.18,0,.32.2.32.44s-.14.44-.32.44-.31-.2-.31-.44.14-.44.31-.44Z"/><path class="cls-4" d="M51.4,24.61c-.4.65-1.06,1.8-.9,2s.65.28,1,.3c0-.69-.07-1.56-.12-2.33Z"/><path class="cls-14" d="M51.85,28.39a.63.63,0,0,0,.84-.52"/><path class="cls-10" d="M52.8,32.7s6.51-1.61,8.29-1.7,4.07.06,4.83,2.36a40,40,0,0,1,.73,6.77s.64,8.25.64,8.68a6.53,6.53,0,0,1-.19,1.32s-.13,1.39,0,1.37S65,52.74,59.49,52.63s-7.4-.79-7.44-.86a2.54,2.54,0,0,1,.27-.63,1.27,1.27,0,0,1-.28-.89c0-1.16-.53-7.94-.87-11.35s-.37-5.81,1.63-6.2Z"/><path class="cls-9" d="M52,49.88c-.07-1.82-.54-7.83-.86-11-.07-.74-.14-1.44-.16-2.08L54.67,35s.43,8.35.3,11.23c-.07,1.67-1.65,2.91-2.94,3.64Z"/><path class="cls-9" d="M67.1,50.13s-.13,1.39,0,1.37S65,52.74,59.49,52.63s-7.4-.79-7.44-.86a2.54,2.54,0,0,1,.27-.63s7.27.84,10.75.17,4-1.18,4-1.18Z"/><path class="cls-10" d="M52.2,33.16s2,.35,2.47,1.85-1.92,10.2-1.92,10.2a6.12,6.12,0,0,1-2.48,3.25,24.43,24.43,0,0,1-6.68,2.61H39.22c0-.31-.07-.76-.07-1.14a9.22,9.22,0,0,1,0-1.09l.92-.21a1.8,1.8,0,0,1,.61-.49c.4-.19,7.09-4,7.09-4L50.37,35s.41-2.19,1.83-1.85Z"/><path class="cls-9" d="M40.78,51.07H39.22c0-.31-.07-.76-.07-1.14a9.22,9.22,0,0,1,0-1.09l.92-.21a6.56,6.56,0,0,0,.67,2.44Z"/><path class="cls-4" d="M63.54,63.33a13.16,13.16,0,0,0,9.13-5.12c3.44-4.79,3.19-12.47-2.35-13.25s-10.7,2-12.74,5.29-3.12,6.44-6,9A12.27,12.27,0,0,1,45,62.14v1.1l18.59.09Z"/><path class="cls-4" d="M63.54,63.33a13.16,13.16,0,0,0,9.13-5.12A12.46,12.46,0,0,0,74.59,54c-.2-.17-.42-.33-.64-.5-7.5-5.41-17.19,2-20.47,5.73s-8.53,4-8.53,4l18.59.09Z"/><path class="cls-11" d="M73.78,69.93a2.19,2.19,0,1,1-2.19,2.19,2.18,2.18,0,0,1,2.19-2.19Z"/><polygon class="cls-11" points="37.56 28.65 43.95 28.65 43.95 34.42 37.56 34.42 37.56 28.65 37.56 28.65"/><text class="cls-15" transform="translate(30.35 15.43)">₹</text></svg>