<svg width="512" height="512" viewBox="0 0 512 512" fill="none" xmlns="http://www.w3.org/2000/svg">
<path d="M287.573 128C291.84 122.027 294.4 114.347 294.4 105.813C294.4 100.693 293.547 96.4267 291.84 92.16L328.533 66.56C332.8 64 333.653 58.88 331.093 54.6133C328.533 50.3467 323.413 49.4933 319.147 52.0533L282.453 77.6533C275.627 70.8267 266.24 66.56 255.147 66.56C244.907 66.56 235.52 70.8267 227.84 77.6533L191.147 52.0533C186.88 49.4933 181.76 50.3467 179.2 54.6133C176.64 58.88 177.493 64 181.76 66.56L218.453 92.16C216.747 96.4267 215.893 100.693 215.893 105.813C215.893 114.347 218.453 121.173 222.72 128C190.293 131.413 165.547 158.72 165.547 191.147V343.04C165.547 371.2 183.467 395.093 209.067 403.627V353.28C209.067 327.68 229.547 308.053 255.147 308.053C280.747 308.053 301.227 328.533 301.227 353.28V403.627C326.827 395.093 344.747 371.2 344.747 343.04V191.147C344.747 157.867 320 131.413 287.573 128ZM302.933 197.12C286.72 225.28 271.36 239.787 254.293 239.787H253.44C237.227 238.933 221.867 225.28 208.213 197.12C206.507 194.56 207.36 191.147 209.067 188.587C210.773 186.027 213.333 184.32 215.893 184.32H295.253C298.667 184.32 301.227 186.027 302.933 188.587C304.64 191.147 304.64 194.56 302.933 197.12Z" fill="black"/>
<path d="M256 324.267C240.64 324.267 227.84 337.067 227.84 352.427V431.787C227.84 448 240.64 460.8 256 460.8C271.36 460.8 284.16 448 284.16 431.787V352.427C284.16 337.067 271.36 324.267 256 324.267Z" fill="black"/>
</svg>
