<svg width="512" height="512" viewBox="0 0 512 512" fill="none" xmlns="http://www.w3.org/2000/svg">
<path d="M398.881 288.527C397.801 283.791 395.182 279.319 391.045 275.707C386.888 272.12 381.811 269.957 376.548 269.161L291.93 252.787L316.411 269.035L277.763 390.185L256 300.196L234.227 390.187L195.597 269.038L220.068 252.79L135.45 269.163C130.186 269.96 125.112 272.12 120.95 275.709C116.813 279.321 114.191 283.794 113.116 288.53L88.0282 398.728L135.355 415.15C151.066 431.483 195.046 443.497 247.795 444.641H264.2C316.948 443.499 360.924 431.483 376.64 415.15L423.969 398.728L398.881 288.527Z" fill="black"/>
<path d="M256 265.09L236.495 272.074L256 300.196L275.51 272.074L256 265.09ZM328.42 156.575C328.42 106.56 307.837 67.3638 256 67.3638C204.157 67.3638 183.585 106.562 183.585 156.575C178.163 159.403 174.602 166.042 179.927 180.267C182.612 187.41 187.346 193.395 191.363 196.529C206.136 233.311 235.19 261.706 256 261.706C276.81 261.706 305.866 233.311 320.632 196.529C324.654 193.395 329.38 187.407 332.073 180.267C337.398 166.039 333.839 159.403 328.42 156.575ZM81.8074 373.594C57.6512 370.739 38.6099 364.211 30.6867 355.978L0 345.329L16.2662 273.882C16.9651 270.812 18.6675 267.909 21.3478 265.572C24.0181 263.298 27.277 261.827 30.7482 261.327L90.1786 247.716C81.2365 240.069 72.5555 228.078 67.0029 214.231C64.3968 212.203 61.3274 208.322 59.584 203.689C56.128 194.47 58.4371 190.167 61.9546 188.329C61.9546 155.904 75.287 130.491 108.902 130.491H108.91C142.518 130.491 155.858 155.904 155.858 188.329C159.375 190.167 161.684 194.47 158.234 203.689C156.488 208.322 153.418 212.203 150.812 214.231C145.26 228.075 136.576 240.066 127.636 247.716L153.915 253.737L133.458 257.692C125.906 258.87 118.95 262.057 113.298 266.939C107.423 272.072 103.429 278.641 101.763 285.942L81.8074 373.594ZM495.734 273.879C495.03 270.81 493.332 267.906 490.652 265.569C487.959 263.245 484.669 261.837 481.252 261.325L421.824 247.713C430.766 240.066 439.444 228.075 445.005 214.228C447.613 212.201 450.675 208.32 452.419 203.686C455.875 194.468 453.565 190.164 450.051 188.326C450.051 155.901 436.703 130.488 403.092 130.488C369.48 130.488 356.14 155.901 356.14 188.326C352.627 190.164 350.316 194.468 353.772 203.686C355.51 208.32 358.579 212.201 361.185 214.228C366.743 228.073 375.424 240.064 384.366 247.713L358.083 253.734L378.54 257.69C386.086 258.867 393.047 262.054 398.651 266.89C404.575 272.066 408.561 278.638 410.227 285.929L430.185 373.594C454.341 370.739 473.382 364.211 481.308 355.978L511.992 345.329L495.734 273.879Z" fill="black"/>
</svg>
