<svg width="512" height="512" viewBox="0 0 512 512" fill="none" xmlns="http://www.w3.org/2000/svg">
<path d="M508.8 390.9C508.2 395 507.2 399 505.7 402.1C503 407.6 500.4 408.1 490.2 407.6C477 407 458.1 407.6 438.1 408.4C438.1 413.9 438.3 416.5 438.3 416.5C439.6 431.6 446.4 432.1 449.1 432.1H492.1C495.9 432.1 499.4 432.1 502.1 430.3C505.6 428 507.1 421.3 508.4 409.6C508.6 407.9 508.7 405.7 508.8 403.1V403C508.8 402.2 508.9 401.2 508.9 400.1V399C508.9 396.3 508.9 393.3 508.8 390.9Z" fill="black"/>
<path d="M2.99999 390.9C3.59999 395 4.59999 399 6.09999 402.1C8.79999 407.6 11.4 408.1 21.6 407.6C34.8 407 53.7 407.6 73.7 408.4C73.7 413.9 73.5 416.5 73.5 416.5C72.2 431.6 65.4 432.1 62.7 432.1H19.7C15.9 432.1 12.7 432.1 9.69999 430.3C6.09999 428.2 4.69999 421.3 3.39999 409.6C3.19999 407.9 3.09999 405.7 2.99999 403.1V403C2.99999 402.2 2.89999 401.2 2.89999 400.1V399C2.99999 396.3 2.99999 393.3 2.99999 390.9Z" fill="black"/>
<path d="M512 296.6C512 265.9 508 235.9 506.4 232.6C505.2 230.2 497.5 223.9 480 212C462.3 199.9 462.7 201.7 459.5 193.8C462.4 192.9 465.2 191.2 466.9 191C470.7 190.6 470.9 194.2 478.8 194.2C486.7 194.2 503.8 192.1 507.3 188.6C510.8 185.1 511.9 183.9 511.9 180.8C511.9 177.7 510.1 171.3 506.7 167.5C503.3 163.7 488.8 161.8 480.3 160.7C471.8 159.6 470.6 160.7 468.4 162.1C464.9 164.3 464.7 184.4 464.7 184.4L456.4 184.6C451 171.3 443.5 144.5 431.8 123.4C419 100.4 405.6 93.2002 400 91.4002C394.5 89.7002 389.5 88.5002 352 84.7002C313.7 80.7002 283.2 80.2002 256 80.2002C228.8 80.2002 198.3 80.8002 160 84.7002C122.5 88.6002 117.5 89.7002 112 91.4002C106.5 93.1002 93 100.4 80.2 123.4C68.5 144.5 61 171.3 55.6 184.6L47.3 184.4C47.3 184.4 47.2 164.3 43.6 162.1C41.4 160.7 40.2 159.5 31.7 160.7C23.2 161.9 8.7 163.7 5.3 167.5C1.9 171.3 0.1 177.7 0.1 180.8C0.1 183.9 1.2 185.2 4.7 188.6C8.2 192.1 25.3 194.2 33.2 194.2C41.1 194.2 41.3 190.6 45.1 191C46.8 191.2 49.7 192.9 52.5 193.8C49.2 201.7 49.7 199.9 32 212C14.5 224 6.7 230.2 5.6 232.6C4 235.9 0 265.9 0 296.6C0 327.3 2.2 354.9 2.2 364.7C2.2 368.8 2.2 376 3.1 382.9C3.7 387 4.6 391 6.2 394.1C8.9 399.6 11.4 400.1 21.7 399.6C34.9 399 54 399.6 73.7 400.4C86.9 400.9 100.4 401.4 112.4 401.7C142.4 402.3 133.6 397.3 146.4 397.5C159.2 397.7 209.7 399.8 255.9 399.8C302.1 399.8 352.7 397.7 365.4 397.5C378.2 397.3 369.4 402.3 399.4 401.7C411.4 401.5 424.9 400.9 438.1 400.4C457.8 399.7 477 399 490.1 399.6C500.4 400.1 502.9 399.6 505.6 394.1C507.1 391 508.1 387 508.7 382.9C509.7 376 509.6 368.8 509.6 364.7C509.8 355 512 327.3 512 296.6ZM86.2 145.2C91 134 105.4 111.5 112.4 107.5C114.1 106.5 129 101.8 166.3 99.3002C200.6 97.0002 238.5 96.1002 256.1 96.1002C273.7 96.1002 311.6 97.0002 345.9 99.3002C383.1 101.8 398.2 106.4 399.8 107.5C408.8 113.7 421.2 134 426 145.2C430.8 156.4 437.2 178.4 436 181.4C434.8 184.4 437.2 185.9 421 184.6C404.9 183.4 303.8 182.1 256.2 182.1C208.7 182.1 107.6 183.4 91.4 184.6C75.2 185.8 77.6 184.4 76.4 181.4C75 178.4 81.4 156.5 86.2 145.2ZM123 270.4C115.8 272.2 111.5 276.1 102.5 276C93.5 276 69.2 271.9 64 271.7C58.8 271.5 54.2 275.2 51.5 275.9C48.8 276.6 43.5 274.7 35.5 272.2C27.5 269.7 22.8 270.4 20.2 259.5C17.5 248.7 20.2 233.2 20.2 233.2C37.5 232.4 54.2 234 85.5 242.8C116.8 251.6 134.2 268.5 134.2 268.5C134.2 268.5 130.2 268.6 123 270.4ZM358.2 349.2C343.9 351.1 284 351.6 256 351.6C228 351.6 168.1 351 153.8 349.2C139.2 347.3 120.2 329.8 133.3 315.9C151 297 147.7 297.6 187.9 292.4C222.7 287.9 249.1 287.7 256 287.7C262.8 287.7 289.3 288 324.1 292.4C364.3 297.6 361 297 378.7 315.9C391.8 329.8 372.8 347.3 358.2 349.2ZM491.8 259.6C489.1 270.4 484.5 269.8 476.5 272.3C468.5 274.8 463.2 276.6 460.5 276C457.8 275.4 453.2 271.7 448 271.8C442.8 272 418.5 276.1 409.5 276.1C400.5 276.1 396.2 272.3 389 270.5C381.8 268.7 377.8 268.7 377.8 268.7C377.8 268.7 395.1 251.7 426.5 243C457.8 234.2 474.5 232.6 491.8 233.4C491.8 233.2 494.5 248.7 491.8 259.6Z" fill="black"/>
</svg>
