<svg width="512" height="512" viewBox="0 0 512 512" fill="none" xmlns="http://www.w3.org/2000/svg">
<path d="M420.571 283.429V420.571C420.571 425.524 418.762 429.809 415.143 433.429C411.524 437.048 407.238 438.857 402.286 438.857H292.571V329.143H219.429V438.857H109.714C104.762 438.857 100.476 437.048 96.8572 433.429C93.2381 429.809 91.4286 425.524 91.4286 420.571V283.429C91.4286 283.238 91.4762 282.952 91.5714 282.571C91.6667 282.19 91.7143 281.905 91.7143 281.714L256 146.286L420.286 281.714C420.476 282.095 420.571 282.667 420.571 283.429ZM484.286 263.714L466.571 284.857C465.048 286.571 463.048 287.619 460.571 288H459.714C457.238 288 455.238 287.333 453.714 286L256 121.143L58.2857 286C56 287.524 53.7143 288.19 51.4286 288C48.9524 287.619 46.9524 286.571 45.4286 284.857L27.7143 263.714C26.1905 261.809 25.5238 259.571 25.7143 257C25.9048 254.429 26.9524 252.381 28.8572 250.857L234.286 79.7142C240.381 74.7618 247.619 72.2856 256 72.2856C264.381 72.2856 271.619 74.7618 277.714 79.7142L347.429 138V82.2856C347.429 79.619 348.286 77.4285 350 75.7142C351.714 73.9999 353.905 73.1428 356.571 73.1428H411.429C414.095 73.1428 416.286 73.9999 418 75.7142C419.714 77.4285 420.571 79.619 420.571 82.2856V198.857L483.143 250.857C485.048 252.381 486.095 254.429 486.286 257C486.476 259.571 485.81 261.809 484.286 263.714Z" fill="black"/>
</svg>
