<svg width="512" height="512" viewBox="0 0 512 512" fill="none" xmlns="http://www.w3.org/2000/svg">
<path d="M247.887 131.424C247.887 146.478 241.907 160.915 231.263 171.559C220.618 182.204 206.181 188.184 191.127 188.184C176.074 188.184 161.636 182.204 150.992 171.559C140.347 160.915 134.367 146.478 134.367 131.424C134.367 116.37 140.347 101.933 150.992 91.2887C161.636 80.6441 176.074 74.6641 191.127 74.6641C206.181 74.6641 220.618 80.6441 231.263 91.2887C241.907 101.933 247.887 116.37 247.887 131.424Z" fill="black"/>
<path fill-rule="evenodd" clip-rule="evenodd" d="M191.127 85.3361C185.023 85.2557 178.964 86.3885 173.301 88.6687C167.639 90.949 162.485 94.3313 158.14 98.6193C153.796 102.907 150.346 108.016 147.991 113.648C145.636 119.28 144.424 125.324 144.424 131.428C144.424 137.533 145.636 143.576 147.991 149.208C150.346 154.841 153.796 159.949 158.14 164.237C162.485 168.525 167.639 171.907 173.301 174.187C178.964 176.468 185.023 177.601 191.127 177.52C203.246 177.36 214.815 172.434 223.329 163.807C231.842 155.181 236.616 143.548 236.616 131.428C236.616 119.308 231.842 107.675 223.329 99.0487C214.815 90.4221 203.246 85.4958 191.127 85.3361ZM123.703 131.424C123.703 113.541 130.807 96.3905 143.452 83.7453C156.098 71.1001 173.248 63.9961 191.131 63.9961C209.014 63.9961 226.165 71.1001 238.81 83.7453C251.455 96.3905 258.559 113.541 258.559 131.424C258.559 149.307 251.455 166.458 238.81 179.103C226.165 191.748 209.014 198.852 191.131 198.852C173.248 198.852 156.098 191.748 143.452 179.103C130.807 166.458 123.703 149.307 123.703 131.424ZM335.119 234.672C282.103 234.672 239.119 277.648 239.119 330.672C239.119 383.688 282.103 426.672 335.119 426.672C388.143 426.672 431.119 383.688 431.119 330.672C431.119 277.648 388.143 234.672 335.119 234.672ZM217.791 330.672C217.791 265.872 270.319 213.336 335.119 213.336C399.919 213.336 452.455 265.864 452.455 330.672C452.455 395.472 399.927 448 335.119 448C270.319 448 217.791 395.472 217.791 330.672Z" fill="black"/>
<path fill-rule="evenodd" clip-rule="evenodd" d="M236.072 218.92C241.912 213.736 241.368 204.136 234.096 201.296C220.403 195.958 205.832 193.231 191.136 193.256C136.976 193.256 91.808 229.424 81.392 277.496C78.896 289.016 88.68 298.672 100.464 298.672H180.64C185.656 298.672 189.952 295.16 191.304 290.336C199.061 262.726 214.603 237.934 236.072 218.92Z" fill="black"/>
<path d="M441.793 330.664C441.793 389.576 394.041 437.336 335.129 437.336C276.217 437.336 228.465 389.576 228.465 330.664C228.465 271.752 276.225 224 335.121 224C394.033 224 441.793 271.76 441.793 330.664Z" fill="#D0D2E0"/>
<path fill-rule="evenodd" clip-rule="evenodd" d="M335.129 234.672C282.113 234.672 239.129 277.648 239.129 330.672C239.129 383.688 282.113 426.672 335.129 426.672C388.153 426.672 431.129 383.688 431.129 330.672C431.129 277.648 388.153 234.672 335.129 234.672ZM217.801 330.672C217.801 265.872 270.329 213.336 335.129 213.336C399.929 213.336 452.465 265.864 452.465 330.672C452.465 395.472 399.937 448 335.129 448C270.329 448 217.801 395.472 217.801 330.672Z" fill="#D0D2E0"/>
<path fill-rule="evenodd" clip-rule="evenodd" d="M282.359 339.647C282.359 333.759 287.135 328.983 293.023 328.983H315.479C318.309 328.983 321.022 330.107 323.023 332.108C325.023 334.108 326.147 336.822 326.147 339.651C326.147 342.481 325.023 345.194 323.023 347.195C321.022 349.195 318.309 350.319 315.479 350.319H293.023C291.622 350.319 290.235 350.043 288.941 349.507C287.646 348.97 286.47 348.184 285.48 347.193C284.49 346.202 283.704 345.025 283.169 343.731C282.633 342.436 282.358 341.048 282.359 339.647ZM282.359 272.287C282.359 266.391 287.135 261.615 293.023 261.615H377.231C380.061 261.615 382.774 262.739 384.775 264.74C386.775 266.74 387.899 269.454 387.899 272.283C387.899 275.113 386.775 277.826 384.775 279.827C382.774 281.827 380.061 282.951 377.231 282.951H293.023C291.622 282.951 290.235 282.675 288.941 282.139C287.646 281.602 286.47 280.816 285.48 279.825C284.49 278.834 283.704 277.657 283.169 276.363C282.633 275.068 282.358 273.688 282.359 272.287ZM282.359 305.967C282.359 300.079 287.135 295.303 293.023 295.303H377.231C380.061 295.303 382.774 296.427 384.775 298.428C386.775 300.428 387.899 303.142 387.899 305.971C387.899 308.801 386.775 311.514 384.775 313.515C382.774 315.515 380.061 316.639 377.231 316.639H293.023C291.622 316.639 290.235 316.363 288.941 315.827C287.646 315.29 286.47 314.504 285.48 313.513C284.49 312.522 283.704 311.345 283.169 310.051C282.633 308.756 282.358 307.368 282.359 305.967Z" fill="black"/>
<path fill-rule="evenodd" clip-rule="evenodd" d="M285.48 332.112C289.64 327.952 296.4 327.952 300.568 332.112L360.112 391.656C361.103 392.647 361.889 393.823 362.425 395.117C362.961 396.412 363.237 397.799 363.237 399.2C363.237 400.601 362.961 401.989 362.425 403.283C361.889 404.577 361.103 405.753 360.112 406.744C359.122 407.735 357.946 408.521 356.651 409.057C355.357 409.593 353.969 409.869 352.568 409.869C351.167 409.869 349.78 409.593 348.486 409.057C347.191 408.521 346.015 407.735 345.024 406.744L285.48 347.2C284.489 346.21 283.703 345.034 283.166 343.739C282.63 342.445 282.354 341.057 282.354 339.656C282.354 338.255 282.63 336.867 283.166 335.573C283.703 334.279 284.489 333.103 285.48 332.112Z" fill="black"/>
<path fill-rule="evenodd" clip-rule="evenodd" d="M338.496 305.967C338.496 294.047 327.752 282.951 312.672 282.951V261.615C337.896 261.615 359.832 280.687 359.832 305.967C359.832 331.247 337.896 350.319 312.672 350.319V328.983C327.752 328.983 338.496 317.895 338.496 305.967Z" fill="black"/>
</svg>
