<svg width="512" height="512" viewBox="0 0 512 512" fill="none" xmlns="http://www.w3.org/2000/svg">
<path d="M256 152C163.363 152 88 227.363 88 320C88 412.637 163.363 488 256 488C348.637 488 424 412.637 424 320C424 227.363 348.637 152 256 152ZM256 448C185.308 448 128 390.692 128 320C128 249.308 185.308 192 256 192C326.692 192 384 249.308 384 320C384 390.692 326.692 448 256 448Z" fill="black"/>
<path d="M256 496C158.953 496 80 417.047 80 320C80 222.953 158.953 144 256 144C353.047 144 432 222.953 432 320C432 417.047 353.047 496 256 496ZM256 160C167.773 160 96 231.773 96 320C96 408.227 167.773 480 256 480C344.227 480 416 408.227 416 320C416 231.773 344.227 160 256 160ZM256 456C181.008 456 120 394.992 120 320C120 245.008 181.008 184 256 184C330.992 184 392 245.008 392 320C392 394.992 330.992 456 256 456ZM256 200C189.828 200 136 253.828 136 320C136 386.172 189.828 440 256 440C322.172 440 376 386.172 376 320C376 253.828 322.172 200 256 200Z" fill="black"/>
<path d="M312 136H200L168 72H344L312 136Z" fill="#E6F3FF"/>
<path d="M312 144H200C196.969 144 194.203 142.289 192.844 139.578L160.844 75.5782C159.602 73.1016 159.734 70.1563 161.195 67.7969C162.656 65.4374 165.227 64 168 64H344C346.774 64 349.344 65.4375 350.805 67.7969C352.266 70.1562 352.399 73.1016 351.156 75.5782L319.156 139.578C317.797 142.289 315.031 144 312 144ZM204.945 128H307.055L331.055 80H180.945L204.945 128Z" fill="black"/>
<path d="M344 72H168L200 24H312L344 72Z" fill="#E6F3FF"/>
<path d="M344 80H168C165.047 80 162.336 78.375 160.945 75.7734C159.555 73.1718 159.711 70.0156 161.344 67.5625L193.344 19.5625C194.828 17.3359 197.328 16 200 16H312C314.672 16 317.172 17.3359 318.656 19.5625L350.656 67.5625C352.289 70.0156 352.445 73.1718 351.055 75.7734C349.664 78.375 346.953 80 344 80ZM182.945 64H329.055L307.719 32H204.281L182.945 64Z" fill="black"/>
<path d="M308 136H204C192.954 136 184 144.954 184 156C184 167.046 192.954 176 204 176H308C319.046 176 328 167.046 328 156C328 144.954 319.046 136 308 136Z" fill="black"/>
<path d="M308 184H204C188.562 184 176 171.438 176 156C176 140.563 188.562 128 204 128H308C323.438 128 336 140.563 336 156C336 171.438 323.438 184 308 184ZM204 144C197.383 144 192 149.383 192 156C192 162.617 197.383 168 204 168H308C314.617 168 320 162.617 320 156C320 149.383 314.617 144 308 144H204ZM414 80.5705H382C377.578 80.5705 374 76.9924 374 72.5705C374 68.1487 377.578 64.5705 382 64.5705H414C418.422 64.5705 422 68.1487 422 72.5705C422 76.9924 418.422 80.5705 414 80.5705ZM404.992 121.141C403.859 121.141 402.711 120.899 401.617 120.391L372.617 106.867C368.617 105 366.883 100.242 368.75 96.2346C370.625 92.2424 375.391 90.5159 379.383 92.3674L408.383 105.891C412.383 107.758 414.117 112.516 412.25 116.524C410.891 119.43 408.008 121.141 404.992 121.141ZM376.008 53.5236C372.992 53.5236 370.109 51.8127 368.75 48.9064C366.883 44.8986 368.617 40.1408 372.617 38.2736L401.617 24.7502C405.625 22.8908 410.375 24.6174 412.25 28.6174C414.117 32.6252 412.383 37.383 408.383 39.2502L379.383 52.7736C378.289 53.2815 377.141 53.5236 376.008 53.5236Z" fill="black"/>
</svg>
