<svg width="512" height="512" viewBox="0 0 512 512" fill="none" xmlns="http://www.w3.org/2000/svg">
<path d="M474.4 100.8L258.4 20.8C256.8 20 254.4 20 252.8 20.8L36.8 100.8C34.4 101.6 32 104.8 32 108C32 111.2 34.4 114.4 37.6 115.2L112 143.2V188C112 189.6 112 190.4 112.8 192C113.6 192.8 117.6 200.8 128 210.4C128 211.2 127.2 212 127.2 212.8V213.6C104.8 217.6 87.2 236.8 87.2 260.8C87.2 284.8 104.8 304 127.2 308V310.4C127.2 311.2 133.6 351.2 163.2 383.2C120.8 404 86.4 439.2 66.4 482.4C65.6 484.8 65.6 488 67.2 490.4C68.8 492.8 71.2 494.4 73.6 494.4H436.8C439.2 494.4 442.4 492.8 443.2 490.4C444 488 444.8 485.6 444 482.4C424 439.2 389.6 404.8 347.2 383.2C376 351.2 383.2 311.2 383.2 310.4V308C405.6 304 423.2 284.8 423.2 260.8C423.2 236.8 405.6 217.6 383.2 213.6V212.8C383.2 212 383.2 211.2 382.4 210.4C392.8 200.8 397.6 193.6 397.6 192C398.4 190.4 398.4 189.6 398.4 188V143.2L430.4 131.2V197.6C420.8 200.8 414.4 209.6 414.4 220C414.4 233.6 424.8 244 438.4 244C452 244 462.4 233.6 462.4 220C462.4 209.6 456 200.8 446.4 197.6V125.6L472.8 116C476 115.2 478.4 112 478.4 108.8C478.4 105.6 477.6 101.6 474.4 100.8ZM440 228C435.2 228 432 224.8 432 220C432 215.2 435.2 212 440 212C444.8 212 448 215.2 448 220C448 224.8 444.8 228 440 228ZM144 222.4C153.6 228.8 164.8 235.2 179.2 240C173.6 247.2 161.6 256.8 144 259.2V222.4ZM104 260C104 244.8 114.4 232.8 128 228.8V290.4C114.4 287.2 104 275.2 104 260ZM176 393.6C188.8 404 204.8 412.8 224.8 416.8L257.6 476H86.4C107.2 439.2 138.4 410.4 176 393.6ZM245.6 420H266.4L256 437.6L245.6 420ZM424.8 476H276.8L264 453.6L286.4 416.8C306.4 412.8 322.4 404 335.2 393.6C373.6 410.4 404.8 439.2 424.8 476ZM368 307.2C366.4 316 349.6 404 256 404C163.2 404 145.6 316 144 307.2V275.2C173.6 272 189.6 253.6 196 244.8C203.2 246.4 210.4 248 218.4 249.6C222.4 256 246.4 288 286.4 295.2C292 296 297.6 296.8 303.2 296.8H304V300.8C304 305.6 307.2 308.8 312 308.8C316.8 308.8 320 305.6 320 300.8V295.2C336 292.8 352 285.6 368 276V307.2ZM368 256C340.8 276 313.6 284 289.6 279.2C267.2 275.2 250.4 261.6 240.8 251.2C245.6 251.2 251.2 252 256 252C310.4 252 345.6 237.6 368 222.4V256ZM408 260C408 275.2 397.6 287.2 384 291.2V229.6C397.6 232.8 408 244.8 408 260ZM384 185.6C377.6 194.4 344.8 236 256 236C167.2 236 134.4 194.4 128 185.6V148.8L253.6 195.2C254.4 195.2 255.2 196 256 196C256.8 196 257.6 196 258.4 195.2L384 148.8V185.6ZM256 179.2L63.2 108L256 36.8L448.8 108L256 179.2Z" fill="black"/>
<path d="M200 276C195.2 276 192 279.2 192 284V300C192 304.8 195.2 308 200 308C204.8 308 208 304.8 208 300V284C208 279.2 204.8 276 200 276ZM298.4 348.8C294.4 347.2 289.6 349.6 288 353.6C288 353.6 281.6 372 255.2 372C229.6 372 223.2 354.4 222.4 353.6C220.8 349.6 216.8 347.2 212 348.8C208 350.4 205.6 354.4 207.2 359.2C208 360.8 217.6 388.8 254.4 388.8C291.2 388.8 301.6 360.8 301.6 359.2C304.8 354.4 302.4 349.6 298.4 348.8Z" fill="black"/>
</svg>
