<svg width="512" height="512" viewBox="0 0 512 512" fill="none" xmlns="http://www.w3.org/2000/svg">
<path d="M416.128 47.8721C403.84 47.8721 391.584 52.6081 382.208 62.0161L303.232 140.864L111.424 106.752L66.176 152L235.136 209.056L137.824 306.816L100 298.88L54.752 344.128L134.368 377.6L167.872 457.216L213.184 411.968L205.44 374.464L303.2 276.704L360.64 445.344L405.888 400.096L371.936 208L450.048 129.888C454.516 125.435 458.061 120.143 460.48 114.317C462.899 108.491 464.144 102.244 464.144 95.9361C464.144 89.6277 462.899 83.3813 460.48 77.5551C458.061 71.7288 454.516 66.4374 450.048 61.9841C445.599 57.5199 440.313 53.9781 434.492 51.5619C428.671 49.1457 422.43 47.8706 416.128 47.8721Z" fill="black" stroke="black" stroke-linecap="round" stroke-linejoin="round"/>
</svg>
